<svg width="996" height="471" viewBox="0 0 996 471" fill="none" xmlns="http://www.w3.org/2000/svg">
<path d="M0 50C0 22.3858 22.3858 0 50 0H946C973.614 0 996 22.3858 996 50V421C996 448.614 973.614 471 946 471H50C22.3858 471 0 448.614 0 421V50Z" fill=""/>
<path fill-rule="evenodd" clip-rule="evenodd" d="M151.521 139.289C154.792 138.661 157.946 139.056 160.981 140.472C160.479 140.424 159.986 140.474 159.503 140.62C159.914 140.882 159.864 141.03 159.355 141.063C158.758 140.906 158.512 140.512 158.616 139.881C157.835 139.78 157.145 139.977 156.547 140.472C156.272 140.12 156.174 139.726 156.251 139.289C154.675 139.289 153.098 139.289 151.521 139.289Z" fill="#DB2B46"/>
<path fill-rule="evenodd" clip-rule="evenodd" d="M151.521 139.289C153.098 139.289 154.675 139.289 156.251 139.289C156.174 139.726 156.272 140.12 156.547 140.472C157.145 139.977 157.835 139.78 158.616 139.88C158.512 140.511 158.758 140.906 159.355 141.063C159.864 141.03 159.913 140.882 159.503 140.619C159.986 140.474 160.479 140.424 160.981 140.472C181.39 152.205 201.689 164.178 221.879 176.389C222.27 176.631 222.467 176.976 222.47 177.424C222.47 177.818 222.47 178.212 222.47 178.606C221.378 178.709 220.491 179.202 219.809 180.085C219.353 180.366 218.86 180.464 218.331 180.38C218.45 181.273 218.844 182.012 219.514 182.597C219.494 183.685 219.149 184.621 218.479 185.406C218.456 184.265 218.259 183.181 217.888 182.154C217.162 182.692 216.324 182.889 215.375 182.745C215.375 183.534 215.375 184.322 215.375 185.11C214.655 185.186 213.965 185.383 213.306 185.701C212.504 185.181 211.617 184.984 210.645 185.11C210.645 185.898 210.645 186.687 210.645 187.475C209.857 187.475 209.069 187.475 208.28 187.475C208.28 187.771 208.28 188.066 208.28 188.362C207.492 188.362 206.704 188.362 205.915 188.362C205.915 188.066 205.915 187.771 205.915 187.475C204.339 187.475 202.762 187.475 201.185 187.475C201.185 186.687 201.185 185.898 201.185 185.11C200.397 185.11 199.609 185.11 198.82 185.11C198.82 184.322 198.82 183.534 198.82 182.745C197.244 182.745 195.667 182.745 194.091 182.745C194.091 181.957 194.091 181.169 194.091 180.38C193.302 180.38 192.514 180.38 191.726 180.38C191.726 179.592 191.726 178.804 191.726 178.015C190.937 178.015 190.149 178.015 189.361 178.015C189.361 177.72 189.361 177.424 189.361 177.128C188.572 177.128 187.784 177.128 186.996 177.128C186.996 176.636 186.996 176.143 186.996 175.65C186.207 175.65 185.419 175.65 184.631 175.65C184.631 175.059 184.631 174.468 184.631 173.877C181.477 173.679 181.477 173.482 184.631 173.285C184.631 172.497 184.631 171.709 184.631 170.92C183.054 170.92 181.477 170.92 179.901 170.92C179.901 171.413 179.901 171.906 179.901 172.398C179.112 172.398 178.324 172.398 177.536 172.398C177.536 171.906 177.536 171.413 177.536 170.92C176.747 170.92 175.959 170.92 175.171 170.92C175.171 171.512 175.171 172.103 175.171 172.694C174.449 172.737 174.252 172.491 174.58 171.955C173.996 171.809 173.405 171.759 172.806 171.807C172.806 170.723 172.806 169.639 172.806 168.555C170.441 168.555 168.076 168.555 165.711 168.555C165.711 168.26 165.711 167.964 165.711 167.669C164.135 167.471 162.558 167.274 160.981 167.077C160.981 166.782 160.981 166.486 160.981 166.19C158.616 166.19 156.251 166.19 153.886 166.19C153.886 166.486 153.886 166.782 153.886 167.077C150.711 166.976 147.557 166.68 144.427 166.19C144.427 165.895 144.427 165.599 144.427 165.304C143.638 165.304 142.85 165.304 142.062 165.304C142.062 165.599 142.062 165.895 142.062 166.19C138.908 166.19 135.755 166.19 132.602 166.19C132.602 166.979 132.602 167.767 132.602 168.555C131.025 168.555 129.448 168.555 127.872 168.555C127.872 169.344 127.872 170.132 127.872 170.92C126.295 170.92 124.719 170.92 123.142 170.92C123.142 171.709 123.142 172.497 123.142 173.285C121.565 173.285 119.989 173.285 118.412 173.285C118.412 174.074 118.412 174.862 118.412 175.65C116.836 175.65 115.259 175.65 113.682 175.65C113.682 177.227 113.682 178.804 113.682 180.38C112.106 180.38 110.529 180.38 108.952 180.38C108.952 181.957 108.952 183.534 108.952 185.11C107.376 185.11 105.799 185.11 104.222 185.11C104.222 187.475 104.222 189.84 104.222 192.205C103.631 192.205 103.04 192.205 102.449 192.205C102.251 193.781 102.055 195.358 101.857 196.935C101.562 196.935 101.266 196.935 100.971 196.935C100.971 197.723 100.971 198.511 100.971 199.3C100.478 199.3 99.9852 199.3 99.4924 199.3C99.4924 200.088 99.4924 200.876 99.4924 201.665C99.1968 201.665 98.9012 201.665 98.6056 201.665C98.6056 202.453 98.6056 203.241 98.6056 204.03C97.3247 204.03 96.0435 204.03 94.7625 204.03C94.7625 204.818 94.7625 205.606 94.7625 206.395C97.9159 206.592 97.9159 206.789 94.7625 206.986C95.2021 209.125 95.3993 211.293 95.3538 213.489C94.3685 213.489 93.3829 213.489 92.3976 213.489C92.3976 213.194 92.3976 212.898 92.3976 212.603C86.8793 212.603 81.3612 212.603 75.8429 212.603C75.8923 206.591 75.8429 200.58 75.6951 194.57C75.5967 204.424 75.4979 214.278 75.3995 224.132C75.0557 224.659 74.8585 225.251 74.8083 225.905C74.6099 226.128 74.3636 226.227 74.0692 226.201C73.574 225.2 73.2291 224.116 73.0345 222.949C72.9361 223.048 72.8374 223.146 72.7389 223.245C72.4927 212.109 72.5417 200.974 72.8867 189.84C73.075 191.043 73.3216 192.226 73.6258 193.387C73.9116 191.667 73.7638 189.992 73.1823 188.362C73.295 187.709 73.689 187.315 74.3648 187.179C74.6096 185.286 75.1021 183.512 75.8429 181.858C76.851 181.893 77.2453 181.4 77.0254 180.38C77.2332 179.725 77.6273 179.183 78.2079 178.754C79.8007 177.565 81.4756 176.53 83.2334 175.65C84.1956 175.794 84.984 175.498 85.5983 174.763C86.6839 175.222 86.881 175.074 86.1896 174.32C86.3374 174.271 86.4852 174.222 86.633 174.172C87.3292 174.65 88.0682 175.045 88.8502 175.355C87.8589 175.615 87.7111 176.108 88.4067 176.833C88.7739 177.238 89.2173 177.534 89.737 177.72C90.5647 177.355 91.4516 177.158 92.3976 177.128C93.3436 177.158 94.2304 177.355 95.0582 177.72C95.945 177.424 96.5362 176.833 96.8319 175.946C98.31 175.749 99.7881 175.552 101.266 175.355C101.687 174.699 102.278 174.256 103.04 174.024C105.049 173.461 107.02 172.821 108.952 172.103C108.952 171.709 108.952 171.314 108.952 170.92C109.97 171.059 110.758 170.714 111.317 169.886C112.029 169.381 112.817 169.135 113.682 169.147C113.682 168.851 113.682 168.555 113.682 168.26C114.184 168.307 114.677 168.258 115.16 168.112C116.694 166.812 118.369 165.728 120.186 164.86C121.091 164.259 122.076 163.914 123.142 163.825C122.967 161.736 123.953 160.849 126.098 161.165C126.524 160.558 127.115 160.262 127.872 160.278C127.872 159.982 127.872 159.687 127.872 159.391C129.448 158.898 131.025 158.406 132.602 157.913C132.602 157.519 132.602 157.125 132.602 156.731C133.39 156.731 134.178 156.731 134.967 156.731C135.065 155.253 135.854 154.464 137.332 154.366C137.284 153.766 137.333 153.175 137.479 152.592C139.039 150.839 140.566 149.115 142.062 147.419C141.93 146.991 141.733 146.597 141.47 146.236C141.569 146.088 141.668 145.941 141.766 145.793C142.769 146.455 143.804 146.455 144.87 145.793C145.056 145.082 144.81 144.54 144.131 144.167C144.934 143.908 145.328 143.366 145.313 142.541C145.609 142.541 145.905 142.541 146.2 142.541C146.397 144.512 146.594 144.512 146.791 142.541C147.294 142.588 147.787 142.539 148.27 142.393C147.974 142.295 147.678 142.196 147.383 142.098C147.808 142.033 148.202 141.885 148.565 141.654C148.467 141.457 148.368 141.26 148.27 141.063C148.572 140.663 148.868 140.269 149.156 139.88C149.848 139.425 150.636 139.228 151.521 139.289Z" fill="#E80532"/>
<path fill-rule="evenodd" clip-rule="evenodd" d="M149.157 139.88C148.868 140.269 148.573 140.663 148.27 141.063C148.368 141.26 148.467 141.457 148.565 141.654C148.202 141.885 147.808 142.033 147.383 142.098C147.679 142.196 147.974 142.295 148.27 142.393C147.787 142.539 147.294 142.588 146.792 142.541C146.595 144.512 146.398 144.512 146.201 142.541C145.905 142.541 145.609 142.541 145.314 142.541C145.328 143.366 144.934 143.908 144.131 144.167C144.81 144.54 145.056 145.082 144.87 145.793C143.804 146.455 142.77 146.455 141.766 145.793C141.668 145.941 141.569 146.088 141.471 146.236C141.733 146.597 141.93 146.991 142.062 147.419C140.566 149.115 139.039 150.839 137.48 152.592C137.333 153.175 137.284 153.766 137.332 154.366C135.854 154.464 135.065 155.253 134.967 156.731C134.179 156.731 133.39 156.731 132.602 156.731C132.602 157.125 132.602 157.519 132.602 157.913C131.025 158.406 129.449 158.898 127.872 159.391C127.872 159.687 127.872 159.982 127.872 160.278C127.115 160.262 126.524 160.558 126.098 161.165C123.953 160.849 122.968 161.736 123.142 163.826C122.077 163.914 121.091 164.259 120.186 164.86C118.369 165.728 116.694 166.812 115.161 168.112C114.677 168.258 114.185 168.307 113.682 168.26C113.682 168.555 113.682 168.851 113.682 169.147C112.818 169.135 112.03 169.381 111.317 169.886C110.758 170.714 109.97 171.059 108.953 170.92C108.953 171.314 108.953 171.709 108.953 172.103C107.02 172.821 105.049 173.461 103.04 174.024C102.279 174.256 101.687 174.699 101.266 175.355C99.7883 175.552 98.3102 175.749 96.8321 175.946C96.5365 176.833 95.9453 177.424 95.0584 177.72C94.2307 177.355 93.3438 177.158 92.3978 177.128C91.4519 177.158 90.565 177.355 89.7373 177.72C89.2176 177.534 88.7741 177.238 88.407 176.833C87.7114 176.108 87.8592 175.615 88.8504 175.355C88.0685 175.045 87.3294 174.65 86.6333 174.172C86.4855 174.222 86.3376 174.271 86.1898 174.32C86.8813 175.074 86.6841 175.222 85.5986 174.763C84.9843 175.498 84.1959 175.794 83.2336 175.65C85.5114 174.216 87.8763 172.935 90.3285 171.807C91.1101 171.908 91.7998 171.711 92.3978 171.216C92.8123 171.324 93.1079 171.57 93.2847 171.955C92.8082 172.393 92.5125 172.935 92.3978 173.581C92.7088 173.537 93.0044 173.586 93.2847 173.729C93.4677 174.248 93.8127 174.593 94.3194 174.763C96.0251 174.409 97.7494 174.211 99.4927 174.172C99.4927 173.877 99.4927 173.581 99.4927 173.285C100.701 173.479 101.686 173.134 102.449 172.251C103.692 171.383 105.072 170.939 106.588 170.92C106.544 170.609 106.593 170.314 106.735 170.034C107.753 169.036 108.985 168.494 110.431 168.408C113.757 166.377 117.157 164.455 120.629 162.643C120.728 162.741 120.827 162.84 120.925 162.939C122.352 161.807 123.682 160.575 124.916 159.243C125.971 158.765 127.055 158.371 128.168 158.061C128.836 157.525 129.526 157.082 130.237 156.731C130.193 156.42 130.242 156.124 130.385 155.844C132.435 154.085 134.702 152.705 137.184 151.705C137.331 150.725 137.381 149.739 137.332 148.749C137.036 148.749 136.741 148.749 136.445 148.749C136.468 148.326 136.37 147.932 136.149 147.566C136.616 147.331 137.108 147.183 137.628 147.123C137.43 146.926 137.233 146.729 137.036 146.532C137.564 146.188 138.155 145.991 138.81 145.941C138.46 145.602 138.46 145.257 138.81 144.906C141.975 142.683 145.424 141.008 149.157 139.88Z" fill="#EA063B"/>
<path fill-rule="evenodd" clip-rule="evenodd" d="M138.81 144.906C138.46 145.257 138.46 145.602 138.81 145.94C138.155 145.991 137.564 146.188 137.036 146.532C137.233 146.729 137.43 146.926 137.627 147.123C137.108 147.183 136.616 147.33 136.149 147.566C136.37 147.932 136.468 148.326 136.445 148.749C136.741 148.749 137.036 148.749 137.332 148.749C137.381 149.739 137.331 150.724 137.184 151.705C134.702 152.705 132.435 154.084 130.385 155.844C130.242 156.124 130.193 156.42 130.237 156.731C129.526 157.081 128.836 157.525 128.168 158.061C127.055 158.371 125.971 158.765 124.916 159.243C123.682 160.575 122.352 161.807 120.925 162.939C120.826 162.84 120.728 162.741 120.629 162.643C117.156 164.455 113.757 166.377 110.43 168.407C108.985 168.494 107.753 169.036 106.735 170.033C106.592 170.314 106.543 170.609 106.587 170.92C105.072 170.939 103.692 171.383 102.449 172.251C101.686 173.134 100.7 173.479 99.4926 173.285C99.4926 173.581 99.4926 173.876 99.4926 174.172C97.7493 174.211 96.0249 174.409 94.3192 174.763C93.8125 174.593 93.4675 174.248 93.2846 173.729C93.0043 173.586 92.7087 173.537 92.3977 173.581C92.5124 172.935 92.808 172.393 93.2846 171.955C93.1078 171.57 92.8122 171.324 92.3977 171.216C91.7997 171.71 91.11 171.908 90.3284 171.807C106.389 162.692 122.549 153.725 138.81 144.906Z" fill="#EC0844"/>
<path fill-rule="evenodd" clip-rule="evenodd" d="M222.47 177.424C223.178 178.199 223.474 179.135 223.357 180.232C223.262 181.653 222.868 182.984 222.174 184.223C221.333 184.915 220.446 185.555 219.514 186.145C218.923 186.835 218.331 187.525 217.74 188.214C216.288 189.348 214.712 190.235 213.01 190.875C210.696 191.509 208.331 191.854 205.915 191.909C203.51 191.701 201.145 191.307 198.82 190.727C198.82 190.431 198.82 190.136 198.82 189.84C197.786 189.808 196.8 189.561 195.864 189.101C184.396 179.578 171.192 173.616 156.251 171.216C150.933 170.871 145.612 170.822 140.288 171.068C132.9 172.853 126.199 175.957 120.186 180.38C120.487 179.387 121.079 178.599 121.96 178.015C121.443 177.751 120.901 177.554 120.334 177.424C119.778 177.871 119.138 178.068 118.412 178.015C118.347 177.668 118.446 177.372 118.708 177.128C121.138 176.113 121.04 175.62 118.412 175.65C118.412 174.862 118.412 174.074 118.412 173.285C119.989 173.285 121.565 173.285 123.142 173.285C123.142 172.497 123.142 171.709 123.142 170.92C124.719 170.92 126.295 170.92 127.872 170.92C127.872 170.132 127.872 169.344 127.872 168.556C129.448 168.556 131.025 168.556 132.602 168.556C132.602 167.767 132.602 166.979 132.602 166.191C135.755 166.191 138.908 166.191 142.062 166.191C142.062 165.895 142.062 165.599 142.062 165.304C142.85 165.304 143.638 165.304 144.427 165.304C144.427 165.599 144.427 165.895 144.427 166.191C147.557 166.68 150.711 166.976 153.886 167.077C153.886 166.782 153.886 166.486 153.886 166.191C156.251 166.191 158.616 166.191 160.981 166.191C160.981 166.486 160.981 166.782 160.981 167.077C162.558 167.275 164.135 167.471 165.711 167.669C165.711 167.964 165.711 168.26 165.711 168.556C168.076 168.556 170.441 168.556 172.806 168.556C172.806 169.64 172.806 170.723 172.806 171.807C173.405 171.759 173.996 171.809 174.58 171.955C174.252 172.491 174.449 172.737 175.171 172.694C175.171 172.103 175.171 171.512 175.171 170.92C175.959 170.92 176.747 170.92 177.536 170.92C177.536 171.413 177.536 171.906 177.536 172.399C178.324 172.399 179.112 172.399 179.901 172.399C179.901 171.906 179.901 171.413 179.901 170.92C181.477 170.92 183.054 170.92 184.631 170.92C184.631 171.709 184.631 172.497 184.631 173.285C181.477 173.483 181.477 173.679 184.631 173.877C184.631 174.468 184.631 175.059 184.631 175.65C185.419 175.65 186.207 175.65 186.996 175.65C186.996 176.143 186.996 176.636 186.996 177.128C187.784 177.128 188.572 177.128 189.361 177.128C189.361 177.424 189.361 177.72 189.361 178.015C190.149 178.015 190.937 178.015 191.726 178.015C191.726 178.804 191.726 179.592 191.726 180.38C192.514 180.38 193.302 180.38 194.091 180.38C194.091 181.169 194.091 181.957 194.091 182.745C195.667 182.745 197.244 182.745 198.82 182.745C198.82 183.534 198.82 184.322 198.82 185.11C199.609 185.11 200.397 185.11 201.185 185.11C201.185 185.899 201.185 186.687 201.185 187.475C202.762 187.475 204.339 187.475 205.915 187.475C205.915 187.771 205.915 188.066 205.915 188.362C206.704 188.362 207.492 188.362 208.28 188.362C208.28 188.066 208.28 187.771 208.28 187.475C209.069 187.475 209.857 187.475 210.645 187.475C210.645 186.687 210.645 185.899 210.645 185.11C211.617 184.984 212.504 185.181 213.306 185.701C213.965 185.383 214.655 185.186 215.375 185.11C215.375 184.322 215.375 183.534 215.375 182.745C216.324 182.889 217.162 182.692 217.888 182.154C218.259 183.182 218.456 184.265 218.479 185.406C219.149 184.622 219.494 183.685 219.514 182.597C218.845 182.012 218.45 181.273 218.331 180.38C218.86 180.465 219.353 180.366 219.809 180.085C220.491 179.202 221.378 178.709 222.47 178.607C222.47 178.213 222.47 177.818 222.47 177.424Z" fill="#E2052F"/>
<path fill-rule="evenodd" clip-rule="evenodd" d="M222.174 184.223C216.398 194.577 207.825 197.878 196.456 194.127C192.12 191.368 187.784 188.608 183.448 185.849C179.147 183.501 174.713 181.481 170.145 179.789C169.446 179.19 168.658 178.697 167.781 178.311C166.814 178.019 165.829 177.921 164.824 178.015C163.535 177.866 162.255 177.669 160.981 177.424C155.004 176.213 148.993 176.262 142.949 177.572C141.788 177.786 140.704 178.131 139.697 178.607C134.043 180.202 128.919 182.813 124.325 186.441C120.602 189.994 118.138 194.28 116.934 199.3C115.389 203.938 115.389 208.569 116.934 213.194C117.427 214.377 117.919 215.559 118.412 216.742C117.88 216.454 117.338 216.158 116.786 215.855C116.688 216.15 116.589 216.446 116.491 216.742C116.223 214.628 115.828 214.529 115.308 216.446C115.259 216.15 115.21 215.855 115.16 215.559C115.566 214.914 115.861 214.225 116.047 213.49C115.456 213.49 114.865 213.49 114.273 213.49C114.263 207.214 114.066 207.214 113.682 213.49C112.106 213.49 110.529 213.49 108.952 213.49C108.952 213.096 108.952 212.701 108.952 212.307C107.376 212.307 105.799 212.307 104.222 212.307C104.269 211.901 104.219 211.507 104.075 211.125C103.907 211.914 103.759 212.702 103.631 213.49C103.237 213.49 102.843 213.49 102.449 213.49C102.44 211.905 102.539 210.328 102.744 208.76C103.044 206.524 103.585 204.356 104.37 202.256C105.557 199.65 106.789 197.088 108.065 194.57C108.361 194.57 108.657 194.57 108.952 194.57C108.893 193.834 109.04 193.144 109.396 192.501C110.705 190.771 112.084 189.096 113.534 187.475C113.633 187.18 113.732 186.884 113.83 186.588C115.914 184.454 118.033 182.385 120.186 180.38C126.199 175.957 132.9 172.853 140.288 171.068C145.612 170.822 150.933 170.872 156.251 171.216C171.192 173.616 184.396 179.578 195.864 189.101C196.8 189.561 197.786 189.808 198.821 189.84C198.821 190.136 198.821 190.431 198.821 190.727C201.145 191.307 203.51 191.701 205.915 191.91C208.331 191.854 210.696 191.509 213.01 190.875C214.712 190.235 216.288 189.348 217.74 188.214C218.331 187.525 218.923 186.835 219.514 186.145C220.447 185.556 221.333 184.915 222.174 184.223Z" fill="#920803"/>
<path fill-rule="evenodd" clip-rule="evenodd" d="M164.824 178.016C165.829 177.921 166.815 178.02 167.781 178.311C168.658 178.698 169.446 179.19 170.146 179.789C168.364 179.13 166.59 178.539 164.824 178.016Z" fill="#8F2D2C"/>
<path fill-rule="evenodd" clip-rule="evenodd" d="M118.412 175.65C121.04 175.62 121.138 176.113 118.708 177.128C118.446 177.372 118.348 177.668 118.412 178.015C119.138 178.068 119.778 177.871 120.334 177.424C120.901 177.553 121.444 177.751 121.96 178.015C121.079 178.598 120.488 179.387 120.186 180.38C118.033 182.385 115.915 184.454 113.83 186.588C113.732 186.884 113.633 187.179 113.535 187.475C112.084 189.096 110.705 190.771 109.396 192.501C109.041 193.144 108.893 193.834 108.952 194.57C108.657 194.57 108.361 194.57 108.066 194.57C106.789 197.088 105.557 199.65 104.37 202.256C103.585 204.356 103.044 206.524 102.744 208.76C102.407 209.607 102.112 210.494 101.858 211.42C101.356 211.954 101.11 212.644 101.119 213.489C101.068 216.694 100.92 219.848 100.675 222.949C100.186 219.904 99.8908 216.751 99.7883 213.489C99.4926 215.854 99.197 218.219 98.9014 220.584C98.9339 221.933 99.2295 223.214 99.7883 224.427C99.6177 225.033 99.2236 225.329 98.6058 225.314C98.6058 226.103 98.6058 226.891 98.6058 227.679C91.0264 227.236 83.4391 227.039 75.8431 227.088C75.8091 222.282 75.8091 217.453 75.8431 212.603C81.3614 212.603 86.8795 212.603 92.3978 212.603C92.3978 212.898 92.3978 213.194 92.3978 213.489C93.3831 213.489 94.3687 213.489 95.354 213.489C95.3995 211.293 95.2023 209.125 94.7627 206.986C97.9161 206.789 97.9161 206.592 94.7627 206.395C94.7627 205.606 94.7627 204.818 94.7627 204.03C96.0437 204.03 97.3249 204.03 98.6058 204.03C98.6058 203.241 98.6058 202.453 98.6058 201.665C98.9014 201.665 99.197 201.665 99.4926 201.665C99.4926 200.876 99.4926 200.088 99.4926 199.3C99.9854 199.3 100.478 199.3 100.971 199.3C100.971 198.511 100.971 197.723 100.971 196.935C101.266 196.935 101.562 196.935 101.858 196.935C102.055 195.358 102.252 193.781 102.449 192.205C103.04 192.205 103.631 192.205 104.223 192.205C104.223 189.84 104.223 187.475 104.223 185.11C105.799 185.11 107.376 185.11 108.952 185.11C108.952 183.534 108.952 181.957 108.952 180.38C110.529 180.38 112.106 180.38 113.682 180.38C113.682 178.804 113.682 177.227 113.682 175.65C115.259 175.65 116.836 175.65 118.412 175.65Z" fill="#E4042E"/>
<path fill-rule="evenodd" clip-rule="evenodd" d="M157.138 185.702C154.57 185.676 152.008 185.775 149.452 185.997C149.452 185.899 149.452 185.8 149.452 185.702C152.058 185.339 154.62 185.339 157.138 185.702Z" fill="#C51E44"/>
<path fill-rule="evenodd" clip-rule="evenodd" d="M157.138 185.701C157.532 185.701 157.927 185.701 158.321 185.701C159.409 186.015 160.492 186.359 161.573 186.736C168.213 190.155 174.914 193.407 181.675 196.491C194.763 203.138 207.968 209.74 221.288 216.298C225.759 219.635 228.616 224.02 229.861 229.453C229.872 230.452 229.774 231.438 229.565 232.409C229.171 232.409 228.776 232.409 228.382 232.409C228.447 232.062 228.349 231.766 228.087 231.522C227.89 242.854 227.693 254.186 227.496 265.518C227.204 264.552 227.105 263.567 227.2 262.562C227.2 254.876 227.2 247.19 227.2 239.504C227.298 237.131 227.199 234.766 226.904 232.409C225.626 230.885 224.197 229.505 222.618 228.27C222.564 227.465 222.416 226.676 222.174 225.905C220.992 225.314 220.105 224.427 219.514 223.245C218.953 222.959 218.362 222.861 217.74 222.949C217.74 222.654 217.74 222.358 217.74 222.062C216.164 222.062 214.587 222.062 213.01 222.062C213.01 221.57 213.01 221.077 213.01 220.584C211.434 220.584 209.857 220.584 208.28 220.584C208.28 221.373 208.28 222.161 208.28 222.949C207.196 222.949 206.113 222.949 205.029 222.949C205.029 224.526 205.029 226.103 205.029 227.679C204.24 227.679 203.452 227.679 202.664 227.679C202.837 229.395 202.64 231.021 202.072 232.557C203.086 234.18 203.579 234.131 203.55 232.409C204.043 232.409 204.536 232.409 205.029 232.409C205.029 233.986 205.029 235.562 205.029 237.139C205.324 237.139 205.62 237.139 205.915 237.139C205.868 237.641 205.917 238.134 206.063 238.617C207.261 240.322 208.049 242.195 208.428 244.234C209.019 244.431 209.413 244.825 209.611 245.416C210.041 247.312 210.682 249.135 211.532 250.885C210.885 251.443 210.835 252.083 211.384 252.807C212.325 253.749 213.162 254.783 213.897 255.911C213.414 256.057 212.921 256.106 212.419 256.059C212.025 256.059 211.631 256.059 211.237 256.059C211.244 257.662 211.441 259.239 211.828 260.788C212.123 260.788 212.419 260.788 212.715 260.788C212.32 273.4 211.926 273.4 211.532 260.788C211.237 260.788 210.941 260.788 210.645 260.788C210.468 257.638 210.369 254.485 210.35 251.329C209.956 251.329 209.561 251.329 209.167 251.329C209.167 249.752 209.167 248.175 209.167 246.599C208.872 246.599 208.576 246.599 208.28 246.599C208.358 247.036 208.259 247.43 207.985 247.781C207.762 246.468 207.417 245.187 206.95 243.938C206.497 243.329 205.906 242.934 205.176 242.756C204.986 241.69 204.493 240.803 203.698 240.095C203.6 240.686 203.501 241.278 203.403 241.869C202.78 240.662 202.386 239.381 202.22 238.026C201.207 237.336 201.355 236.991 202.664 236.991C201.629 235.562 200.397 234.331 198.968 233.296C198.826 233.016 198.776 232.72 198.821 232.409C198.51 232.453 198.214 232.404 197.934 232.261C196.653 230.586 195.175 229.108 193.499 227.827C192.123 227.679 190.744 227.63 189.361 227.679C189.361 226.595 189.361 225.511 189.361 224.427C187.784 224.427 186.207 224.427 184.631 224.427C184.631 223.935 184.631 223.442 184.631 222.949C183.054 222.949 181.477 222.949 179.901 222.949C179.901 222.26 179.901 221.57 179.901 220.88C178.324 220.88 176.748 220.88 175.171 220.88C175.171 220.486 175.171 220.092 175.171 219.697C173.594 219.697 172.018 219.697 170.441 219.697C170.441 219.205 170.441 218.712 170.441 218.219C168.865 218.219 167.288 218.219 165.711 218.219C165.711 217.53 165.711 216.84 165.711 216.15C164.135 216.15 162.558 216.15 160.981 216.15C160.981 215.756 160.981 215.362 160.981 214.968C159.405 214.968 157.828 214.968 156.251 214.968C156.334 214.114 155.94 213.67 155.069 213.637C153.891 213.49 152.708 213.44 151.521 213.489C151.521 212.405 151.521 211.322 151.521 210.238C149.945 210.238 148.368 210.238 146.792 210.238C146.792 209.745 146.792 209.252 146.792 208.76C145.253 209.098 143.677 209.295 142.062 209.351C142.062 208.168 142.062 206.986 142.062 205.803C141.766 205.803 141.47 205.803 141.175 205.803C141.137 207.098 141.235 208.38 141.47 209.646C140.757 209.722 140.265 209.426 139.992 208.76C139.829 209.204 139.829 209.696 139.992 210.238C137.41 207.014 136.424 203.27 137.036 199.004C137.182 198.322 137.28 197.633 137.332 196.935C139.474 191.184 143.514 187.538 149.452 185.997C152.008 185.774 154.57 185.676 157.138 185.701Z" fill="#EF023A"/>
<path fill-rule="evenodd" clip-rule="evenodd" d="M77.0255 180.38C77.2455 181.4 76.8511 181.893 75.8431 181.858C75.1022 183.512 74.6097 185.286 74.365 187.18C73.6892 187.316 73.2951 187.71 73.1825 188.362C73.764 189.992 73.9118 191.667 73.6259 193.388C73.3217 192.226 73.0752 191.044 72.8869 189.84C72.5419 200.974 72.4928 212.109 72.7391 223.245C72.8375 223.147 72.9362 223.048 73.0347 222.95C73.2292 224.116 73.5742 225.2 74.0693 226.201C74.1231 226.819 74.0244 227.411 73.7737 227.975C74.2426 228.47 74.4398 229.061 74.365 229.749C73.2218 227.65 72.4828 225.384 72.1478 222.95C71.9507 212.209 71.9507 201.468 72.1478 190.727C72.5428 186.654 74.1687 183.206 77.0255 180.38Z" fill="#DD374B"/>
<path fill-rule="evenodd" clip-rule="evenodd" d="M137.332 196.935C137.28 197.633 137.182 198.323 137.036 199.004C136.823 199.128 136.675 199.325 136.593 199.596C136.445 202.057 136.396 204.521 136.445 206.986C135.875 205.09 135.727 203.119 136.001 201.074C136.128 199.56 136.572 198.181 137.332 196.935Z" fill="#92282A"/>
<path fill-rule="evenodd" clip-rule="evenodd" d="M212.419 256.059C212.419 256.453 212.419 256.847 212.419 257.241C212.802 262.358 213.196 267.482 213.601 272.614C213.209 274.964 213.012 277.329 213.01 279.708C212.517 279.708 212.025 279.708 211.532 279.708C211.483 281.288 211.532 282.865 211.68 284.438C212.219 284.617 212.762 284.814 213.306 285.03C213.191 285.39 212.945 285.587 212.567 285.621C211.225 284.926 209.796 284.532 208.28 284.438C208.083 283.256 207.886 283.256 207.689 284.438C206.583 284.466 205.991 285.057 205.915 286.212C206.153 286.795 206.548 287.238 207.098 287.542C206.83 288.045 206.732 288.587 206.802 289.168C206.309 289.168 205.817 289.168 205.324 289.168C205.324 289.562 205.324 289.957 205.324 290.351C201.566 292.443 197.821 294.512 194.091 296.559C194.091 296.263 194.091 295.968 194.091 295.672C194.81 295.739 195.302 295.443 195.569 294.785C195.787 294.824 195.984 294.774 196.16 294.637C197.341 292.911 198.819 291.58 200.594 290.646C200.574 290.215 200.673 289.821 200.89 289.464C201.534 288.38 202.322 287.394 203.255 286.508C203.946 285.104 204.635 283.725 205.324 282.369C205.738 281.443 206.28 280.556 206.95 279.708C207.892 276.62 208.631 273.466 209.167 270.249C209.512 267.1 209.561 263.947 209.315 260.789C208.516 258.594 208.122 256.328 208.132 253.99C206.727 251.728 205.495 249.363 204.437 246.895C204.193 246.633 203.898 246.534 203.55 246.599C203.599 245.902 203.549 245.213 203.403 244.53C200.598 240.898 197.396 237.646 193.795 234.774C188.075 231.079 181.867 228.419 175.171 226.793C175.171 226.497 175.171 226.201 175.171 225.906C172.439 225.372 169.778 224.633 167.189 223.689C161.17 220.929 154.962 218.564 148.565 216.594C146.395 215.46 144.228 214.327 142.062 213.194C141.357 212.198 140.667 211.213 139.992 210.238C139.829 209.697 139.829 209.204 139.992 208.76C140.265 209.427 140.757 209.722 141.47 209.647C141.235 208.38 141.137 207.099 141.175 205.804C141.47 205.804 141.766 205.804 142.062 205.804C142.062 206.986 142.062 208.169 142.062 209.351C143.677 209.295 145.253 209.098 146.791 208.76C146.791 209.253 146.791 209.745 146.791 210.238C148.368 210.238 149.945 210.238 151.521 210.238C151.521 211.322 151.521 212.406 151.521 213.49C152.708 213.441 153.89 213.49 155.069 213.638C155.94 213.671 156.334 214.114 156.251 214.968C157.828 214.968 159.405 214.968 160.981 214.968C160.981 215.362 160.981 215.756 160.981 216.15C162.558 216.15 164.135 216.15 165.711 216.15C165.711 216.84 165.711 217.53 165.711 218.22C167.288 218.22 168.864 218.22 170.441 218.22C170.441 218.713 170.441 219.205 170.441 219.698C172.018 219.698 173.594 219.698 175.171 219.698C175.171 220.092 175.171 220.486 175.171 220.88C176.747 220.88 178.324 220.88 179.901 220.88C179.901 221.57 179.901 222.26 179.901 222.95C181.477 222.95 183.054 222.95 184.631 222.95C184.631 223.442 184.631 223.935 184.631 224.428C186.207 224.428 187.784 224.428 189.361 224.428C189.361 225.512 189.361 226.595 189.361 227.68C190.744 227.63 192.123 227.68 193.499 227.827C195.175 229.108 196.653 230.586 197.934 232.262C198.214 232.404 198.509 232.453 198.82 232.409C198.776 232.72 198.825 233.016 198.968 233.296C200.397 234.331 201.629 235.563 202.664 236.992C201.355 236.992 201.207 237.337 202.22 238.026C202.386 239.381 202.78 240.662 203.403 241.869C203.501 241.278 203.6 240.687 203.698 240.096C204.493 240.804 204.986 241.69 205.176 242.756C205.906 242.935 206.497 243.329 206.95 243.939C207.417 245.188 207.762 246.469 207.985 247.782C208.259 247.43 208.358 247.036 208.28 246.599C208.576 246.599 208.872 246.599 209.167 246.599C209.167 248.176 209.167 249.753 209.167 251.329C209.561 251.329 209.956 251.329 210.35 251.329C210.369 254.485 210.468 257.639 210.645 260.789C210.941 260.789 211.236 260.789 211.532 260.789C211.926 273.4 212.32 273.4 212.715 260.789C212.419 260.789 212.123 260.789 211.828 260.789C211.44 259.239 211.244 257.662 211.236 256.059C211.631 256.059 212.025 256.059 212.419 256.059Z" fill="#F00235"/>
<path fill-rule="evenodd" clip-rule="evenodd" d="M102.744 208.76C102.539 210.328 102.44 211.905 102.449 213.49C102.843 213.49 103.237 213.49 103.631 213.49C103.759 212.702 103.907 211.913 104.075 211.125C104.219 211.507 104.269 211.901 104.222 212.307C105.799 212.307 107.376 212.307 108.952 212.307C108.952 212.701 108.952 213.096 108.952 213.49C110.529 213.49 112.106 213.49 113.682 213.49C114.066 207.214 114.263 207.214 114.273 213.49C114.865 213.49 115.456 213.49 116.047 213.49C115.861 214.225 115.566 214.914 115.16 215.559C115.21 215.855 115.259 216.15 115.308 216.446C115.828 214.529 116.223 214.628 116.491 216.741C116.589 216.446 116.688 216.15 116.786 215.855C117.338 216.158 117.88 216.454 118.412 216.741C119.191 217.572 119.93 218.459 120.629 219.402C121.523 220.052 122.36 220.742 123.142 221.471C122.174 221.282 121.386 220.789 120.777 219.993C120.679 220.043 120.58 220.092 120.481 220.141C121.325 220.755 121.424 221.396 120.777 222.063C120.03 221.44 119.34 220.75 118.708 219.993C118.609 220.19 118.51 220.387 118.412 220.585C118.719 221.57 119.31 222.309 120.186 222.802C119.137 222.986 118.545 222.542 118.412 221.471C117.624 221.471 116.836 221.471 116.047 221.471C116.047 221.176 116.047 220.88 116.047 220.585C112.104 220.88 108.162 221.176 104.222 221.471C104.27 221.974 104.221 222.466 104.075 222.949C103.758 221.58 103.462 220.201 103.188 218.811C102.938 220.224 102.593 221.604 102.153 222.949C101.858 220.592 101.661 218.227 101.562 215.855C101.636 214.374 101.734 212.896 101.857 211.42C102.112 210.494 102.407 209.608 102.744 208.76Z" fill="#9F0708"/>
<path fill-rule="evenodd" clip-rule="evenodd" d="M227.2 239.504C226.905 239.53 226.659 239.431 226.461 239.208C226.406 238.499 226.258 237.809 226.017 237.139C225.475 236.407 225.081 235.619 224.835 234.774C223.408 234.655 222.817 233.866 223.061 232.409C222.568 232.409 222.076 232.409 221.583 232.409C221.926 231.027 221.434 230.239 220.105 230.044C220.17 229.697 220.071 229.401 219.809 229.157C219.093 228.885 218.502 228.441 218.036 227.827C218.788 227.502 218.788 227.158 218.036 226.792C217.774 227.036 217.675 227.332 217.74 227.679C216.952 227.679 216.164 227.679 215.375 227.679C215.375 227.187 215.375 226.694 215.375 226.201C213.799 226.201 212.222 226.201 210.645 226.201C210.869 228.126 210.081 229.308 208.28 229.749C208.28 233.789 208.28 237.829 208.28 241.869C208.958 241.793 209.598 241.892 210.202 242.165C210.366 243.251 210.761 244.236 211.384 245.121C211.483 246.205 211.581 247.289 211.68 248.373C212.008 248.827 212.451 249.024 213.01 248.964C212.915 250.065 213.013 251.149 213.306 252.216C214.884 253.845 215.623 255.815 215.523 258.128C215.645 258.263 215.793 258.362 215.966 258.424C216.132 259.736 216.526 260.968 217.149 262.119C218.521 262.462 219.9 262.807 221.288 263.154C223.229 262.665 225.199 262.467 227.2 262.562C227.105 263.567 227.204 264.552 227.496 265.519C227.693 254.187 227.89 242.854 228.087 231.522C228.349 231.766 228.447 232.062 228.382 232.409C228.776 232.409 229.171 232.409 229.565 232.409C229.774 231.438 229.872 230.453 229.86 229.453C230.189 230.074 230.386 230.764 230.452 231.522C230.452 231.818 230.452 232.114 230.452 232.409C230.058 237.973 229.86 243.639 229.86 249.407C229.91 255.073 229.959 260.739 230.008 266.405C230.09 266.676 230.238 266.873 230.452 266.997C230.226 267.764 230.127 268.553 230.156 269.362C229.869 271.407 229.179 273.279 228.087 274.978C228.138 274.39 227.94 273.897 227.496 273.5C227.651 273.296 227.848 273.148 228.087 273.057C227.535 271.688 227.929 271.245 229.269 271.727C229.319 271.336 229.221 270.991 228.974 270.692C229.576 270.223 229.871 269.582 229.86 268.77C229.685 267.654 229.39 266.57 228.974 265.519C228.692 267.127 228.297 268.704 227.791 270.248C227.548 269.377 227.401 268.49 227.348 267.588C224.169 267.88 220.967 267.978 217.74 267.884C217.74 268.672 217.74 269.46 217.74 270.248C217.444 270.248 217.149 270.248 216.853 270.248C217.17 267.258 216.53 264.499 214.932 261.971C215.35 260.043 214.758 258.466 213.158 257.241C213.06 257.537 212.961 257.832 212.862 258.128C212.794 257.762 212.646 257.467 212.419 257.241C212.419 256.847 212.419 256.453 212.419 256.059C212.921 256.106 213.414 256.057 213.897 255.911C213.162 254.783 212.325 253.749 211.384 252.807C210.835 252.084 210.885 251.443 211.532 250.885C210.682 249.135 210.041 247.313 209.611 245.416C209.413 244.825 209.019 244.431 208.428 244.234C208.049 242.195 207.261 240.322 206.063 238.617C205.917 238.134 205.868 237.641 205.915 237.139C205.62 237.139 205.324 237.139 205.028 237.139C205.028 235.563 205.028 233.986 205.028 232.409C204.536 232.409 204.043 232.409 203.55 232.409C203.579 234.131 203.086 234.18 202.072 232.557C202.64 231.021 202.837 229.395 202.664 227.679C203.452 227.679 204.24 227.679 205.028 227.679C205.028 226.103 205.028 224.526 205.028 222.949C206.112 222.949 207.196 222.949 208.28 222.949C208.28 222.161 208.28 221.373 208.28 220.584C209.857 220.584 211.434 220.584 213.01 220.584C213.01 221.077 213.01 221.57 213.01 222.063C214.587 222.063 216.164 222.063 217.74 222.063C217.74 222.358 217.74 222.654 217.74 222.949C218.362 222.861 218.953 222.959 219.514 223.245C220.105 224.428 220.992 225.314 222.174 225.906C222.416 226.676 222.564 227.465 222.618 228.271C224.197 229.505 225.626 230.885 226.904 232.409C227.199 234.766 227.298 237.131 227.2 239.504Z" fill="#F00141"/>
<path fill-rule="evenodd" clip-rule="evenodd" d="M101.562 215.855C101.661 218.227 101.858 220.592 102.153 222.95C102.594 221.604 102.938 220.225 103.188 218.811C103.462 220.201 103.758 221.581 104.075 222.95C104.221 222.467 104.27 221.974 104.223 221.472C108.163 221.176 112.104 220.881 116.047 220.585C116.047 220.881 116.047 221.176 116.047 221.472C116.836 221.472 117.624 221.472 118.412 221.472C118.546 222.542 119.137 222.986 120.186 222.802C119.311 222.309 118.719 221.57 118.412 220.585C118.511 220.388 118.609 220.191 118.708 219.994C119.341 220.751 120.03 221.441 120.777 222.063C121.424 221.396 121.325 220.756 120.482 220.141C120.58 220.092 120.679 220.043 120.777 219.994C121.386 220.79 122.174 221.283 123.142 221.472C125.641 222.918 128.203 224.199 130.828 225.315C130.233 225.163 129.642 225.114 129.055 225.167C129.252 225.364 129.449 225.561 129.646 225.758C128.759 225.857 127.872 225.955 126.985 226.054C126.639 226.178 126.343 226.375 126.098 226.645C127.149 226.947 128.184 226.996 129.202 226.793C129.918 226.867 130.559 227.113 131.124 227.532C128.727 227.817 126.362 227.669 124.029 227.089C117.45 227.661 110.848 227.858 104.223 227.68C104.223 229.256 104.223 230.833 104.223 232.41C104.025 232.41 103.828 232.41 103.631 232.41C102.18 228.235 101.391 223.899 101.266 219.402C101.267 218.166 101.365 216.984 101.562 215.855Z" fill="#AA060D"/>
<path fill-rule="evenodd" clip-rule="evenodd" d="M227.2 239.504C227.2 247.19 227.2 254.876 227.2 262.562C225.199 262.467 223.229 262.665 221.288 263.154C219.9 262.807 218.521 262.462 217.149 262.119C216.526 260.967 216.132 259.736 215.966 258.424C215.793 258.362 215.645 258.263 215.523 258.128C215.623 255.815 214.884 253.845 213.306 252.216C213.013 251.149 212.915 250.065 213.01 248.964C212.451 249.024 212.008 248.827 211.68 248.373C211.581 247.289 211.483 246.205 211.384 245.121C210.761 244.236 210.366 243.251 210.202 242.165C209.598 241.892 208.958 241.793 208.28 241.869C208.28 237.829 208.28 233.789 208.28 229.749C210.081 229.308 210.869 228.126 210.645 226.201C212.222 226.201 213.799 226.201 215.375 226.201C215.375 226.694 215.375 227.186 215.375 227.679C216.164 227.679 216.952 227.679 217.74 227.679C217.675 227.332 217.774 227.036 218.036 226.792C218.788 227.157 218.788 227.502 218.036 227.827C218.502 228.441 219.093 228.885 219.809 229.157C220.071 229.401 220.17 229.697 220.105 230.044C221.434 230.239 221.926 231.027 221.583 232.409C222.076 232.409 222.568 232.409 223.061 232.409C222.817 233.866 223.408 234.655 224.835 234.774C225.081 235.619 225.475 236.407 226.017 237.139C226.258 237.809 226.406 238.499 226.461 239.208C226.659 239.431 226.905 239.529 227.2 239.504Z" fill="#F20147"/>
<path fill-rule="evenodd" clip-rule="evenodd" d="M130.828 225.314C136.242 227.334 141.563 229.502 146.792 231.818C146.11 231.674 145.469 231.674 144.87 231.818C144.555 231.345 144.111 231.049 143.54 230.931C143.278 231.175 143.179 231.47 143.244 231.818C142.85 231.818 142.456 231.818 142.062 231.818C142.062 231.522 142.062 231.226 142.062 230.931C141.444 230.985 140.852 230.886 140.288 230.635C140.189 230.734 140.091 230.832 139.992 230.931C140.813 231.457 140.715 231.752 139.697 231.818C138.879 231.733 138.09 231.536 137.332 231.226C127.857 230.77 118.397 230.868 108.952 231.522C108.952 231.818 108.952 232.113 108.952 232.409C108.164 232.409 107.376 232.409 106.587 232.409C106.587 232.705 106.587 233 106.587 233.296C105.799 233.394 105.011 233.493 104.222 233.591C104.222 233.197 104.222 232.803 104.222 232.409C104.222 230.832 104.222 229.256 104.222 227.679C110.848 227.857 117.45 227.66 124.029 227.088C126.362 227.669 128.727 227.816 131.124 227.531C130.559 227.113 129.918 226.866 129.202 226.792C128.184 226.995 127.149 226.946 126.098 226.644C126.343 226.374 126.639 226.177 126.985 226.053C127.872 225.955 128.759 225.856 129.646 225.757C129.448 225.56 129.252 225.363 129.054 225.166C129.642 225.113 130.233 225.162 130.828 225.314Z" fill="#B10710"/>
<path fill-rule="evenodd" clip-rule="evenodd" d="M75.843 212.603C75.809 217.453 75.809 222.282 75.843 227.088C83.4389 227.039 91.0263 227.236 98.6057 227.679C98.6057 226.891 98.6057 226.103 98.6057 225.314C99.2235 225.329 99.6176 225.033 99.7882 224.427C99.2294 223.214 98.9338 221.933 98.9013 220.584C99.1969 218.219 99.4925 215.854 99.7882 213.489C99.8907 216.751 100.186 219.904 100.675 222.949C100.698 224.243 100.846 225.524 101.118 226.792C101.687 228.519 102.229 230.243 102.744 231.966C102.286 232.586 101.991 233.276 101.857 234.035C101.973 234.334 102.171 234.482 102.449 234.478C101.806 234.89 101.264 234.792 100.823 234.183C100.724 234.38 100.626 234.577 100.527 234.774C100.38 233.992 100.331 233.203 100.379 232.409C100.084 232.409 99.7882 232.409 99.4925 232.409C99.4925 233.493 99.4925 234.577 99.4925 235.661C97.916 235.661 96.3392 235.661 94.7626 235.661C94.7626 236.154 94.7626 236.646 94.7626 237.139C91.9034 237.09 89.0457 237.139 86.1897 237.287C87.0109 237.698 87.8978 237.846 88.8503 237.73C88.8503 238.124 88.8503 238.519 88.8503 238.913C88.0559 238.961 87.2675 238.912 86.4853 238.765C85.435 238.159 84.3509 237.617 83.2335 237.139C83.0363 237.188 82.8394 237.237 82.6423 237.287C83.6491 237.465 83.7476 237.81 82.9379 238.321C82.7333 238.166 82.5855 237.969 82.4944 237.73C81.978 237.697 81.4361 237.796 80.8685 238.026C79.0144 236.714 77.3885 235.138 75.9908 233.296C75.3644 232.142 74.8225 230.96 74.3649 229.748C74.4397 229.061 74.2425 228.469 73.7737 227.975C74.0244 227.41 74.1231 226.819 74.0693 226.201C74.3637 226.226 74.61 226.128 74.8083 225.905C74.8586 225.251 75.0558 224.659 75.3996 224.132C75.498 214.278 75.5968 204.424 75.6952 194.57C75.843 200.58 75.8924 206.591 75.843 212.603Z" fill="#DD062A"/>
<path fill-rule="evenodd" clip-rule="evenodd" d="M160.981 226.201C162.825 226.706 164.697 226.952 166.598 226.94C166.837 227.031 167.034 227.179 167.189 227.384C166.723 227.62 166.23 227.767 165.711 227.827C167.311 228.515 168.937 229.057 170.589 229.453C171.289 229.196 171.732 228.704 171.919 227.975C171.542 227.636 171.148 227.636 170.737 227.975C170.39 227.851 170.095 227.654 169.85 227.384C170.938 227.094 172.022 226.946 173.102 226.94C172.861 227.329 172.566 227.674 172.215 227.975C173.103 228.344 173.99 228.344 174.875 227.975C175.137 228.219 175.236 228.514 175.171 228.862C174.054 229.303 172.872 229.501 171.623 229.453C171.623 229.847 171.623 230.241 171.623 230.635C172.787 230.794 173.871 231.188 174.875 231.818C175.99 231.349 176.581 231.743 176.649 233C171.372 230.804 166.149 228.537 160.981 226.201Z" fill="#8E110F"/>
<path fill-rule="evenodd" clip-rule="evenodd" d="M137.036 199.004C136.424 203.27 137.41 207.015 139.992 210.238C140.667 211.213 141.357 212.198 142.062 213.194C144.228 214.327 146.395 215.46 148.565 216.594C154.962 218.564 161.17 220.929 167.189 223.689C169.778 224.633 172.439 225.372 175.171 225.906C175.171 226.201 175.171 226.497 175.171 226.793C181.867 228.419 188.075 231.079 193.795 234.774C197.396 237.646 200.598 240.898 203.403 244.53C203.55 245.213 203.599 245.902 203.55 246.599C203.898 246.534 204.193 246.633 204.437 246.895C205.495 249.363 206.727 251.728 208.133 253.99C208.122 256.328 208.516 258.594 209.315 260.789C209.561 263.947 209.512 267.1 209.167 270.249C208.632 273.466 207.892 276.62 206.95 279.708C206.28 280.556 205.738 281.443 205.324 282.369C205.013 282.413 204.718 282.364 204.437 282.221C204.246 281.746 204 281.302 203.698 280.891C203.388 281.192 203.043 281.241 202.664 281.039C202.024 280.643 201.432 280.199 200.89 279.708C199.972 280.145 199.085 280.096 198.229 279.561C196.995 277.981 195.615 276.552 194.091 275.274C193.024 274.982 191.94 274.883 190.839 274.978C190.889 274.588 190.791 274.243 190.543 273.944C189.981 273.456 189.39 273.357 188.769 273.648C188.289 272.871 187.698 272.182 186.996 271.579C185.447 271.136 183.87 270.693 182.266 270.249C182.167 270.15 182.069 270.051 181.97 269.953C182.558 269.623 183.1 269.722 183.596 270.249C184.087 269.819 183.988 269.425 183.301 269.066C183.156 268.684 183.106 268.29 183.153 267.884C182.68 267.963 182.286 267.864 181.97 267.588C182.364 267.588 182.759 267.588 183.153 267.588C183.118 266.58 183.611 266.186 184.631 266.406C184.631 266.8 184.631 267.194 184.631 267.588C185.425 267.54 186.214 267.589 186.996 267.736C187.814 268.079 188.602 268.424 189.361 268.77C189.361 269.263 189.361 269.756 189.361 270.249C191.787 271.467 194.054 272.995 196.16 274.831C196.948 274.929 197.736 275.028 198.525 275.126C198.798 275.73 198.896 276.37 198.821 277.048C199.986 276.858 200.971 277.153 201.777 277.935C202.354 278.129 202.945 278.227 203.55 278.23C203.548 279.918 203.696 280.016 203.994 278.526C204.043 277.541 204.092 276.555 204.142 275.57C203.983 273.786 203.786 272.012 203.55 270.249C204.043 270.249 204.536 270.249 205.029 270.249C204.634 264.717 204.141 259.199 203.55 253.694C202.959 253.694 202.368 253.694 201.777 253.694C201.777 252.906 201.777 252.117 201.777 251.329C201.481 251.329 201.185 251.329 200.89 251.329C200.89 249.358 200.89 247.387 200.89 245.417C199.618 245.347 199.125 244.657 199.412 243.347C198.207 243.49 197.517 242.997 197.342 241.869C196.507 241.969 195.867 241.673 195.421 240.982C195.239 241.263 195.288 241.509 195.569 241.721C195.086 241.867 194.593 241.916 194.091 241.869C194.091 241.574 194.091 241.278 194.091 240.982C194.402 241.026 194.697 240.977 194.977 240.834C194.423 240.189 194.029 239.45 193.795 238.617C192.81 238.42 192.415 237.829 192.613 236.844C191.609 236.394 190.672 236.492 189.804 237.139C188.629 236.661 187.398 236.415 186.109 236.4C185.505 235.746 184.816 235.549 184.04 235.809C183.7 235.081 183.306 234.391 182.857 233.74C182.188 233.55 181.548 233.304 180.936 233.001C180.254 233.624 179.564 234.018 178.866 234.183C178.756 233.912 178.608 233.666 178.423 233.444C179.008 233.265 179.107 232.97 178.718 232.557C177.951 232.38 177.261 232.528 176.649 233.001C176.581 231.744 175.99 231.35 174.875 231.818C173.871 231.188 172.787 230.794 171.624 230.636C171.624 230.242 171.624 229.847 171.624 229.453C172.872 229.501 174.054 229.304 175.171 228.862C175.236 228.515 175.137 228.219 174.875 227.975C173.99 228.344 173.103 228.344 172.215 227.975C172.566 227.674 172.861 227.329 173.102 226.94C172.022 226.946 170.938 227.094 169.85 227.384C170.095 227.654 170.39 227.851 170.737 227.975C171.148 227.637 171.542 227.637 171.919 227.975C171.732 228.704 171.289 229.196 170.589 229.453C168.937 229.057 167.311 228.515 165.711 227.827C166.23 227.768 166.723 227.62 167.189 227.384C167.034 227.179 166.837 227.031 166.598 226.94C164.698 226.952 162.825 226.706 160.981 226.201C157.035 224.606 153.093 222.98 149.157 221.324C144.739 219.435 141.142 216.528 138.366 212.603C137.4 210.836 136.759 208.964 136.445 206.986C136.396 204.521 136.445 202.057 136.593 199.596C136.675 199.325 136.823 199.128 137.036 199.004Z" fill="#990609"/>
<path fill-rule="evenodd" clip-rule="evenodd" d="M212.123 230.635C213.983 230.893 215.855 230.991 217.74 230.931C218.622 233.25 220.149 235.122 222.322 236.548C222.372 236.646 222.421 236.745 222.47 236.843C222.013 237.125 221.521 237.223 220.992 237.139C220.942 237.53 221.04 237.875 221.288 238.174C222.598 238.655 223.731 239.394 224.687 240.391C225.068 242.441 225.216 244.511 225.131 246.599C225.525 246.599 225.919 246.599 226.313 246.599C226.313 248.175 226.313 249.752 226.313 251.329C225.919 251.329 225.525 251.329 225.131 251.329C225.046 253.022 225.144 254.697 225.426 256.354C224.835 257.537 223.948 258.423 222.766 259.015C221.109 258.733 219.434 258.634 217.74 258.719C217.867 257.725 217.572 256.888 216.853 256.206C217.134 256.064 217.429 256.014 217.74 256.058C217.756 255.034 217.313 254.245 216.41 253.694C215.905 252.981 215.659 252.193 215.671 251.329C216.173 251.376 216.666 251.327 217.149 251.181C216.016 249.653 214.686 248.323 213.158 247.19C213.06 246.205 212.961 245.219 212.862 244.234C212.567 244.037 212.271 243.84 211.976 243.642C211.659 239.752 211.412 235.86 211.237 231.966C211.478 231.48 211.773 231.036 212.123 230.635Z" fill="#F2024D"/>
<path fill-rule="evenodd" clip-rule="evenodd" d="M101.858 211.42C101.735 212.896 101.636 214.375 101.562 215.855C101.365 216.984 101.267 218.166 101.266 219.402C101.391 223.898 102.18 228.234 103.631 232.409C103.908 234.065 104.302 235.642 104.814 237.139C105.212 238.714 105.409 240.192 105.405 241.574C101.858 241.771 98.3102 241.968 94.7627 242.165C95.5964 242.518 96.4339 242.518 97.2755 242.165C97.8629 242.794 98.602 243.089 99.4927 243.052C99.4927 243.446 99.4927 243.84 99.4927 244.234C97.9912 243.599 96.4147 243.303 94.7627 243.347C94.7775 243.965 94.4819 244.359 93.8759 244.53C93.6205 244.028 93.2264 243.683 92.6934 243.495C91.6091 243.215 90.525 242.969 89.4416 242.756C86.2581 241.708 83.4006 240.131 80.8687 238.026C81.4362 237.796 81.9781 237.697 82.4946 237.731C82.5856 237.969 82.7334 238.167 82.938 238.322C83.7477 237.81 83.6492 237.465 82.6424 237.287C82.8395 237.238 83.0364 237.189 83.2336 237.139C84.351 237.617 85.4351 238.159 86.4854 238.765C87.2676 238.912 88.056 238.961 88.8504 238.913C88.8504 238.519 88.8504 238.125 88.8504 237.731C87.8979 237.846 87.011 237.699 86.1898 237.287C89.0458 237.139 91.9035 237.09 94.7627 237.139C94.7627 236.646 94.7627 236.154 94.7627 235.661C96.3393 235.661 97.9161 235.661 99.4927 235.661C99.4927 234.577 99.4927 233.493 99.4927 232.409C99.7883 232.409 100.084 232.409 100.38 232.409C100.331 233.204 100.38 233.992 100.527 234.774C100.626 234.577 100.724 234.38 100.823 234.183C101.264 234.792 101.806 234.89 102.449 234.479C102.171 234.482 101.973 234.334 101.858 234.035C101.991 233.276 102.287 232.586 102.744 231.966C102.229 230.244 101.687 228.519 101.119 226.793C100.846 225.524 100.698 224.243 100.675 222.95C100.92 219.848 101.068 216.695 101.119 213.49C101.11 212.644 101.356 211.954 101.858 211.42Z" fill="#D50726"/>
<path fill-rule="evenodd" clip-rule="evenodd" d="M146.791 231.818C146.696 232.762 147.04 233.058 147.826 232.705C149.065 233.182 150.297 233.675 151.521 234.183C150.405 234.436 149.42 234.929 148.565 235.661C148.041 235.546 147.548 235.349 147.087 235.07C146.693 235.365 146.693 235.661 147.087 235.956C149.537 236.932 149.439 237.326 146.791 237.139C146.791 236.843 146.791 236.548 146.791 236.252C134.964 236.167 123.14 236.266 111.317 236.548C110.397 236.529 109.559 236.332 108.804 235.956C108.57 236.835 108.373 237.722 108.213 238.617C108.098 238.891 107.901 239.088 107.622 239.208C106.88 238.504 106.141 237.814 105.405 237.139C105.208 237.139 105.011 237.139 104.814 237.139C104.302 235.641 103.908 234.065 103.631 232.409C103.828 232.409 104.025 232.409 104.222 232.409C104.222 232.803 104.222 233.197 104.222 233.591C105.011 233.493 105.799 233.394 106.587 233.296C106.587 233 106.587 232.705 106.587 232.409C107.376 232.409 108.164 232.409 108.952 232.409C108.952 232.113 108.952 231.818 108.952 231.522C118.397 230.868 127.857 230.77 137.332 231.226C138.09 231.536 138.879 231.733 139.697 231.818C140.714 231.752 140.813 231.457 139.992 230.931C140.091 230.832 140.189 230.734 140.288 230.635C140.852 230.886 141.443 230.985 142.062 230.931C142.062 231.226 142.062 231.522 142.062 231.818C142.456 231.818 142.85 231.818 143.244 231.818C143.179 231.47 143.278 231.175 143.54 230.931C144.111 231.049 144.555 231.345 144.87 231.818C145.469 231.674 146.109 231.674 146.791 231.818Z" fill="#B70613"/>
<path fill-rule="evenodd" clip-rule="evenodd" d="M146.792 231.818C150.113 232.889 153.266 234.268 156.252 235.957C155.63 236.045 155.038 235.946 154.478 235.661C153.603 234.87 152.618 234.377 151.522 234.183C150.297 233.675 149.066 233.182 147.826 232.705C147.041 233.058 146.696 232.762 146.792 231.818Z" fill="#A71E29"/>
<path fill-rule="evenodd" clip-rule="evenodd" d="M151.521 234.183C152.618 234.378 153.603 234.87 154.478 235.661C155.038 235.947 155.629 236.045 156.251 235.957C159.03 237.249 161.198 239.22 162.755 241.869C162.267 241.51 161.775 241.116 161.277 240.687C161.002 241.038 160.904 241.432 160.981 241.869C162.151 242.033 162.151 242.279 160.981 242.608C161.249 243.111 161.347 243.653 161.277 244.234C146.989 244.234 132.7 244.234 118.412 244.234C118.412 244.727 118.412 245.219 118.412 245.712C116.835 245.712 115.259 245.712 113.682 245.712C113.682 246.599 113.682 247.486 113.682 248.373C112.888 248.421 112.099 248.372 111.317 248.225C110.912 247.799 110.617 247.306 110.43 246.747C109.947 246.601 109.454 246.552 108.952 246.599C109.001 245.805 108.951 245.016 108.804 244.234C107.273 242.058 106.139 239.693 105.405 237.139C106.141 237.815 106.88 238.504 107.622 239.209C107.901 239.089 108.098 238.892 108.213 238.617C108.373 237.722 108.57 236.835 108.804 235.957C109.559 236.333 110.397 236.53 111.317 236.548C123.14 236.267 134.964 236.168 146.791 236.252C146.791 236.548 146.791 236.844 146.791 237.139C149.439 237.326 149.537 236.932 147.087 235.957C146.693 235.661 146.693 235.366 147.087 235.07C147.548 235.35 148.041 235.547 148.565 235.661C149.419 234.929 150.405 234.436 151.521 234.183Z" fill="#C10517"/>
<path fill-rule="evenodd" clip-rule="evenodd" d="M104.814 237.139C105.011 237.139 105.208 237.139 105.405 237.139C106.139 239.692 107.273 242.057 108.804 244.234C108.951 245.016 109.001 245.805 108.952 246.599C109.455 246.552 109.947 246.601 110.43 246.747C110.617 247.306 110.912 247.799 111.317 248.225C112.099 248.372 112.888 248.421 113.682 248.373C113.682 249.358 113.682 250.344 113.682 251.329C108.978 251.336 108.978 251.533 113.682 251.92C113.682 252.216 113.682 252.511 113.682 252.807C114.733 253.132 115.817 253.428 116.934 253.694C116.406 253.935 115.913 254.231 115.456 254.581C116.199 254.944 116.79 255.437 117.23 256.059C107.811 251.841 98.5482 247.407 89.4414 242.756C90.5249 242.968 91.6089 243.215 92.6932 243.495C93.2262 243.683 93.6203 244.028 93.8757 244.53C94.4817 244.359 94.7773 243.965 94.7625 243.347C96.4145 243.303 97.991 243.599 99.4925 244.234C99.4925 243.84 99.4925 243.446 99.4925 243.052C98.6018 243.089 97.8627 242.794 97.2753 242.165C96.4337 242.518 95.5962 242.518 94.7625 242.165C98.31 241.968 101.857 241.771 105.405 241.573C105.409 240.192 105.212 238.714 104.814 237.139Z" fill="#CD0A24"/>
<path fill-rule="evenodd" clip-rule="evenodd" d="M181.97 267.588C181.697 266.43 181.401 266.43 181.083 267.588C181.512 267.987 181.709 268.479 181.675 269.066C181.379 269.066 181.083 269.066 180.788 269.066C180.788 268.77 180.788 268.475 180.788 268.179C180.492 268.179 180.197 268.179 179.901 268.179C185.726 260.29 187.352 251.619 184.779 242.165C182.944 238.311 180.234 235.257 176.649 233C177.261 232.527 177.951 232.38 178.719 232.557C179.107 232.969 179.009 233.265 178.423 233.444C178.608 233.666 178.756 233.912 178.866 234.183C179.564 234.018 180.254 233.624 180.936 233C181.548 233.303 182.188 233.55 182.857 233.739C183.306 234.391 183.7 235.081 184.04 235.809C184.816 235.549 185.505 235.746 186.109 236.4C187.398 236.415 188.629 236.661 189.804 237.139C190.672 236.492 191.609 236.394 192.613 236.843C192.415 237.829 192.81 238.42 193.795 238.617C194.029 239.45 194.423 240.189 194.978 240.834C194.697 240.977 194.402 241.026 194.091 240.982C194.091 241.278 194.091 241.573 194.091 241.869C194.593 241.916 195.086 241.867 195.569 241.721C195.288 241.509 195.239 241.263 195.421 240.982C195.867 241.673 196.507 241.969 197.343 241.869C197.517 242.997 198.207 243.49 199.412 243.347C199.125 244.657 199.618 245.347 200.89 245.416C200.89 247.387 200.89 249.358 200.89 251.329C201.186 251.329 201.481 251.329 201.777 251.329C201.777 252.117 201.777 252.905 201.777 253.694C202.368 253.694 202.959 253.694 203.551 253.694C204.141 259.198 204.634 264.717 205.029 270.248C204.536 270.248 204.043 270.248 203.551 270.248C203.786 272.012 203.983 273.785 204.142 275.57C204.092 276.555 204.043 277.54 203.994 278.526C203.696 280.016 203.548 279.917 203.551 278.23C202.945 278.227 202.354 278.128 201.777 277.934C200.972 277.153 199.986 276.858 198.821 277.048C198.896 276.37 198.798 275.729 198.525 275.126C197.737 275.028 196.948 274.929 196.16 274.83C194.054 272.995 191.787 271.467 189.361 270.248C189.361 269.756 189.361 269.263 189.361 268.77C188.602 268.424 187.814 268.079 186.996 267.736C186.214 267.589 185.425 267.539 184.631 267.588C184.631 267.194 184.631 266.799 184.631 266.405C183.611 266.185 183.118 266.58 183.153 267.588C182.759 267.588 182.364 267.588 181.97 267.588Z" fill="#940702"/>
<path fill-rule="evenodd" clip-rule="evenodd" d="M162.755 241.869C162.667 242.491 162.765 243.082 163.051 243.643C163.435 243.817 163.681 244.113 163.79 244.53C163.888 245.416 163.987 246.303 164.085 247.19C164.176 246.951 164.324 246.754 164.529 246.599C165.108 249.544 165.206 252.5 164.824 255.467C164.549 257.001 163.958 258.381 163.051 259.606C162.759 258.383 162.266 257.249 161.572 256.207C161.905 255.958 162.102 255.614 162.164 255.172C162.012 253.59 161.815 252.013 161.572 250.442C161.199 250.971 161.002 251.563 160.981 252.216C161.466 254.051 161.466 254.938 160.981 254.876C146.79 254.778 132.6 254.876 118.412 255.172C118.271 255.461 118.074 255.707 117.821 255.911C118.149 256.1 118.493 256.247 118.856 256.354C119.289 256.109 119.732 256.06 120.186 256.207C119.527 256.415 119.429 256.76 119.89 257.241C118.967 256.928 118.08 256.533 117.23 256.059C116.79 255.436 116.199 254.944 115.456 254.581C115.913 254.231 116.406 253.935 116.934 253.694C115.817 253.428 114.733 253.132 113.682 252.807C113.682 252.511 113.682 252.216 113.682 251.92C108.978 251.533 108.978 251.336 113.682 251.329C113.682 250.344 113.682 249.358 113.682 248.373C113.682 247.486 113.682 246.599 113.682 245.712C115.259 245.712 116.836 245.712 118.412 245.712C118.412 245.219 118.412 244.727 118.412 244.234C132.7 244.234 146.989 244.234 161.277 244.234C161.347 243.652 161.249 243.11 160.981 242.608C162.151 242.279 162.151 242.032 160.981 241.869C160.904 241.432 161.002 241.038 161.277 240.687C161.775 241.116 162.267 241.51 162.755 241.869Z" fill="#CC051E"/>
<path fill-rule="evenodd" clip-rule="evenodd" d="M230.452 232.41C230.452 243.939 230.452 255.468 230.452 266.997C230.238 266.874 230.091 266.677 230.008 266.406C229.959 260.74 229.91 255.074 229.861 249.408C229.861 243.64 230.058 237.974 230.452 232.41Z" fill="#FC003D"/>
<path fill-rule="evenodd" clip-rule="evenodd" d="M230.452 232.41C230.747 243.987 230.846 255.615 230.747 267.293C230.621 268.035 230.424 268.724 230.156 269.362C230.127 268.553 230.226 267.765 230.452 266.997C230.452 255.468 230.452 243.939 230.452 232.41Z" fill="#D01244"/>
<path fill-rule="evenodd" clip-rule="evenodd" d="M162.755 241.869C165.666 246.077 166.356 250.609 164.824 255.468C165.207 252.5 165.108 249.544 164.529 246.599C164.324 246.754 164.176 246.951 164.085 247.19C163.987 246.303 163.888 245.417 163.79 244.53C163.681 244.113 163.435 243.817 163.051 243.643C162.765 243.082 162.667 242.491 162.755 241.869Z" fill="#C22234"/>
<path fill-rule="evenodd" clip-rule="evenodd" d="M163.051 259.607C159.548 265.328 154.375 268.284 147.531 268.475C144.903 268.449 142.39 267.907 139.992 266.849C133.16 263.837 126.46 260.635 119.89 257.242C119.429 256.76 119.528 256.415 120.186 256.207C119.732 256.06 119.289 256.109 118.856 256.355C118.494 256.248 118.149 256.1 117.821 255.911C118.074 255.708 118.271 255.461 118.412 255.172C132.601 254.877 146.79 254.778 160.981 254.877C161.466 254.939 161.466 254.052 160.981 252.216C161.002 251.563 161.199 250.972 161.573 250.442C161.815 252.014 162.012 253.59 162.164 255.172C162.102 255.614 161.905 255.959 161.573 256.207C162.266 257.25 162.759 258.383 163.051 259.607Z" fill="#D70725"/>
<path fill-rule="evenodd" clip-rule="evenodd" d="M212.419 257.241C212.646 257.467 212.794 257.762 212.863 258.128C212.961 257.832 213.06 257.537 213.158 257.241C214.759 258.466 215.35 260.043 214.932 261.971C216.53 264.499 217.17 267.258 216.853 270.248C217.149 270.248 217.445 270.248 217.74 270.248C217.74 269.46 217.74 268.672 217.74 267.883C220.967 267.978 224.169 267.88 227.348 267.588C227.401 268.49 227.549 269.377 227.791 270.248C228.297 268.704 228.692 267.127 228.974 265.519C229.39 266.57 229.686 267.654 229.861 268.77C229.872 269.582 229.576 270.223 228.974 270.692C229.221 270.991 229.32 271.336 229.269 271.727C227.929 271.245 227.535 271.688 228.087 273.057C227.848 273.148 227.651 273.296 227.496 273.5C227.941 273.897 228.138 274.389 228.087 274.978C226.783 277.121 225.108 278.944 223.061 280.447C217.093 283.677 211.181 286.978 205.324 290.351C205.324 289.956 205.324 289.562 205.324 289.168C205.817 289.168 206.31 289.168 206.802 289.168C206.732 288.587 206.83 288.044 207.098 287.542C206.548 287.238 206.153 286.795 205.915 286.212C205.991 285.057 206.583 284.466 207.689 284.438C207.886 283.256 208.083 283.256 208.28 284.438C209.797 284.532 211.225 284.926 212.567 285.621C212.945 285.587 213.192 285.39 213.306 285.029C212.762 284.814 212.22 284.616 211.68 284.438C211.533 282.865 211.483 281.288 211.532 279.708C212.025 279.708 212.518 279.708 213.01 279.708C213.012 277.329 213.209 274.964 213.602 272.613C213.196 267.482 212.802 262.358 212.419 257.241Z" fill="#EF033C"/>
<path fill-rule="evenodd" clip-rule="evenodd" d="M96.2408 261.971C94.9986 261.878 93.8161 261.977 92.6933 262.267C91.9049 262.267 91.1168 262.267 90.3284 262.267C92.2821 261.684 94.253 261.586 96.2408 261.971Z" fill="#CB495B"/>
<path fill-rule="evenodd" clip-rule="evenodd" d="M90.3284 262.267C91.1168 262.267 91.9049 262.267 92.6933 262.267C93.8921 262.171 95.0745 262.27 96.2408 262.562C95.1745 262.855 94.0904 262.954 92.9889 262.858C92.9889 263.154 92.9889 263.449 92.9889 263.745C91.7524 263.852 90.5699 263.655 89.4415 263.154C89.0164 263.218 88.6224 263.366 88.259 263.597C88.7764 263.987 89.3676 264.135 90.0328 264.041C90.0328 264.336 90.0328 264.632 90.0328 264.927C89.3162 264.836 88.6265 264.935 87.9634 265.223C89.7989 265.793 91.4742 265.547 92.9889 264.484C95.8171 264.167 98.5761 264.462 101.266 265.371C100.683 265.517 100.092 265.567 99.4926 265.519C99.4926 266.603 99.4926 267.686 99.4926 268.77C101.069 268.77 102.646 268.77 104.222 268.77C104.222 269.066 104.222 269.362 104.222 269.657C104.844 269.569 105.436 269.667 105.996 269.953C103.828 270.15 101.66 270.347 99.4926 270.544C100.257 270.834 101.045 270.932 101.858 270.84C101.858 271.333 101.858 271.825 101.858 272.318C102.646 272.318 103.434 272.318 104.222 272.318C104.222 272.712 104.222 273.106 104.222 273.5C105.011 273.5 105.799 273.5 106.587 273.5C106.587 273.993 106.587 274.486 106.587 274.978C107.376 274.978 108.164 274.978 108.952 274.978C108.952 275.668 108.952 276.358 108.952 277.048C110.529 277.048 112.106 277.048 113.682 277.048C113.682 277.442 113.682 277.836 113.682 278.23C115.259 278.23 116.836 278.23 118.412 278.23C118.412 278.723 118.412 279.216 118.412 279.708C117.624 279.708 116.836 279.708 116.047 279.708C116.047 280.004 116.047 280.3 116.047 280.595C116.836 280.595 117.624 280.595 118.412 280.595C118.412 281.384 118.412 282.172 118.412 282.96C119.201 282.96 119.989 282.96 120.777 282.96C120.777 283.453 120.777 283.945 120.777 284.438C121.566 284.438 122.354 284.438 123.142 284.438C123.142 284.734 123.142 285.03 123.142 285.325C123.93 285.325 124.719 285.325 125.507 285.325C125.507 285.719 125.507 286.114 125.507 286.508C126.295 286.508 127.084 286.508 127.872 286.508C127.872 287.394 127.872 288.281 127.872 289.168C128.66 289.168 129.449 289.168 130.237 289.168C130.237 289.464 130.237 289.759 130.237 290.055C131.025 290.055 131.813 290.055 132.602 290.055C132.602 289.759 132.602 289.464 132.602 289.168C134.178 289.168 135.755 289.168 137.332 289.168C137.332 291.04 137.332 292.913 137.332 294.785C138.12 294.785 138.908 294.785 139.697 294.785C139.697 295.179 139.697 295.573 139.697 295.967C140.485 295.967 141.273 295.967 142.062 295.967C142.062 296.854 142.062 297.741 142.062 298.628C142.85 298.628 143.638 298.628 144.427 298.628C144.427 298.924 144.427 299.219 144.427 299.515C145.215 299.515 146.003 299.515 146.792 299.515C146.792 298.628 146.792 297.741 146.792 296.854C147.876 296.953 148.467 297.544 148.565 298.628C149.551 298.628 150.536 298.628 151.522 298.628C151.522 299.416 151.522 300.205 151.522 300.993C150.709 300.9 149.921 300.999 149.157 301.289C151.494 301.78 153.859 301.977 156.251 301.88C156.251 302.373 156.251 302.865 156.251 303.358C154.662 303.261 153.086 303.359 151.522 303.654C152.286 303.943 153.074 304.042 153.886 303.949C153.886 304.442 153.886 304.934 153.886 305.427C154.675 305.427 155.463 305.427 156.251 305.427C156.251 305.821 156.251 306.216 156.251 306.61C157.04 306.61 157.828 306.61 158.616 306.61C158.616 307.103 158.616 307.595 158.616 308.088C159.405 308.088 160.193 308.088 160.981 308.088C160.981 307.497 160.981 306.905 160.981 306.314C162.065 306.413 162.657 307.004 162.755 308.088C163.248 308.088 163.74 308.088 164.233 308.088C164.11 308.811 164.406 309.206 165.12 309.27C165.743 308.995 166.334 308.651 166.894 308.236C167.387 308.038 167.879 308.038 168.372 308.236C167.331 308.607 166.444 309.198 165.711 310.009C166.582 310.042 166.976 310.486 166.894 311.34C166.207 311.486 165.566 311.486 164.972 311.34C164.181 312.271 163.295 313.059 162.312 313.705C161.544 312.927 161.101 313.125 160.981 314.296C159.603 313.407 158.42 313.654 157.434 315.035C157.052 315.18 156.657 315.229 156.251 315.183C156.251 313.705 156.251 312.226 156.251 310.748C154.675 310.748 153.098 310.748 151.522 310.748C151.522 310.354 151.522 309.96 151.522 309.566C149.945 309.566 148.368 309.566 146.792 309.566C146.792 309.073 146.792 308.581 146.792 308.088C153.098 307.891 153.098 307.694 146.792 307.497C146.792 307.004 146.792 306.511 146.792 306.018C145.215 306.018 143.638 306.018 142.062 306.018C142.062 304.934 142.062 303.851 142.062 302.767C140.485 302.767 138.908 302.767 137.332 302.767C137.332 301.19 137.332 299.613 137.332 298.037C135.755 298.037 134.178 298.037 132.602 298.037C132.602 297.544 132.602 297.051 132.602 296.559C131.025 296.559 129.449 296.559 127.872 296.559C127.872 296.165 127.872 295.77 127.872 295.376C126.295 295.376 124.719 295.376 123.142 295.376C123.142 294.883 123.142 294.391 123.142 293.898C129.449 293.701 129.449 293.504 123.142 293.307C123.142 292.42 123.142 291.533 123.142 290.646C121.566 290.646 119.989 290.646 118.412 290.646C118.412 289.464 118.412 288.281 118.412 287.099C116.836 287.099 115.259 287.099 113.682 287.099C113.682 286.705 113.682 286.31 113.682 285.916C112.106 285.916 110.529 285.916 108.952 285.916C108.952 285.424 108.952 284.931 108.952 284.438C115.259 284.241 115.259 284.044 108.952 283.847C108.952 283.354 108.952 282.862 108.952 282.369C107.376 282.369 105.799 282.369 104.222 282.369C104.222 280.792 104.222 279.216 104.222 277.639C102.646 277.639 101.069 277.639 99.4926 277.639C99.4926 277.245 99.4926 276.851 99.4926 276.457C97.916 276.457 96.3392 276.457 94.7627 276.457C94.7627 275.964 94.7627 275.471 94.7627 274.978C101.069 274.781 101.069 274.584 94.7627 274.387C94.7627 273.894 94.7627 273.402 94.7627 272.909C93.1861 272.909 91.6093 272.909 90.0328 272.909C90.0328 271.825 90.0328 270.741 90.0328 269.657C87.415 269.585 84.8529 269.733 82.3467 270.101C82.71 269.649 83.1534 269.304 83.6769 269.066C84.102 268.652 84.3483 268.159 84.416 267.588C84.0101 267.542 83.6157 267.591 83.2335 267.736C82.6009 268.702 81.7634 268.949 80.7208 268.475C80.6501 268.094 80.7979 267.798 81.1642 267.588C81.5337 267.565 81.78 267.368 81.9032 266.997C82.0493 266.514 82.0983 266.021 82.051 265.519C84.5659 263.858 87.3249 262.774 90.3284 262.267Z" fill="#E3042B"/>
<path fill-rule="evenodd" clip-rule="evenodd" d="M92.6933 262.267C93.816 261.976 94.9985 261.878 96.2407 261.971C98.431 261.917 100.5 262.311 102.449 263.154C102.795 263.68 103.287 263.975 103.927 264.041C103.86 265.092 104.107 265.191 104.666 264.336C105.893 264.657 105.942 265.002 104.814 265.371C105.523 265.426 106.213 265.574 106.883 265.814C105.996 266.011 105.109 266.208 104.222 266.406C104.814 267.194 105.602 267.588 106.587 267.588C106.543 267.277 106.592 266.981 106.735 266.701C107.263 268.611 108.495 269.645 110.43 269.805C110.135 269.51 109.839 269.214 109.544 268.918C110.539 269.103 111.524 269.448 112.5 269.953C112.734 269.826 112.981 269.727 113.239 269.657C113.771 269.9 114.313 270.097 114.865 270.249C119.773 272.949 124.798 275.412 129.941 277.639C129.879 278.196 129.583 278.59 129.054 278.822C129.547 279.019 130.04 279.216 130.533 279.413C130.237 279.511 129.941 279.61 129.646 279.708C127.859 279.241 126.135 278.65 124.472 277.935C123.611 277.893 123.168 278.287 123.142 279.117C124.734 279.199 126.311 279.396 127.872 279.708C127.872 280.102 127.872 280.497 127.872 280.891C128.569 280.843 129.258 280.892 129.941 281.039C130.189 281.338 130.287 281.683 130.237 282.073C131.51 282.11 132.298 282.701 132.602 283.847C133.39 283.847 134.178 283.847 134.967 283.847C134.967 284.438 134.967 285.03 134.967 285.621C135.772 285.873 136.56 286.218 137.332 286.655C138.021 286.754 138.711 286.853 139.401 286.951C139.649 287.25 139.747 287.595 139.697 287.986C140.485 288.38 141.273 288.774 142.062 289.168C142.062 289.562 142.062 289.957 142.062 290.351C142.758 290.302 143.448 290.352 144.131 290.498C144.378 290.797 144.477 291.142 144.427 291.533C145.318 291.634 146.106 291.979 146.792 292.568C147.574 292.715 148.362 292.764 149.157 292.716C149.157 293.11 149.157 293.504 149.157 293.898C150.003 293.767 150.743 293.964 151.374 294.489C151.793 293.939 152.335 293.791 153 294.046C153.347 294.84 153.84 295.53 154.478 296.115C153.751 296.456 153.751 296.851 154.478 297.298C155.061 297.444 155.652 297.493 156.251 297.446C156.251 297.84 156.251 298.234 156.251 298.628C157.16 298.534 158.046 298.633 158.912 298.924C159.208 299.81 159.799 300.402 160.686 300.697C160.967 301.154 161.066 301.647 160.981 302.175C161.77 302.175 162.558 302.175 163.346 302.175C163.346 302.569 163.346 302.964 163.346 303.358C164.193 303.226 164.932 303.424 165.563 303.949C165.983 303.398 166.524 303.251 167.189 303.506C167.824 304.332 168.169 305.268 168.224 306.314C168.855 306.84 169.594 307.037 170.441 306.905C170.441 306.511 170.441 306.117 170.441 305.723C171.175 305.671 171.716 305.966 172.067 306.61C172.902 305.99 173.74 305.94 174.58 306.462C173.999 306.891 173.605 307.433 173.397 308.088C169.26 310.354 165.121 312.62 160.981 314.887C160.981 314.69 160.981 314.493 160.981 314.296C161.101 313.125 161.544 312.927 162.312 313.705C163.294 313.059 164.181 312.271 164.972 311.34C165.566 311.486 166.207 311.486 166.894 311.34C166.976 310.486 166.582 310.042 165.711 310.009C166.444 309.198 167.331 308.607 168.372 308.236C167.879 308.038 167.386 308.038 166.894 308.236C166.334 308.651 165.743 308.995 165.12 309.27C164.406 309.206 164.11 308.811 164.233 308.088C163.74 308.088 163.248 308.088 162.755 308.088C162.657 307.004 162.065 306.413 160.981 306.314C160.981 306.905 160.981 307.497 160.981 308.088C160.193 308.088 159.405 308.088 158.616 308.088C158.616 307.595 158.616 307.103 158.616 306.61C157.828 306.61 157.04 306.61 156.251 306.61C156.251 306.216 156.251 305.821 156.251 305.427C155.463 305.427 154.675 305.427 153.886 305.427C153.886 304.934 153.886 304.442 153.886 303.949C153.074 304.042 152.286 303.943 151.521 303.654C153.086 303.359 154.662 303.261 156.251 303.358C156.251 302.865 156.251 302.373 156.251 301.88C153.859 301.977 151.494 301.78 149.157 301.289C149.921 300.999 150.709 300.9 151.521 300.993C151.521 300.205 151.521 299.416 151.521 298.628C150.536 298.628 149.551 298.628 148.565 298.628C148.467 297.544 147.876 296.953 146.792 296.854C146.792 297.741 146.792 298.628 146.792 299.515C146.003 299.515 145.215 299.515 144.427 299.515C144.427 299.219 144.427 298.924 144.427 298.628C143.638 298.628 142.85 298.628 142.062 298.628C142.062 297.741 142.062 296.854 142.062 295.967C141.273 295.967 140.485 295.967 139.697 295.967C139.697 295.573 139.697 295.179 139.697 294.785C138.908 294.785 138.12 294.785 137.332 294.785C137.332 292.913 137.332 291.04 137.332 289.168C135.755 289.168 134.178 289.168 132.602 289.168C132.602 289.464 132.602 289.759 132.602 290.055C131.813 290.055 131.025 290.055 130.237 290.055C130.237 289.759 130.237 289.464 130.237 289.168C129.448 289.168 128.66 289.168 127.872 289.168C127.872 288.281 127.872 287.394 127.872 286.508C127.084 286.508 126.295 286.508 125.507 286.508C125.507 286.114 125.507 285.719 125.507 285.325C124.719 285.325 123.93 285.325 123.142 285.325C123.142 285.03 123.142 284.734 123.142 284.438C122.354 284.438 121.566 284.438 120.777 284.438C120.777 283.945 120.777 283.453 120.777 282.96C119.989 282.96 119.201 282.96 118.412 282.96C118.412 282.172 118.412 281.384 118.412 280.595C117.624 280.595 116.836 280.595 116.047 280.595C116.047 280.3 116.047 280.004 116.047 279.708C116.836 279.708 117.624 279.708 118.412 279.708C118.412 279.216 118.412 278.723 118.412 278.23C116.836 278.23 115.259 278.23 113.682 278.23C113.682 277.836 113.682 277.442 113.682 277.048C112.106 277.048 110.529 277.048 108.952 277.048C108.952 276.358 108.952 275.668 108.952 274.978C108.164 274.978 107.376 274.978 106.587 274.978C106.587 274.486 106.587 273.993 106.587 273.5C105.799 273.5 105.011 273.5 104.222 273.5C104.222 273.106 104.222 272.712 104.222 272.318C103.434 272.318 102.646 272.318 101.857 272.318C101.857 271.825 101.857 271.333 101.857 270.84C101.045 270.932 100.257 270.834 99.4925 270.544C101.66 270.347 103.828 270.15 105.996 269.953C105.436 269.667 104.844 269.569 104.222 269.657C104.222 269.362 104.222 269.066 104.222 268.77C102.646 268.77 101.069 268.77 99.4925 268.77C99.4925 267.686 99.4925 266.603 99.4925 265.519C100.092 265.567 100.683 265.517 101.266 265.371C98.5761 264.462 95.8171 264.167 92.9889 264.484C91.4742 265.547 89.7989 265.793 87.9634 265.223C88.6265 264.935 89.3161 264.836 90.0327 264.927C90.0327 264.632 90.0327 264.336 90.0327 264.041C89.3676 264.135 88.7763 263.987 88.259 263.597C88.6223 263.366 89.0164 263.218 89.4415 263.154C90.5699 263.655 91.7523 263.852 92.9889 263.745C92.9889 263.449 92.9889 263.154 92.9889 262.858C94.0904 262.954 95.1744 262.855 96.2407 262.562C95.0745 262.27 93.892 262.171 92.6933 262.267Z" fill="#DD0528"/>
<path fill-rule="evenodd" clip-rule="evenodd" d="M102.449 263.154C103.719 263.345 104.901 263.788 105.996 264.484C109.022 266.339 111.978 268.261 114.865 270.249C114.313 270.097 113.771 269.9 113.239 269.657C112.981 269.727 112.734 269.826 112.5 269.953C111.524 269.448 110.539 269.103 109.544 268.918C109.839 269.214 110.135 269.51 110.43 269.805C108.495 269.645 107.263 268.611 106.735 266.701C106.592 266.981 106.543 267.277 106.587 267.588C105.602 267.588 104.814 267.194 104.222 266.406C105.109 266.208 105.996 266.012 106.883 265.814C106.213 265.574 105.523 265.426 104.814 265.371C105.942 265.002 105.893 264.657 104.666 264.336C104.107 265.191 103.86 265.092 103.927 264.041C103.287 263.975 102.795 263.68 102.449 263.154Z" fill="#D3132C"/>
<path fill-rule="evenodd" clip-rule="evenodd" d="M81.1642 267.588C80.7979 267.798 80.6501 268.094 80.7207 268.475C81.7634 268.949 82.6009 268.702 83.2335 267.736C83.6157 267.591 84.0101 267.541 84.416 267.588C84.3483 268.159 84.102 268.652 83.6769 269.066C83.1534 269.304 82.7099 269.649 82.3466 270.101C84.8529 269.733 87.415 269.585 90.0327 269.657C90.0327 270.741 90.0327 271.825 90.0327 272.909C91.6093 272.909 93.1861 272.909 94.7626 272.909C94.7626 273.402 94.7626 273.894 94.7626 274.387C101.069 274.584 101.069 274.781 94.7626 274.978C94.7626 275.471 94.7626 275.964 94.7626 276.456C96.3392 276.456 97.916 276.456 99.4925 276.456C99.4925 276.85 99.4925 277.245 99.4925 277.639C101.069 277.639 102.646 277.639 104.222 277.639C104.222 279.215 104.222 280.792 104.222 282.369C105.799 282.369 107.376 282.369 108.952 282.369C108.952 282.862 108.952 283.354 108.952 283.847C115.259 284.044 115.259 284.241 108.952 284.438C108.952 284.931 108.952 285.423 108.952 285.916C110.529 285.916 112.106 285.916 113.682 285.916C113.682 286.31 113.682 286.705 113.682 287.099C115.259 287.099 116.836 287.099 118.412 287.099C118.412 288.281 118.412 289.464 118.412 290.646C119.989 290.646 121.566 290.646 123.142 290.646C123.142 291.533 123.142 292.42 123.142 293.307C129.449 293.504 129.449 293.701 123.142 293.898C123.142 294.391 123.142 294.883 123.142 295.376C124.719 295.376 126.295 295.376 127.872 295.376C127.872 295.77 127.872 296.164 127.872 296.558C129.449 296.558 131.025 296.558 132.602 296.558C132.602 297.051 132.602 297.544 132.602 298.037C134.178 298.037 135.755 298.037 137.332 298.037C137.332 299.613 137.332 301.19 137.332 302.766C138.908 302.766 140.485 302.766 142.062 302.766C142.062 303.851 142.062 304.934 142.062 306.018C143.638 306.018 145.215 306.018 146.792 306.018C146.792 306.511 146.792 307.004 146.792 307.496C153.098 307.694 153.098 307.89 146.792 308.088C146.792 308.58 146.792 309.073 146.792 309.566C148.368 309.566 149.945 309.566 151.521 309.566C151.521 309.96 151.521 310.354 151.521 310.748C153.098 310.748 154.675 310.748 156.251 310.748C156.251 312.226 156.251 313.704 156.251 315.182C156.657 315.229 157.052 315.18 157.434 315.035C158.42 313.654 159.603 313.407 160.981 314.296C160.981 314.493 160.981 314.69 160.981 314.887C155.313 318.987 149.105 320.022 142.357 317.991C120.316 305.095 98.243 292.187 76.1386 279.265C75.1099 278.586 74.5186 277.65 74.3649 276.456C74.1831 275.135 74.4787 273.953 75.2518 272.909C76.1108 273.642 76.9977 273.691 77.9123 273.057C77.2469 273.118 76.5569 273.167 75.843 273.205C75.7951 272.605 75.8445 272.014 75.9908 271.431C77.1239 269.903 78.4542 268.573 79.9817 267.44C80.4446 267.214 80.8387 267.263 81.1642 267.588Z" fill="#EA062F"/>
<path fill-rule="evenodd" clip-rule="evenodd" d="M179.901 268.179C179.089 269.355 178.498 270.635 178.127 272.022C177.919 271.477 177.525 271.329 176.945 271.579C175.28 273.198 173.506 274.676 171.624 276.013C170.186 276.244 168.905 276.786 167.781 277.639C167.387 277.639 166.992 277.639 166.598 277.639C169.336 276.269 171.997 274.742 174.58 273.057C176.597 271.68 178.37 270.054 179.901 268.179Z" fill="#9F161B"/>
<path fill-rule="evenodd" clip-rule="evenodd" d="M181.97 267.588C182.286 267.864 182.68 267.963 183.153 267.884C183.106 268.289 183.156 268.684 183.301 269.066C183.988 269.425 184.087 269.819 183.596 270.249C183.1 269.722 182.558 269.623 181.97 269.953C182.069 270.051 182.167 270.15 182.266 270.249C183.87 270.693 185.447 271.136 186.996 271.579C187.698 272.182 188.289 272.871 188.769 273.648C189.39 273.357 189.981 273.456 190.543 273.944C190.791 274.243 190.889 274.588 190.839 274.978C191.94 274.883 193.024 274.982 194.091 275.274C195.615 276.552 196.995 277.981 198.229 279.561C199.085 280.096 199.972 280.145 200.89 279.708C201.432 280.199 202.024 280.643 202.664 281.039C203.043 281.241 203.388 281.191 203.698 280.891C204 281.302 204.246 281.745 204.437 282.221C204.718 282.364 205.013 282.413 205.324 282.369C204.635 283.725 203.946 285.104 203.255 286.508C202.322 287.394 201.534 288.379 200.89 289.464C200.404 289.72 199.911 289.868 199.412 289.907C199.828 288.566 199.778 287.236 199.264 285.916C199.166 285.818 199.067 285.719 198.968 285.621C198.87 286.212 198.771 286.803 198.673 287.394C197.235 286.895 196.397 285.909 196.16 284.438C195.348 284.531 194.559 284.432 193.795 284.143C192.699 282.899 191.468 281.815 190.1 280.891C189.631 281.111 189.188 281.259 188.769 281.334C187.715 280.464 186.73 279.528 185.813 278.526C183.293 277.119 180.928 275.493 178.718 273.648C177.764 273.475 176.877 273.623 176.058 274.092C176.014 273.781 176.063 273.485 176.206 273.205C176.897 272.841 177.538 272.447 178.127 272.022C178.498 270.635 179.089 269.355 179.901 268.179C180.197 268.179 180.492 268.179 180.788 268.179C180.788 268.475 180.788 268.77 180.788 269.066C181.083 269.066 181.379 269.066 181.675 269.066C181.709 268.48 181.512 267.987 181.083 267.588C181.401 266.43 181.697 266.43 181.97 267.588Z" fill="#A3060A"/>
<path fill-rule="evenodd" clip-rule="evenodd" d="M82.051 265.519C82.0983 266.021 82.0492 266.514 81.9032 266.997C81.7799 267.368 81.5336 267.565 81.1641 267.588C80.8386 267.263 80.4446 267.214 79.9816 267.44C78.4542 268.573 77.1239 269.903 75.9908 271.431C75.8444 272.014 75.7951 272.605 75.843 273.205C76.5569 273.167 77.2469 273.118 77.9123 273.057C76.9977 273.691 76.1108 273.642 75.2517 272.909C74.4787 273.953 74.1831 275.135 74.3649 276.456C73.7902 274.475 74.2336 272.702 75.6952 271.135C77.5493 268.954 79.6677 267.081 82.051 265.519Z" fill="#D81D3C"/>
<path fill-rule="evenodd" clip-rule="evenodd" d="M178.127 272.022C177.538 272.447 176.897 272.841 176.206 273.205C176.063 273.485 176.014 273.781 176.058 274.092C176.877 273.623 177.764 273.475 178.719 273.648C180.928 275.493 183.293 277.119 185.814 278.526C186.73 279.528 187.715 280.464 188.77 281.334C189.188 281.259 189.631 281.111 190.1 280.891C191.468 281.815 192.7 282.899 193.795 284.143C194.56 284.432 195.348 284.531 196.16 284.438C196.398 285.909 197.235 286.895 198.673 287.395C198.771 286.803 198.87 286.212 198.969 285.621C199.067 285.719 199.166 285.818 199.264 285.916C199.779 287.236 199.828 288.566 199.412 289.907C199.911 289.868 200.404 289.72 200.89 289.464C200.673 289.821 200.575 290.215 200.594 290.646C198.82 291.58 197.341 292.911 196.16 294.637C195.985 294.774 195.787 294.824 195.569 294.785C193.993 294.597 193.697 293.908 194.682 292.716C194.701 292.157 194.553 291.664 194.239 291.238C193.654 291.627 193.211 291.479 192.908 290.794C191.73 290.647 190.548 290.597 189.361 290.646C189.361 290.154 189.361 289.661 189.361 289.168C188.739 289.257 188.148 289.158 187.587 288.873C186.715 287.215 185.335 286.426 183.449 286.508C182.404 285.798 181.812 284.812 181.675 283.552C180.881 283.6 180.092 283.551 179.31 283.404C178.229 282.618 177.243 281.731 176.354 280.743C175.971 280.598 175.577 280.549 175.171 280.595C175.171 280.3 175.171 280.004 175.171 279.708C174.244 279.527 173.358 279.232 172.511 278.822C171.794 278.849 171.105 278.997 170.441 279.265C170.371 279.941 170.371 280.68 170.441 281.482C169.218 281.342 168.627 280.652 168.668 279.413C169.074 279.459 169.468 279.41 169.85 279.265C169.105 278.763 168.415 278.221 167.781 277.639C168.905 276.786 170.186 276.244 171.624 276.013C173.506 274.676 175.28 273.198 176.945 271.579C177.525 271.329 177.919 271.477 178.127 272.022Z" fill="#B0060F"/>
<path fill-rule="evenodd" clip-rule="evenodd" d="M160.39 279.708C160.587 279.708 160.784 279.708 160.981 279.708C161.292 279.664 161.588 279.713 161.868 279.856C162.903 281.285 164.135 282.516 165.563 283.551C165.706 283.831 165.755 284.127 165.711 284.438C166.148 284.36 166.542 284.459 166.894 284.734C167.164 285.467 167.608 285.664 168.224 285.325C168.641 286.297 169.38 286.79 170.441 286.803C170.397 286.492 170.446 286.196 170.589 285.916C172.018 286.557 173.052 287.591 173.693 289.02C173.397 289.118 173.102 289.217 172.806 289.316C173.681 289.544 174.42 289.987 175.023 290.646C175.169 290.163 175.218 289.67 175.171 289.168C175.482 289.124 175.778 289.173 176.058 289.316C176.998 290.94 178.229 292.172 179.753 293.011C179.792 291.86 180.235 291.614 181.083 292.272C182.444 293.408 182.247 293.999 180.492 294.046C181.106 294.102 181.697 294.25 182.266 294.489C182.452 295.009 182.747 295.452 183.153 295.819C184.27 296.359 185.453 296.655 186.7 296.706C187.168 297.246 187.562 297.838 187.883 298.48C187.612 298.562 187.415 298.71 187.291 298.923C186.418 298.728 185.531 298.63 184.631 298.628C184.608 299.511 184.953 299.708 185.665 299.219C186.399 299.403 186.546 299.797 186.109 300.401C185.652 300.683 185.159 300.781 184.631 300.697C183.967 300.574 183.326 300.377 182.709 300.106C181.733 300.452 180.796 300.846 179.901 301.288C179.823 300.851 179.922 300.457 180.197 300.106C181.218 299.529 182.302 299.086 183.448 298.775C181.905 298.121 180.427 297.332 179.014 296.41C177.203 296.129 175.823 295.193 174.875 293.602C174.212 293.314 173.523 293.215 172.806 293.306C172.806 292.715 172.806 292.124 172.806 291.533C170.533 290.77 168.168 290.376 165.711 290.35C165.679 289.498 165.335 288.809 164.677 288.281C163.482 287.036 162.25 285.854 160.981 284.734C158.919 284.488 156.85 284.34 154.773 284.29C153.729 283.874 152.645 283.628 151.521 283.551C151.521 283.255 151.521 282.96 151.521 282.664C152.509 282.813 153.494 282.863 154.478 282.812C153.771 282.594 153.18 282.249 152.704 281.777C153.221 281.338 153.812 281.043 154.478 280.89C156.066 280.884 157.643 280.736 159.208 280.447C159.78 280.411 160.174 280.165 160.39 279.708Z" fill="#C4051B"/>
<path fill-rule="evenodd" clip-rule="evenodd" d="M160.39 279.708C160.174 280.165 159.78 280.411 159.208 280.448C157.643 280.736 156.066 280.884 154.478 280.891C156.406 280.466 158.376 280.072 160.39 279.708Z" fill="#BA2B37"/>
<path fill-rule="evenodd" clip-rule="evenodd" d="M140.288 280.595C145.007 281.219 149.737 281.317 154.478 280.891C153.812 281.043 153.221 281.339 152.704 281.778C149.626 281.865 146.571 281.668 143.54 281.186C142.648 281.235 141.761 281.186 140.879 281.039C140.609 280.956 140.412 280.809 140.288 280.595Z" fill="#B92133"/>
<path fill-rule="evenodd" clip-rule="evenodd" d="M143.54 281.187C146.571 281.668 149.626 281.865 152.704 281.778C153.18 282.249 153.771 282.594 154.478 282.812C153.494 282.863 152.509 282.814 151.522 282.665C151.522 282.96 151.522 283.256 151.522 283.551C152.645 283.628 153.73 283.875 154.773 284.291C156.85 284.34 158.919 284.488 160.981 284.734C162.25 285.854 163.482 287.037 164.677 288.281C165.335 288.809 165.679 289.499 165.711 290.351C168.168 290.376 170.533 290.77 172.806 291.533C172.806 292.124 172.806 292.716 172.806 293.307C173.523 293.216 174.212 293.315 174.875 293.603C175.823 295.193 177.203 296.129 179.014 296.411C180.427 297.333 181.905 298.121 183.448 298.776C182.302 299.086 181.218 299.529 180.197 300.106C179.922 300.458 179.824 300.852 179.901 301.289C180.796 300.847 181.733 300.453 182.709 300.106C183.326 300.378 183.967 300.575 184.631 300.697C184.631 300.993 184.631 301.289 184.631 301.584C183.931 301.48 183.241 301.431 182.562 301.436C182.997 301.646 183.194 301.991 183.153 302.471C181.182 302.283 179.802 303.071 179.014 304.836C178.413 304.288 177.724 303.845 176.945 303.506C177.508 303.262 177.607 302.917 177.24 302.471C176.266 301.645 175.182 301.004 173.989 300.55C173.423 300.132 173.029 299.59 172.806 298.924C172.042 298.634 171.253 298.536 170.441 298.628C170.519 298.191 170.42 297.797 170.146 297.446C168.861 296.504 167.629 295.518 166.45 294.489C165.982 294.71 165.538 294.857 165.12 294.933C164.314 293.092 163.033 291.663 161.277 290.646C161.08 290.942 160.883 291.238 160.686 291.533C159.65 290.839 158.664 290.1 157.73 289.316C157.246 289.17 156.754 289.121 156.251 289.168C156.248 288.174 155.755 287.533 154.773 287.247C153.916 286.538 153.226 285.701 152.704 284.734C152.353 284.459 151.958 284.361 151.522 284.438C151.497 285.907 151.102 286.005 150.339 284.734C147.599 284.169 144.84 283.726 142.062 283.404C141.532 283.281 141.138 282.985 140.879 282.517C139.576 282.144 138.442 282.39 137.48 283.256C137.335 282.874 137.285 282.479 137.332 282.073C138.087 281.803 138.875 281.606 139.697 281.482C140.384 281.55 141.024 281.747 141.618 282.073C142.26 281.7 142.9 281.405 143.54 281.187Z" fill="#CC051E"/>
<path fill-rule="evenodd" clip-rule="evenodd" d="M129.941 277.639C133.405 278.703 136.854 279.689 140.288 280.595C140.412 280.809 140.608 280.957 140.879 281.039C141.761 281.186 142.648 281.235 143.54 281.187C142.9 281.405 142.26 281.7 141.618 282.073C141.024 281.747 140.384 281.55 139.697 281.482C138.875 281.606 138.087 281.804 137.332 282.073C137.285 282.479 137.335 282.874 137.48 283.256C138.442 282.39 139.576 282.144 140.879 282.517C141.138 282.985 141.532 283.281 142.062 283.404C144.84 283.726 147.599 284.169 150.339 284.734C151.102 286.005 151.497 285.907 151.522 284.438C151.958 284.361 152.353 284.459 152.704 284.734C153.226 285.701 153.916 286.538 154.773 287.247C155.755 287.534 156.248 288.174 156.251 289.168C156.754 289.121 157.246 289.17 157.73 289.316C158.664 290.1 159.65 290.839 160.686 291.533C160.883 291.238 161.08 290.942 161.277 290.646C163.033 291.663 164.314 293.092 165.12 294.933C165.538 294.857 165.982 294.71 166.45 294.489C167.629 295.518 168.861 296.504 170.146 297.446C170.42 297.797 170.519 298.191 170.441 298.628C171.253 298.536 172.042 298.634 172.806 298.924C173.029 299.59 173.423 300.132 173.989 300.55C175.182 301.004 176.266 301.645 177.24 302.471C177.607 302.917 177.508 303.262 176.945 303.506C177.724 303.845 178.413 304.288 179.014 304.836C177.201 305.99 175.328 307.074 173.397 308.088C173.605 307.433 173.999 306.891 174.58 306.462C173.74 305.94 172.902 305.99 172.067 306.61C171.716 305.966 171.175 305.671 170.441 305.723C170.441 306.117 170.441 306.511 170.441 306.905C169.594 307.037 168.855 306.84 168.224 306.314C168.169 305.268 167.824 304.332 167.189 303.506C166.524 303.251 165.983 303.399 165.563 303.949C164.932 303.424 164.193 303.226 163.346 303.358C163.346 302.964 163.346 302.57 163.346 302.176C162.558 302.176 161.77 302.176 160.981 302.176C161.066 301.647 160.967 301.154 160.686 300.697C159.799 300.402 159.208 299.811 158.912 298.924C158.046 298.633 157.16 298.534 156.251 298.628C156.251 298.234 156.251 297.84 156.251 297.446C155.652 297.494 155.061 297.444 154.478 297.298C153.751 296.851 153.751 296.456 154.478 296.115C153.84 295.53 153.347 294.84 153 294.046C152.335 293.791 151.793 293.939 151.374 294.489C150.743 293.964 150.004 293.767 149.157 293.898C149.157 293.504 149.157 293.11 149.157 292.716C148.362 292.764 147.574 292.715 146.792 292.568C146.106 291.979 145.318 291.634 144.427 291.533C144.477 291.142 144.378 290.797 144.131 290.499C143.448 290.352 142.758 290.303 142.062 290.351C142.062 289.957 142.062 289.562 142.062 289.168C141.273 288.774 140.485 288.38 139.697 287.986C139.747 287.595 139.649 287.25 139.401 286.951C138.711 286.853 138.021 286.754 137.332 286.656C136.56 286.218 135.772 285.873 134.967 285.621C134.967 285.03 134.967 284.438 134.967 283.847C134.178 283.847 133.39 283.847 132.602 283.847C132.298 282.701 131.51 282.11 130.237 282.073C130.287 281.683 130.189 281.338 129.941 281.039C129.258 280.892 128.569 280.843 127.872 280.891C127.872 280.497 127.872 280.103 127.872 279.708C126.311 279.396 124.734 279.199 123.142 279.117C123.168 278.287 123.612 277.893 124.472 277.935C126.135 278.65 127.859 279.241 129.646 279.708C129.941 279.61 130.237 279.511 130.533 279.413C130.04 279.216 129.547 279.019 129.054 278.822C129.583 278.59 129.879 278.196 129.941 277.639Z" fill="#D30523"/>
<path fill-rule="evenodd" clip-rule="evenodd" d="M166.598 277.639C166.992 277.639 167.386 277.639 167.78 277.639C168.415 278.222 169.105 278.763 169.85 279.265C169.468 279.41 169.073 279.459 168.667 279.413C168.627 280.652 169.218 281.342 170.441 281.482C170.371 280.68 170.371 279.941 170.441 279.265C171.104 278.997 171.794 278.849 172.51 278.822C173.357 279.232 174.244 279.527 175.171 279.708C175.171 280.004 175.171 280.3 175.171 280.595C175.577 280.549 175.971 280.598 176.353 280.743C177.243 281.731 178.229 282.618 179.31 283.404C180.092 283.551 180.88 283.6 181.675 283.552C181.812 284.812 182.403 285.798 183.448 286.508C185.335 286.426 186.715 287.215 187.587 288.873C188.147 289.158 188.739 289.257 189.361 289.168C189.361 289.661 189.361 290.154 189.361 290.646C190.547 290.597 191.73 290.647 192.908 290.794C193.21 291.479 193.654 291.627 194.238 291.238C194.553 291.665 194.701 292.157 194.682 292.716C193.697 293.908 193.993 294.597 195.569 294.785C195.302 295.443 194.81 295.739 194.091 295.672C194.091 295.968 194.091 296.263 194.091 296.559C192.868 297.318 191.587 298.008 190.247 298.628C189.438 298.732 188.65 298.929 187.883 299.219C187.681 299.112 187.483 299.014 187.291 298.924C187.415 298.71 187.612 298.562 187.883 298.48C187.562 297.838 187.167 297.247 186.7 296.707C185.453 296.655 184.27 296.36 183.153 295.82C182.747 295.453 182.451 295.009 182.266 294.489C181.697 294.251 181.106 294.103 180.492 294.046C182.247 294 182.444 293.409 181.083 292.272C180.235 291.615 179.792 291.861 179.753 293.011C178.229 292.172 176.998 290.94 176.058 289.316C175.778 289.173 175.482 289.124 175.171 289.168C175.218 289.671 175.169 290.163 175.023 290.646C174.42 289.988 173.681 289.544 172.806 289.316C173.102 289.218 173.397 289.119 173.693 289.02C173.052 287.592 172.018 286.557 170.589 285.916C170.446 286.197 170.397 286.492 170.441 286.803C169.38 286.79 168.641 286.298 168.224 285.325C167.608 285.664 167.164 285.467 166.894 284.734C166.542 284.459 166.148 284.361 165.711 284.438C165.755 284.127 165.706 283.832 165.563 283.552C164.135 282.517 162.903 281.285 161.868 279.856C161.588 279.714 161.292 279.664 160.981 279.708C161.014 279.526 161.112 279.378 161.277 279.265C163.068 278.75 164.842 278.208 166.598 277.639Z" fill="#BA0615"/>
<path fill-rule="evenodd" clip-rule="evenodd" d="M187.291 298.924C187.483 299.013 187.681 299.112 187.882 299.219C188.65 298.929 189.438 298.732 190.247 298.628C186.6 300.846 182.856 302.916 179.014 304.836C179.802 303.071 181.181 302.283 183.153 302.471C183.194 301.991 182.997 301.646 182.561 301.436C183.24 301.431 183.93 301.48 184.631 301.584C184.631 301.289 184.631 300.993 184.631 300.697C185.159 300.782 185.652 300.683 186.109 300.402C186.546 299.797 186.398 299.403 185.665 299.219C184.953 299.708 184.608 299.511 184.631 298.628C185.531 298.63 186.418 298.729 187.291 298.924Z" fill="#BF1829"/>
<path d="M302.88 236.32C299.14 236.32 295.547 235.843 292.1 234.89C288.727 233.863 285.647 232.507 282.86 230.82C280.147 229.06 277.91 227.117 276.15 224.99C274.39 222.79 273.29 220.443 272.85 217.95L290.34 213C291.147 215.127 292.54 216.997 294.52 218.61C296.573 220.15 299.14 220.957 302.22 221.03C305.227 221.103 307.72 220.407 309.7 218.94C311.753 217.473 312.78 215.567 312.78 213.22C312.78 211.387 312.047 209.773 310.58 208.38C309.187 206.987 307.17 205.923 304.53 205.19L293.64 202.44C289.827 201.487 286.49 199.983 283.63 197.93C280.843 195.877 278.643 193.383 277.03 190.45C275.49 187.443 274.72 184.033 274.72 180.22C274.72 172.813 277.177 167.057 282.09 162.95C287.003 158.77 293.933 156.68 302.88 156.68C307.793 156.68 312.083 157.377 315.75 158.77C319.417 160.09 322.533 162.07 325.1 164.71C327.74 167.35 329.83 170.65 331.37 174.61L313.99 179.78C313.403 177.8 312.12 176.003 310.14 174.39C308.233 172.777 305.74 171.97 302.66 171.97C299.58 171.97 297.16 172.667 295.4 174.06C293.713 175.453 292.87 177.47 292.87 180.11C292.87 181.943 293.567 183.483 294.96 184.73C296.353 185.903 298.26 186.783 300.68 187.37L311.57 190.12C317.803 191.66 322.643 194.557 326.09 198.81C329.61 202.99 331.37 207.757 331.37 213.11C331.37 217.95 330.233 222.093 327.96 225.54C325.76 228.987 322.533 231.663 318.28 233.57C314.027 235.403 308.893 236.32 302.88 236.32ZM342.759 235V158H362.229L382.689 188.36L403.259 158H422.729V235H405.019V185.5L382.799 218.06L360.469 185.5V235H342.759ZM491.18 235L462.36 158H479.96L509.88 235H491.18ZM431.12 235L461.04 158H478.64L449.82 235H431.12ZM445.2 220.37V204.75H495.91V220.37H445.2ZM518.287 235V158H548.537C554.11 158 559.06 159.1 563.387 161.3C567.713 163.427 571.087 166.433 573.507 170.32C576 174.133 577.247 178.533 577.247 183.52C577.247 188.507 576 192.943 573.507 196.83C571.013 200.717 567.567 203.76 563.167 205.96C558.84 208.087 553.853 209.15 548.207 209.15H535.997V235H518.287ZM560.087 235L542.707 204.42L556.017 194.63L580.327 235H560.087ZM535.997 192.87H547.987C550.04 192.87 551.873 192.467 553.487 191.66C555.1 190.853 556.347 189.753 557.227 188.36C558.18 186.893 558.657 185.28 558.657 183.52C558.657 180.807 557.63 178.57 555.577 176.81C553.597 175.05 550.957 174.17 547.657 174.17H535.997V192.87ZM605.261 235V174.28H582.821V158H645.301V174.28H622.861V235H605.261ZM680.79 236.32C677.05 236.32 673.457 235.843 670.01 234.89C666.637 233.863 663.557 232.507 660.77 230.82C658.057 229.06 655.82 227.117 654.06 224.99C652.3 222.79 651.2 220.443 650.76 217.95L668.25 213C669.057 215.127 670.45 216.997 672.43 218.61C674.483 220.15 677.05 220.957 680.13 221.03C683.137 221.103 685.63 220.407 687.61 218.94C689.663 217.473 690.69 215.567 690.69 213.22C690.69 211.387 689.957 209.773 688.49 208.38C687.097 206.987 685.08 205.923 682.44 205.19L671.55 202.44C667.737 201.487 664.4 199.983 661.54 197.93C658.753 195.877 656.553 193.383 654.94 190.45C653.4 187.443 652.63 184.033 652.63 180.22C652.63 172.813 655.087 167.057 660 162.95C664.913 158.77 671.843 156.68 680.79 156.68C685.703 156.68 689.993 157.377 693.66 158.77C697.327 160.09 700.443 162.07 703.01 164.71C705.65 167.35 707.74 170.65 709.28 174.61L691.9 179.78C691.313 177.8 690.03 176.003 688.05 174.39C686.143 172.777 683.65 171.97 680.57 171.97C677.49 171.97 675.07 172.667 673.31 174.06C671.623 175.453 670.78 177.47 670.78 180.11C670.78 181.943 671.477 183.483 672.87 184.73C674.263 185.903 676.17 186.783 678.59 187.37L689.48 190.12C695.713 191.66 700.553 194.557 704 198.81C707.52 202.99 709.28 207.757 709.28 213.11C709.28 217.95 708.143 222.093 705.87 225.54C703.67 228.987 700.443 231.663 696.19 233.57C691.937 235.403 686.803 236.32 680.79 236.32ZM756.969 236.32C749.049 236.32 742.046 234.633 735.959 231.26C729.873 227.813 725.106 223.12 721.659 217.18C718.213 211.167 716.489 204.31 716.489 196.61C716.489 188.837 718.213 181.98 721.659 176.04C725.106 170.027 729.836 165.333 735.849 161.96C741.936 158.513 748.903 156.79 756.749 156.79C764.596 156.79 771.526 158.513 777.539 161.96C783.626 165.333 788.393 170.027 791.839 176.04C795.286 181.98 797.009 188.837 797.009 196.61C797.009 204.31 795.286 211.167 791.839 217.18C788.466 223.12 783.773 227.813 777.759 231.26C771.746 234.633 764.816 236.32 756.969 236.32ZM756.969 220.04C761.296 220.04 765.109 219.05 768.409 217.07C771.709 215.09 774.276 212.34 776.109 208.82C777.943 205.227 778.859 201.157 778.859 196.61C778.859 191.99 777.906 187.92 775.999 184.4C774.093 180.807 771.489 178.02 768.189 176.04C764.889 173.987 761.076 172.96 756.749 172.96C752.423 172.96 748.609 173.987 745.309 176.04C742.009 178.02 739.406 180.807 737.499 184.4C735.593 187.92 734.639 191.99 734.639 196.61C734.639 201.157 735.593 205.227 737.499 208.82C739.406 212.34 742.046 215.09 745.419 217.07C748.793 219.05 752.643 220.04 756.969 220.04ZM807.789 235V158H858.829V174.28H825.499V189.13H852.449V205.3H825.499V235H807.789ZM885.954 235V174.28H863.514V158H925.994V174.28H903.554V235H885.954Z" fill="white"/>
<path d="M303.16 316.8C298.147 316.8 293.693 315.6 289.8 313.2C285.907 310.8 282.84 307.44 280.6 303.12C278.413 298.747 277.32 293.68 277.32 287.92C277.32 282.213 278.413 277.2 280.6 272.88C282.84 268.56 285.907 265.2 289.8 262.8C293.747 260.4 298.28 259.2 303.4 259.2C308.787 259.2 313.507 260.56 317.56 263.28C321.613 266 324.6 269.733 326.52 274.48L323 275.6L322.2 275.44C320.44 271.547 317.96 268.587 314.76 266.56C311.56 264.48 307.8 263.44 303.48 263.44C299.267 263.44 295.533 264.453 292.28 266.48C289.027 268.453 286.467 271.28 284.6 274.96C282.787 278.64 281.88 282.96 281.88 287.92C281.88 292.88 282.787 297.227 284.6 300.96C286.413 304.64 288.947 307.493 292.2 309.52C295.453 311.547 299.16 312.56 303.32 312.56C307.373 312.56 310.947 311.6 314.04 309.68C317.187 307.707 319.613 305.067 321.32 301.76C323.08 298.453 323.96 294.8 323.96 290.8V288.88L326.44 290.64H305.08V286.4H326.92L328.12 287.52V316H323.96V300.16H325.56C324.547 303.573 322.92 306.533 320.68 309.04C318.493 311.547 315.907 313.467 312.92 314.8C309.933 316.133 306.68 316.8 303.16 316.8ZM377.296 316L356.656 261.44L356.016 260H360.656L381.936 315.36V316H377.296ZM334.736 316V315.36L356.016 260H360.656L359.936 261.44L339.376 316H334.736ZM342.576 300.4L344.416 296.16H372.736L374.496 300.4H342.576ZM415.248 316L415.328 314.24L439.008 260H443.008V261.68L419.248 316H415.248ZM389.808 316V260H394.208V316H389.808ZM415.328 316L391.488 261.68V260H395.568L419.248 314.24V316H415.328ZM440.288 316V260H444.688V316H440.288ZM458.948 316V260H463.348V316H458.948ZM514.74 316L477.62 261.2V260H482.02L519.14 314.8V316H514.74ZM477.62 316V260H482.02V316H477.62ZM514.74 316V260H519.14V316H514.74ZM556.441 316.8C551.428 316.8 546.975 315.6 543.081 313.2C539.188 310.8 536.121 307.44 533.881 303.12C531.695 298.747 530.601 293.68 530.601 287.92C530.601 282.213 531.695 277.2 533.881 272.88C536.121 268.56 539.188 265.2 543.081 262.8C547.028 260.4 551.561 259.2 556.681 259.2C562.068 259.2 566.788 260.56 570.841 263.28C574.895 266 577.881 269.733 579.801 274.48L576.281 275.6L575.481 275.44C573.721 271.547 571.241 268.587 568.041 266.56C564.841 264.48 561.081 263.44 556.761 263.44C552.548 263.44 548.815 264.453 545.561 266.48C542.308 268.453 539.748 271.28 537.881 274.96C536.068 278.64 535.161 282.96 535.161 287.92C535.161 292.88 536.068 297.227 537.881 300.96C539.695 304.64 542.228 307.493 545.481 309.52C548.735 311.547 552.441 312.56 556.601 312.56C560.655 312.56 564.228 311.6 567.321 309.68C570.468 307.707 572.895 305.067 574.601 301.76C576.361 298.453 577.241 294.8 577.241 290.8V288.88L579.721 290.64H558.361V286.4H580.201L581.401 287.52V316H577.241V300.16H578.841C577.828 303.573 576.201 306.533 573.961 309.04C571.775 311.547 569.188 313.467 566.201 314.8C563.215 316.133 559.961 316.8 556.441 316.8Z" fill="white"/>
</svg>
