<svg width="996" height="471" viewBox="0 0 996 471" fill="none" xmlns="http://www.w3.org/2000/svg">
<rect width="996" height="471" rx="50" fill=""/>
<path opacity="0.895" fill-rule="evenodd" clip-rule="evenodd" d="M327.674 150.233C363.98 150.233 400.284 150.233 436.59 150.233C436.59 161.059 436.59 171.884 436.59 182.709C400.284 182.709 363.98 182.709 327.674 182.709C327.674 171.884 327.674 161.059 327.674 150.233Z" fill="#FF8200"/>
<path opacity="0.939" fill-rule="evenodd" clip-rule="evenodd" d="M584.901 150.233C597.26 150.233 609.62 150.233 621.979 150.233C621.979 196.627 621.979 243.02 621.979 289.414C609.62 289.414 597.26 289.414 584.901 289.414C584.901 243.02 584.901 196.627 584.901 150.233Z" fill="#FE8200"/>
<path opacity="0.928" fill-rule="evenodd" clip-rule="evenodd" d="M624.296 150.233C691.185 151.063 717.063 184.312 701.928 249.979C695.363 265.83 684.161 277.042 668.326 283.615C653.908 287.567 639.232 289.5 624.296 289.414C624.296 278.589 624.296 267.764 624.296 256.938C653.175 261.271 667.851 248.899 668.326 219.824C667.851 190.748 653.175 178.376 624.296 182.709C624.296 171.884 624.296 161.059 624.296 150.233Z" fill="#FF8200"/>
<path opacity="0.701" fill-rule="evenodd" clip-rule="evenodd" d="M230.344 152.554C232.652 152.354 234.583 153.128 236.138 154.873C237.295 165.671 237.681 176.496 237.296 187.349C234.207 187.349 231.117 187.349 228.027 187.349C227.381 175.531 228.154 163.932 230.344 152.554Z" fill="#FFB000"/>
<path opacity="0.721" fill-rule="evenodd" clip-rule="evenodd" d="M200.218 159.512C203.981 159.188 206.685 160.734 208.329 164.152C213.172 173.661 215.875 183.713 216.44 194.308C213.376 194.702 210.673 193.928 208.329 191.988C204.853 183.096 201.377 174.204 197.901 165.312C198.465 163.219 199.237 161.286 200.218 159.512Z" fill="#FFAE00"/>
<path opacity="0.814" fill-rule="evenodd" clip-rule="evenodd" d="M260.47 159.512C264.529 159.321 266.847 161.254 267.422 165.312C265.192 176.329 260.558 185.994 253.518 194.307C250.691 193.41 249.146 191.477 248.883 188.508C252.461 178.653 256.323 168.988 260.47 159.512Z" fill="#FFAA00"/>
<path opacity="0.895" fill-rule="evenodd" clip-rule="evenodd" d="M362.434 185.029C375.567 185.029 388.697 185.029 401.829 185.029C401.829 219.824 401.829 254.619 401.829 289.414C388.697 289.414 375.567 289.414 362.434 289.414C362.434 254.619 362.434 219.824 362.434 185.029Z" fill="#FF8200"/>
<path opacity="0.919" fill-rule="evenodd" clip-rule="evenodd" d="M475.985 187.348C482.817 186.705 489.382 187.479 495.683 189.668C499.335 201.362 502.424 212.96 504.952 224.463C493.826 218.628 484.557 220.948 477.144 231.422C475.38 253.616 485.037 260.962 506.111 253.459C509.566 248.595 511.883 243.182 513.063 237.221C510.794 221.576 510.023 205.725 510.746 189.668C523.104 189.668 535.465 189.668 547.823 189.668C547.823 222.916 547.823 256.165 547.823 289.414C535.439 289.799 523.081 289.412 510.746 288.254C512.949 286.59 513.334 284.656 511.904 282.455C488.747 296.485 467.891 293.392 449.335 273.176C435.45 250.869 435.45 228.445 449.335 205.906C457.404 198.16 466.287 191.974 475.985 187.348Z" fill="#FF8200"/>
<path opacity="0.926" fill-rule="evenodd" clip-rule="evenodd" d="M758.704 187.348C764.884 187.348 771.062 187.348 777.243 187.348C780.081 198.584 783.17 209.796 786.512 220.983C786.125 222.143 785.74 223.303 785.353 224.463C775.792 218.602 767.294 220.148 759.862 229.102C753.918 250.23 762.029 259.122 784.195 255.778C787.784 252.962 790.486 249.483 792.305 245.34C793.464 226.799 793.849 208.241 793.464 189.668C805.051 189.668 816.638 189.668 828.225 189.668C828.225 222.916 828.225 256.165 828.225 289.414C816.638 289.414 805.051 289.414 793.464 289.414C793.809 286.973 793.425 284.654 792.305 282.455C764.453 297.323 742.051 291.137 725.102 263.897C712.799 227.709 723.999 202.192 758.704 187.348Z" fill="#FF8200"/>
<path opacity="0.904" fill-rule="evenodd" clip-rule="evenodd" d="M204.853 208.225C201.166 209.893 197.69 212.213 194.425 215.184C193.653 214.411 192.88 213.638 192.108 212.865C188.653 216.353 184.405 218.286 179.362 218.664C180.651 219.551 181.423 220.711 181.68 222.143C164.52 217.71 161.43 208.818 172.41 195.467C176.273 193.92 180.135 193.92 183.997 195.467C191.014 199.746 197.966 203.998 204.853 208.225Z" fill="#FFAA00"/>
<path opacity="0.97" fill-rule="evenodd" clip-rule="evenodd" d="M281.326 233.742C263.758 234.289 246.378 239.701 229.186 249.98C228.413 249.206 227.641 248.433 226.868 247.66C213.604 255.568 199.314 260.981 183.997 263.898C188.347 256.142 192.209 248.409 195.584 240.701C195.28 242.415 195.667 243.961 196.743 245.34C209.506 238.908 222.251 232.722 234.979 226.783C239.365 229.57 243.613 232.663 247.725 236.062C253.323 225.622 259.503 215.57 266.264 205.906C279.424 192.39 289.852 193.937 297.548 210.545C291.939 218.422 286.531 226.154 281.326 233.742Z" fill="#FF9900"/>
<path opacity="0.974" fill-rule="evenodd" clip-rule="evenodd" d="M204.853 208.226C210.756 211.551 216.163 215.417 221.075 219.824C215.179 218.906 210.158 220.453 206.012 224.463C205.24 223.69 204.467 222.917 203.695 222.144C198.925 223.835 194.677 226.155 190.949 229.103C186.939 227.883 183.849 225.564 181.68 222.144C181.423 220.711 180.651 219.552 179.362 218.664C184.405 218.286 188.653 216.353 192.108 212.865C192.88 213.638 193.653 214.411 194.425 215.185C197.69 212.213 201.166 209.893 204.853 208.226Z" fill="#FFA500"/>
<path opacity="0.958" fill-rule="evenodd" clip-rule="evenodd" d="M221.075 219.824C225.671 222.075 230.305 224.395 234.979 226.783C222.251 232.722 209.506 238.908 196.743 245.34C195.667 243.961 195.28 242.415 195.584 240.701C198.635 235.189 197.09 231.323 190.949 229.102C194.677 226.154 198.925 223.835 203.695 222.143C204.467 222.917 205.24 223.69 206.012 224.463C210.158 220.452 215.179 218.906 221.075 219.824Z" fill="#FF9F00"/>
<path opacity="0.987" fill-rule="evenodd" clip-rule="evenodd" d="M281.326 233.742C281.986 238.183 281.213 242.049 279.009 245.34C255.91 253.197 231.577 262.476 206.012 273.176C197.972 274.469 189.862 277.562 181.68 282.455C182.15 278.873 183.695 275.779 186.314 273.176C184.586 270.309 183.814 267.216 183.997 263.897C199.314 260.981 213.604 255.568 226.868 247.66C227.641 248.433 228.413 249.206 229.186 249.979C246.378 239.701 263.758 234.288 281.326 233.742Z" fill="#FF9200"/>
<path opacity="0.99" fill-rule="evenodd" clip-rule="evenodd" d="M279.009 245.34C279.009 248.433 279.009 251.526 279.009 254.619C277.726 260.16 274.25 264.026 268.581 266.217C267.809 265.444 267.036 264.671 266.264 263.898C262.055 268.401 257.421 269.948 252.359 268.537C233.251 277.728 212.009 286.234 188.632 294.053C183.471 291.964 181.153 288.098 181.68 282.455C189.862 277.562 197.972 274.469 206.012 273.176C231.577 262.476 255.91 253.198 279.009 245.34Z" fill="#FF8C00"/>
<path opacity="0.99" fill-rule="evenodd" clip-rule="evenodd" d="M279.009 254.619C280.642 267.646 276.007 277.698 265.105 284.774C244.476 290.882 224.392 297.841 204.853 305.651C198.951 302.326 193.543 298.46 188.632 294.053C212.009 286.233 233.251 277.728 252.359 268.537C257.421 269.947 262.055 268.401 266.264 263.897C267.036 264.67 267.809 265.444 268.581 266.217C274.25 264.026 277.726 260.16 279.009 254.619Z" fill="#FF8600"/>
<path opacity="0.929" fill-rule="evenodd" clip-rule="evenodd" d="M283.644 270.856C297.748 272.112 308.562 278.684 316.087 290.574C303.617 311.564 288.554 330.508 270.898 347.406C260.549 341.671 251.666 334.326 244.249 325.369C257.695 307.307 270.826 289.136 283.644 270.856Z" fill="#FF7F00"/>
<path opacity="0.906" fill-rule="evenodd" clip-rule="evenodd" d="M265.105 284.774C258.834 296.107 251.11 306.546 241.931 316.09C228.32 317.415 215.961 313.936 204.853 305.651C224.392 297.841 244.476 290.882 265.105 284.774Z" fill="#FF8100"/>
<path opacity="0.775" fill-rule="evenodd" clip-rule="evenodd" d="M376.338 307.971C385.71 306.714 394.208 308.647 401.829 313.771C397.528 319.972 392.122 321.132 385.608 317.25C377.156 319.537 374.452 324.95 377.497 333.488C381.497 335.984 385.745 336.371 390.243 334.648C388.046 333.528 385.728 333.141 383.29 333.488C383.29 330.395 383.29 327.302 383.29 324.209C389.471 324.209 395.649 324.209 401.829 324.209C403.827 343.465 395.329 350.811 376.338 346.246C357.95 333.498 357.95 320.74 376.338 307.971Z" fill="#FF8200"/>
<path opacity="0.762" fill-rule="evenodd" clip-rule="evenodd" d="M462.081 307.971C466.957 307.278 471.591 308.051 475.985 310.291C481.955 322.228 486.589 334.599 489.889 347.406C481.22 349.496 476.585 346.404 475.985 338.127C471.35 338.127 466.716 338.127 462.081 338.127C462.081 341.219 462.081 344.314 462.081 347.406C457.446 347.406 452.811 347.406 448.177 347.406C452.149 334.038 456.783 320.893 462.081 307.971ZM466.716 324.209C470.973 324.533 471.744 326.079 469.033 328.848C467.184 327.789 466.412 326.242 466.716 324.209Z" fill="#FF8200"/>
<path opacity="0.786" fill-rule="evenodd" clip-rule="evenodd" d="M538.554 307.972C543.189 307.972 547.823 307.972 552.458 307.972C556.194 329.086 561.6 329.473 568.68 309.131C572.466 307.987 576.329 307.6 580.267 307.972C580.267 321.116 580.267 334.261 580.267 347.406C576.403 347.406 572.543 347.406 568.68 347.406C569.055 342.704 568.668 338.065 567.521 333.488C562.115 345.859 556.706 345.859 551.299 333.488C550.152 338.065 549.765 342.704 550.141 347.406C546.278 347.406 542.417 347.406 538.554 347.406C538.554 334.261 538.554 321.116 538.554 307.972Z" fill="#FF8200"/>
<path opacity="0.697" fill-rule="evenodd" clip-rule="evenodd" d="M633.566 307.971C638.201 307.971 642.835 307.971 647.47 307.971C647.47 321.116 647.47 334.261 647.47 347.406C642.835 347.406 638.201 347.406 633.566 347.406C633.566 334.261 633.566 321.116 633.566 307.971Z" fill="#FF8300"/>
<path opacity="0.789" fill-rule="evenodd" clip-rule="evenodd" d="M700.77 307.972C704.707 307.6 708.57 307.987 712.356 309.131C716.604 314.931 720.854 320.73 725.102 326.529C726.254 320.391 726.641 314.205 726.261 307.972C730.124 307.972 733.984 307.972 737.847 307.972C737.847 321.116 737.847 334.261 737.847 347.406C733.91 347.777 730.047 347.392 726.261 346.246C722.013 340.447 717.763 334.648 713.515 328.849C712.363 334.986 711.976 341.173 712.356 347.406C708.493 347.406 704.633 347.406 700.77 347.406C700.77 334.261 700.77 321.116 700.77 307.972Z" fill="#FF8300"/>
<path opacity="0.757" fill-rule="evenodd" clip-rule="evenodd" d="M802.733 307.971C808.96 307.591 815.141 307.977 821.272 309.131C826.12 311.341 826.892 314.434 823.59 318.41C819.699 319.325 815.838 318.939 812.003 317.25C803.552 319.537 800.847 324.95 803.892 333.488C807.892 335.984 812.14 336.371 816.638 334.647C813.641 333.511 810.55 333.124 807.368 333.488C807.368 330.395 807.368 327.302 807.368 324.209C814.32 324.209 821.272 324.209 828.225 324.209C830.222 343.465 821.724 350.811 802.733 346.246C784.276 333.298 784.276 320.54 802.733 307.971Z" fill="#FF8200"/>
</svg>
