<svg width="22" height="21" viewBox="0 0 22 21" fill="none" xmlns="http://www.w3.org/2000/svg">
<g clip-path="url(#clip0_8325_16)">
<path d="M18.7146 4.67636C19.5906 4.67636 20.4307 5.0215 21.0501 5.63584C21.6695 6.25019 22.0175 7.08342 22.0175 7.95223V10.0042C22.0175 10.3218 21.9477 10.6356 21.813 10.9236C21.6782 11.2117 21.4817 11.4672 21.2372 11.6722C21.0528 11.8059 20.9027 11.9809 20.7993 12.1829C20.6959 12.3849 20.642 12.6083 20.642 12.8349C20.642 13.0615 20.6959 13.2849 20.7993 13.4869C20.9027 13.6889 21.0528 13.8639 21.2372 13.9976C21.4817 14.2026 21.6782 14.4581 21.813 14.7461C21.9477 15.0342 22.0175 15.348 22.0175 15.6655V17.7175C22.0175 18.5864 21.6695 19.4196 21.0501 20.0339C20.4307 20.6483 19.5906 20.9934 18.7146 20.9934H3.30284C2.42688 20.9934 1.58678 20.6483 0.967381 20.0339C0.347977 19.4196 1.44165e-08 18.5864 1.44165e-08 17.7175L1.44165e-08 15.6655C-3.66227e-05 15.348 0.0697575 15.0342 0.204517 14.7461C0.339277 14.4581 0.53576 14.2026 0.780269 13.9976C0.964712 13.8639 1.11475 13.6889 1.21817 13.4869C1.3216 13.2849 1.37551 13.0615 1.37551 12.8349C1.37551 12.6083 1.3216 12.3849 1.21817 12.1829C1.11475 11.9809 0.964712 11.8059 0.780269 11.6722C0.53614 11.4675 0.339884 11.2125 0.205139 10.925C0.0703939 10.6374 0.000392753 10.3242 1.44165e-08 10.0072L1.44165e-08 7.95516C1.99003e-08 7.08635 0.347977 6.25312 0.967381 5.63877C1.58678 5.02443 2.42688 4.6793 3.30284 4.6793L18.7146 4.67636ZM7.5958 10.0541C7.3358 10.054 7.08621 10.1554 6.90085 10.3362C6.71549 10.517 6.60922 10.7629 6.60495 11.0207V14.6403C6.60388 14.7693 6.62845 14.8973 6.67726 15.017C6.72607 15.1366 6.79816 15.2456 6.88942 15.3376C6.98067 15.4296 7.0893 15.5028 7.20911 15.5532C7.32892 15.6036 7.45755 15.63 7.58768 15.6311C7.85047 15.6332 8.10335 15.5317 8.2907 15.349C8.47804 15.1662 8.5845 14.917 8.58666 14.6564V11.0368C8.58666 10.9078 8.56103 10.78 8.51123 10.6607C8.46144 10.5415 8.38845 10.4332 8.29644 10.3419C8.20443 10.2507 8.0952 10.1783 7.97499 10.1289C7.85477 10.0795 7.72592 10.0541 7.5958 10.0541ZM14.7512 0.197145C15.6285 -0.0984937 16.5882 -0.0366201 17.4195 0.36917C18.2508 0.774961 18.8856 1.49147 19.1846 2.36127L19.5208 3.27807C19.5325 3.31107 19.5362 3.34637 19.5314 3.38105C19.5267 3.41573 19.5136 3.44878 19.4934 3.47745C19.4731 3.50612 19.4463 3.52959 19.4151 3.54589C19.3839 3.5622 19.3492 3.57088 19.3139 3.57122H6.65446C6.6038 3.56918 6.55538 3.54998 6.51727 3.51683C6.47916 3.48367 6.45366 3.43856 6.44501 3.38902C6.43637 3.33948 6.44511 3.28849 6.46978 3.24456C6.49445 3.20064 6.53355 3.16642 6.58057 3.14762L14.7512 0.197145Z" fill="#ffff"/>
</g>
<defs>
<clipPath id="clip0_8325_16">
<rect width="22" height="21" fill="white"/>
</clipPath>
</defs>
</svg>
