<svg width="533" height="533" viewBox="0 0 533 533" fill="none" xmlns="http://www.w3.org/2000/svg">
<path d="M533 266.5C533 413.684 413.684 532.998 266.5 532.998C119.316 532.998 0 413.684 0 266.5C0 119.316 119.316 0 266.5 0C413.684 0 533 119.316 533 266.5Z" fill=""/>
<g clip-path="url(#clip0_68_171)">
<path d="M149.14 381.256C149.14 387.199 153.948 392 159.9 392H256.068V265.758H149.14V381.256ZM278.932 392H375.1C381.052 392 385.86 387.199 385.86 381.256V265.758H278.932V392ZM391.24 185.179H341.61C346.183 177.994 348.872 169.466 348.872 160.333C348.872 134.783 328.059 114 302.47 114C288.549 114 276.007 120.178 267.5 129.914C258.993 120.178 246.451 114 232.53 114C206.941 114 186.128 134.783 186.128 160.333C186.128 169.466 188.784 177.994 193.391 185.179H143.76C137.808 185.179 133 189.98 133 195.923V242.928H256.068V185.179H278.932V242.928H402V195.923C402 189.98 397.192 185.179 391.24 185.179ZM256.068 183.836H232.53C219.551 183.836 208.993 173.293 208.993 160.333C208.993 147.373 219.551 136.831 232.53 136.831C245.509 136.831 256.068 147.373 256.068 160.333V183.836ZM302.47 183.836H278.932V160.333C278.932 147.373 289.491 136.831 302.47 136.831C315.449 136.831 326.007 147.373 326.007 160.333C326.007 173.293 315.449 183.836 302.47 183.836Z" fill="#ffffff"/>
</g>
<defs>
<clipPath id="clip0_68_171">
<rect width="381" height="381" fill="white" transform="translate(77 54)"/>
</clipPath>
</defs>
</svg>
