<svg width="533" height="533" viewBox="0 0 533 533" fill="none" xmlns="http://www.w3.org/2000/svg">
<circle cx="266.5" cy="266.5" r="266.5" fill=""/>
<path d="M140.207 174.182V356H90.8466V219.636H89.7812L50.0085 243.429V201.526L94.7528 174.182H140.207ZM251.757 358.486C237.079 358.486 223.97 356.207 212.429 351.65C200.947 347.093 191.891 340.908 185.262 333.095C178.693 325.283 175.408 316.464 175.408 306.639C175.408 299.123 177.272 292.257 181.001 286.043C184.789 279.828 189.879 274.679 196.271 270.595C202.663 266.452 209.795 263.789 217.667 262.605V261.185C207.309 259.409 198.786 254.822 192.098 247.424C185.47 239.967 182.155 231.178 182.155 221.057C182.155 211.528 185.174 203.064 191.211 195.666C197.248 188.209 205.504 182.349 215.98 178.088C226.456 173.827 238.382 171.696 251.757 171.696C265.133 171.696 277.059 173.856 287.535 178.177C298.011 182.438 306.267 188.298 312.304 195.755C318.341 203.153 321.36 211.587 321.36 221.057C321.36 231.237 317.986 240.026 311.239 247.424C304.492 254.822 296.028 259.409 285.848 261.185V262.605C293.661 263.789 300.763 266.452 307.155 270.595C313.547 274.679 318.637 279.828 322.425 286.043C326.213 292.257 328.107 299.123 328.107 306.639C328.107 316.464 324.792 325.283 318.164 333.095C311.594 340.908 302.539 347.093 290.998 351.65C279.516 356.207 266.435 358.486 251.757 358.486ZM251.757 324.395C256.433 324.395 260.576 323.448 264.186 321.554C267.797 319.66 270.638 317.056 272.709 313.741C274.84 310.368 275.905 306.58 275.905 302.378C275.905 298.176 274.84 294.447 272.709 291.192C270.638 287.937 267.797 285.392 264.186 283.557C260.576 281.663 256.433 280.716 251.757 280.716C247.141 280.716 242.998 281.663 239.328 283.557C235.718 285.392 232.848 287.937 230.717 291.192C228.645 294.447 227.61 298.176 227.61 302.378C227.61 306.58 228.645 310.338 230.717 313.653C232.848 316.967 235.718 319.601 239.328 321.554C242.998 323.448 247.141 324.395 251.757 324.395ZM251.757 246.625C255.9 246.625 259.57 245.767 262.766 244.05C265.962 242.334 268.477 239.967 270.312 236.948C272.147 233.93 273.064 230.527 273.064 226.739C273.064 222.951 272.147 219.607 270.312 216.707C268.477 213.747 265.962 211.439 262.766 209.782C259.57 208.066 255.9 207.207 251.757 207.207C247.674 207.207 244.004 208.066 240.749 209.782C237.553 211.439 235.038 213.747 233.203 216.707C231.368 219.607 230.451 222.951 230.451 226.739C230.451 230.527 231.368 233.93 233.203 236.948C235.038 239.907 237.553 242.275 240.749 244.05C244.004 245.767 247.674 246.625 251.757 246.625ZM404.834 331.142V199.75H444.606V331.142H404.834ZM359.024 285.332V245.56H490.416V285.332H359.024Z" fill="#ffffff"/>
</svg>
