<svg width="996" height="471" viewBox="0 0 996 471" fill="none" xmlns="http://www.w3.org/2000/svg">
<path d="M0 50C0 22.3858 22.3858 0 50 0H946C973.614 0 996 22.3858 996 50V421C996 448.614 973.614 471 946 471H50C22.3858 471 0 448.614 0 421V50Z" fill=""/>
<path d="M209.94 152.01H301.971V172.87H233.875V203.32H279.225V224.18H233.875V258.2H304.07V279.06H209.94V152.01Z" fill="white"/>
<path d="M301.971 188.76H326.466L347.881 251.69L367.757 188.76H391.482L358.589 279.06H336.613L301.971 188.76Z" fill="white"/>
<path d="M392.252 234.12C392.252 206.54 411.358 187.08 438.722 187.08C465.877 187.08 485.053 206.61 485.053 234.12C485.053 261.28 465.527 280.81 438.162 280.81C411.008 280.81 392.252 261.63 392.252 234.12ZM460.978 234.68V233.91C460.978 216.69 452.579 206.33 438.792 206.33C424.795 206.33 416.397 216.69 416.397 233.91V234.68C416.397 251.55 424.585 261.49 438.372 261.49C452.369 261.49 460.978 251.48 460.978 234.68Z" fill="white"/>
<path d="M500.379 150.26H524.314V279.06H500.379V150.26Z" fill="white"/>
<path d="M542.44 242.87V188.76H566.165V241.54C566.165 253.58 571.904 260.65 582.612 260.65C595.069 260.65 600.248 250.15 600.248 234.61V188.76H623.973V279.06H600.248V266.25C595.489 275.63 587.231 280.81 575.543 280.81C555.108 280.81 542.44 266.25 542.44 242.87Z" fill="white"/>
<path d="M650.148 255.12V207.87H637.34V188.76H650.148V171.68L673.313 158.66V188.69H691.089V207.8H673.103V252.74C673.103 257.15 675.202 259.04 679.612 259.25H690.109V278.99H671.773C654.347 278.08 650.568 270.1 650.148 255.12Z" fill="white"/>
<path d="M706.416 152.36H731.121V175.53H706.416V152.36ZM706.766 188.76H730.701V279.06H706.766V188.76Z" fill="white"/>
<path d="M746.028 234.12C746.028 206.54 765.134 187.08 792.498 187.08C819.652 187.08 838.828 206.61 838.828 234.12C838.828 261.28 819.302 280.81 791.938 280.81C764.784 280.81 746.028 261.63 746.028 234.12ZM814.683 234.68V233.91C814.683 216.69 806.285 206.33 792.498 206.33C778.501 206.33 770.103 216.69 770.103 233.91V234.68C770.103 251.55 778.291 261.49 792.078 261.49C806.075 261.49 814.683 251.48 814.683 234.68Z" fill="white"/>
<path d="M853.945 188.76H877.67V203.46C882.429 192.96 891.247 186.8 904.054 186.8C923.79 186.8 935.408 200.03 935.408 224.88V279.06H911.683V226.28C911.683 213.68 906.924 207.17 895.796 207.17C884.529 207.17 877.6 216.34 877.6 233.21V279.13H853.875L853.945 188.76Z" fill="white"/>
<path d="M154.092 163.7C132.466 135.21 93.2045 127.16 60.5913 144.59C73.3286 173.22 82.8467 206.89 145.624 208.85C152.972 209.06 161.09 208.85 169.978 208.15C168.719 190.16 162.84 175.25 154.092 163.7Z" fill="white"/>
<path d="M142.544 222.29C104.752 224.18 87.0458 237.9 75.9881 254.91C69.4794 264.92 65.2803 275.98 60.5913 286.41C106.362 310.84 165.499 285.08 169.978 222.78C159.831 222.01 150.662 221.87 142.544 222.29Z" fill="white"/>
</svg>
