<svg width="26" height="23" viewBox="0 0 26 23" fill="none" xmlns="http://www.w3.org/2000/svg">
<path d="M24 12.0713C23.3352 11.2786 22.4939 10.6439 21.5332 10.2275C20.7429 9.88227 19.892 9.71 18.9805 9.70996C18.1138 9.70502 17.255 9.88098 16.459 10.2275C15.6849 10.5641 14.9797 11.0442 14.3799 11.6426C13.7841 12.2388 13.3067 12.9449 12.9736 13.7227C12.6236 14.5191 12.4458 15.3825 12.4531 16.2539C12.4531 17.1684 12.625 18.0179 12.9736 18.8096C13.0282 18.937 13.0883 19.062 13.1504 19.1855H3.07129C1.93286 19.1855 1.00023 18.2561 1 17.124V6.81738H24V12.0713ZM22.1367 1.01074C23.1802 1.11688 24 1.99996 24 3.06152V5.36328H1V3.06152C1.00005 1.92585 1.93275 1 3.07129 1H21.9258L22.1367 1.01074Z" fill="#fff"/>
<path d="M14.4372 14.3729C14.7171 13.719 15.1184 13.1255 15.6192 12.6243C16.1233 12.1214 16.7159 11.7182 17.3665 11.4354C18.0354 11.1441 18.7567 10.9959 19.4849 11.0001C20.2511 11.0001 20.9662 11.1452 21.6305 11.4354C22.9409 12.0033 23.9891 13.0533 24.5629 14.3729C24.8554 15.0427 25.0043 15.7676 24.9998 16.4998C25.0055 17.2389 24.8565 17.9708 24.5629 18.6476C24.2801 19.3031 23.877 19.8986 23.375 20.4024C22.8737 20.9036 22.2813 21.3022 21.6305 21.5761C20.9662 21.8606 20.251 21.9999 19.4849 21.9999C18.7577 22.005 18.037 21.8608 17.3665 21.5761C16.7148 21.3023 16.1215 20.9037 15.6192 20.4024C15.1189 19.8984 14.7178 19.3029 14.4372 18.6476C14.1441 17.9823 14.0002 17.2684 14.0002 16.4998C13.994 15.7674 14.143 15.0422 14.4372 14.3729ZM16.4052 19.0804C16.5674 18.632 16.8619 18.2447 17.2487 17.9709C17.6356 17.6971 18.0963 17.55 18.5686 17.5495V19.8853C18.5686 20.0103 18.6083 20.132 18.6818 20.2325C18.7554 20.333 18.8589 20.4069 18.9771 20.4435C19.0953 20.4801 19.222 20.4773 19.3385 20.4357C19.4551 20.394 19.5553 20.3157 19.6246 20.2121L22.8602 16.9447C22.9222 16.8926 22.9728 16.828 23.0087 16.755C23.0446 16.682 23.065 16.6022 23.0686 16.5207C23.0722 16.4392 23.059 16.3579 23.0297 16.2819C23.0004 16.2059 22.9558 16.137 22.8986 16.0795L19.536 12.6793L19.5329 12.6821C19.4273 12.5854 19.2895 12.5325 19.147 12.5338C18.9939 12.534 18.8471 12.5956 18.7388 12.705C18.6305 12.8145 18.5697 12.9629 18.5695 13.1177V14.8846C18.0863 14.8832 17.6119 15.0161 17.1984 15.2689C16.7849 15.5217 16.448 15.8845 16.2247 16.3178C16.0014 16.7511 15.9002 17.2381 15.9322 17.7256C15.9642 18.2131 16.1282 18.6823 16.4062 19.082L16.4052 19.0804Z" fill="#fffff"/>
<path d="M14.4372 14.3729C14.7171 13.719 15.1184 13.1255 15.6192 12.6243C16.1233 12.1214 16.7159 11.7182 17.3665 11.4354C18.0354 11.1441 18.7567 10.9959 19.4849 11.0001C20.2511 11.0001 20.9662 11.1452 21.6305 11.4354C22.9409 12.0033 23.9891 13.0533 24.5629 14.3729C24.8554 15.0427 25.0043 15.7676 24.9998 16.4998C25.0055 17.2389 24.8565 17.9708 24.5629 18.6476C24.2801 19.3031 23.877 19.8986 23.375 20.4024C22.8737 20.9036 22.2813 21.3022 21.6305 21.5761C20.9662 21.8606 20.251 21.9999 19.4849 21.9999C18.7577 22.005 18.037 21.8608 17.3665 21.5761C16.7148 21.3023 16.1215 20.9037 15.6192 20.4024C15.1189 19.8984 14.7178 19.3029 14.4372 18.6476C14.1441 17.9823 14.0002 17.2684 14.0002 16.4998C13.994 15.7674 14.143 15.0422 14.4372 14.3729ZM16.4052 19.0804C16.5674 18.632 16.8619 18.2447 17.2487 17.9709C17.6356 17.6971 18.0963 17.55 18.5686 17.5495V19.8853C18.5686 20.0103 18.6083 20.132 18.6818 20.2325C18.7554 20.333 18.8589 20.4069 18.9771 20.4435C19.0953 20.4801 19.222 20.4773 19.3385 20.4357C19.4551 20.394 19.5553 20.3157 19.6246 20.2121L22.8602 16.9447C22.9222 16.8926 22.9728 16.828 23.0087 16.755C23.0446 16.682 23.065 16.6022 23.0686 16.5207C23.0722 16.4392 23.059 16.3579 23.0297 16.2819C23.0004 16.2059 22.9558 16.137 22.8986 16.0795L19.536 12.6793L19.5329 12.6821C19.4273 12.5854 19.2895 12.5325 19.147 12.5338C18.9939 12.534 18.8471 12.5956 18.7388 12.705C18.6305 12.8145 18.5697 12.9629 18.5695 13.1177V14.8846C18.0863 14.8832 17.6119 15.0161 17.1984 15.2689C16.7849 15.5217 16.448 15.8845 16.2247 16.3178C16.0014 16.7511 15.9002 17.2381 15.9322 17.7256C15.9642 18.2131 16.1282 18.6823 16.4062 19.082L16.4052 19.0804Z" fill="#ffff"/>
</svg>
