<svg width="29" height="22" viewBox="0 0 29 22" fill="none" xmlns="http://www.w3.org/2000/svg">
<path d="M14.1567 4.28253C9.47521 4.28253 5.69472 8.08873 5.69472 12.7666C5.69472 17.4445 9.47521 21.2507 14.1311 21.2507C17.9244 21.2507 21.1261 18.7256 22.2067 15.2669C21.4211 15.591 20.6115 15.8268 19.7505 16.0377C18.7084 16.275 17.6166 16.4363 16.4847 16.5356C16.3734 16.8051 16.1819 17.0366 15.9344 17.2007C15.6869 17.3647 15.3946 17.4539 15.0946 17.4569H13.4128C12.5887 17.4569 11.8945 16.7729 11.8945 15.926C11.8945 15.0807 12.5759 14.3967 13.4128 14.3967H15.0962C15.675 14.3967 16.1768 14.7193 16.435 15.1924C17.4578 15.1187 18.4728 14.9646 19.4699 14.7318C20.5294 14.4826 21.5593 14.1281 22.5434 13.674C22.569 13.3886 22.5947 13.0644 22.5947 12.7542C22.5947 8.08873 18.8142 4.28253 14.1583 4.28253H14.1567ZM26.3094 9.28302H25.9359C25.3613 7.33818 24.3065 5.55765 22.8624 4.09486C20.6644 1.86914 17.6037 0.487183 14.2209 0.487183C10.838 0.487183 7.79178 1.86759 5.57928 4.09486C4.1275 5.55384 3.06826 7.3354 2.49461 9.28302H2.06975C1.08054 9.28302 0.269287 10.1051 0.269287 11.0993V13.9221C0.269287 14.9194 1.08054 15.7399 2.06975 15.7399H4.43456V9.53273C4.93248 8.0103 5.79113 6.62143 6.94206 5.47682C7.8772 4.51229 9.00657 3.7432 10.2606 3.21691C11.5146 2.69062 12.8667 2.41827 14.2337 2.41665C15.6015 2.41718 16.9548 2.68775 18.2108 3.2118C19.4668 3.73585 20.599 4.50236 21.5381 5.46441C22.6322 6.56323 23.4583 7.88492 23.9559 9.33265V15.7523H26.2966C27.2858 15.7523 28.0971 14.9303 28.0971 13.9361V11.0993C28.1099 10.1035 27.2858 9.28457 26.3094 9.28457V9.28302Z" fill=""/>
</svg>
