<svg width="24" height="24" viewBox="0 0 24 24" fill="none" xmlns="http://www.w3.org/2000/svg">
<path d="M5.39029 12C5.39029 12.868 5.56126 13.7275 5.89343 14.5294C6.2256 15.3314 6.71247 16.06 7.32624 16.6738C7.94001 17.2876 8.66866 17.7744 9.47059 18.1066C10.2725 18.4388 11.132 18.6097 12 18.6097C12.868 18.6097 13.7275 18.4388 14.5295 18.1066C15.3314 17.7744 16.0601 17.2876 16.6738 16.6738C17.2876 16.06 17.7745 15.3314 18.1066 14.5294C18.4388 13.7275 18.6098 12.868 18.6098 12C18.6098 10.247 17.9134 8.56577 16.6738 7.32621C15.4343 6.08664 13.753 5.39026 12 5.39026C10.247 5.39026 8.5658 6.08664 7.32624 7.32621C6.08667 8.56577 5.39029 10.247 5.39029 12Z" fill="#fff"/>
<path d="M12 1.18832C13.4198 1.18832 14.8257 1.46798 16.1375 2.01131C17.4492 2.55465 18.6411 3.35104 19.645 4.35499C20.649 5.35895 21.4454 6.55082 21.9887 7.86256C22.532 9.17429 22.8117 10.5802 22.8117 12C22.8117 13.4198 22.532 14.8257 21.9887 16.1375C21.4454 17.4492 20.649 18.6411 19.645 19.645C18.6411 20.649 17.4492 21.4454 16.1375 21.9887C14.8257 22.532 13.4198 22.8117 12 22.8117C9.13257 22.8117 6.38258 21.6726 4.35499 19.645C2.32741 17.6174 1.18832 14.8674 1.18832 12C1.18832 9.13257 2.32741 6.38258 4.35499 4.35499C6.38258 2.32741 9.13257 1.18832 12 1.18832ZM12 2.94157C9.59756 2.94157 7.29351 3.89594 5.59473 5.59473C3.89594 7.29351 2.94157 9.59756 2.94157 12C2.94157 14.4025 3.89594 16.7065 5.59473 18.4053C7.29351 20.1041 9.59756 21.0585 12 21.0585C14.4025 21.0585 16.7065 20.1041 18.4053 18.4053C20.1041 16.7065 21.0585 14.4025 21.0585 12C21.0585 9.59756 20.1041 7.29351 18.4053 5.59473C16.7065 3.89594 14.4025 2.94157 12 2.94157Z" fill="#ffff"/>
</svg>
