<svg width="28" height="28" viewBox="0 0 28 28" fill="none" xmlns="http://www.w3.org/2000/svg">
<path d="M6.3219 8.15117C6.3219 8.82661 6.45494 9.49543 6.71341 10.1194C6.97189 10.7435 7.35075 11.3105 7.82835 11.7881C8.30596 12.2657 8.87296 12.6445 9.49698 12.903C10.121 13.1615 10.7898 13.2945 11.4653 13.2945C12.1407 13.2945 12.8095 13.1615 13.4335 12.903C14.0576 12.6445 14.6246 12.2657 15.1022 11.7881C15.5798 11.3105 15.9586 10.7435 16.2171 10.1194C16.4756 9.49543 16.6086 8.82661 16.6086 8.15117C16.6086 7.47574 16.4756 6.80691 16.2171 6.18289C15.9586 5.55887 15.5798 4.99187 15.1022 4.51427C14.6246 4.03666 14.0576 3.65781 13.4335 3.39933C12.8095 3.14085 12.1407 3.00781 11.4653 3.00781C10.7898 3.00781 10.121 3.14085 9.49698 3.39933C8.87296 3.65781 8.30596 4.03666 7.82835 4.51427C7.35075 4.99187 6.97189 5.55887 6.71341 6.18289C6.45494 6.80691 6.3219 7.47574 6.3219 8.15117Z" fill="#FFFF"/>
<path d="M13.0239 19.641C11.8836 18.8125 12.4743 17.0105 13.8797 17.0105H16.904C17.3497 17.0105 17.7461 16.759 17.9403 16.3762C16.9942 15.184 15.5313 14.4211 13.8934 14.4211H7.84497C4.98755 14.4211 2.677 16.7344 2.677 19.5891V21.6809C2.677 23.2422 3.94028 24.5055 5.50161 24.5055H15.3208L15.8977 22.7172C16.0536 22.2387 15.884 21.7137 15.4766 21.4156L13.0239 19.641Z" fill="#FFFF"/>
<path d="M25.1289 19.5918C25.5828 19.2609 25.3503 18.5418 24.7871 18.5418H22.2222C21.9707 18.5418 21.7492 18.3805 21.6699 18.1398L20.8769 15.698C20.7046 15.1648 19.9472 15.1648 19.775 15.698L18.982 18.1398C18.9054 18.3777 18.6812 18.5418 18.4296 18.5418H15.8648C15.3043 18.5418 15.0691 19.2609 15.523 19.5918L17.5984 21.1012C17.8007 21.2488 17.8855 21.5113 17.8089 21.7492L17.016 24.191C16.8437 24.7242 17.4535 25.1699 17.9074 24.8391L19.9828 23.3297C20.1851 23.182 20.4613 23.182 20.6636 23.3297L22.739 24.8391C23.1929 25.1699 23.8054 24.7242 23.6304 24.191L22.8375 21.7492C22.7609 21.5113 22.8457 21.2488 23.048 21.1012L25.1289 19.5918Z" fill="#2F9A3E"/>
</svg>
