<svg width="996" height="471" viewBox="0 0 996 471" fill="none" xmlns="http://www.w3.org/2000/svg">
<rect width="996" height="471" rx="50" fill=""/>
<path d="M376.559 223.729C374.686 215.635 369.985 208.476 363.302 203.541C356.623 198.609 348.265 196.143 338.228 196.143C330.648 195.986 323.164 197.86 316.552 201.571C310.368 205.136 305.336 210.4 302.052 216.737C298.674 223.674 296.918 231.289 296.918 239.005C296.918 246.721 298.674 254.336 302.052 261.274C305.35 267.637 310.404 272.922 316.613 276.501C323.235 280.25 330.744 282.147 338.352 281.991C345.133 282.116 351.84 280.559 357.874 277.461C363.372 274.604 368.085 270.44 371.599 265.336C375.062 260.279 377.327 254.499 378.221 248.435V235.423H335.84V245.456H366.798C365.756 253.022 362.732 258.972 357.726 263.305C352.752 267.666 346.332 270.018 339.718 269.903C334.449 269.998 329.245 268.726 324.614 266.21C320.273 263.777 316.762 260.098 314.533 255.648C312.02 250.482 310.792 244.785 310.951 239.042C310.79 233.491 311.977 227.983 314.41 222.99C316.598 218.624 319.995 214.98 324.196 212.49C328.49 209.993 333.385 208.716 338.352 208.797C343.595 208.663 348.763 210.076 353.209 212.859C357.288 215.44 360.446 219.244 362.231 223.729H376.559Z" fill="white"/>
<path d="M474.344 281.154V198.174H457.862L430.88 264.437L403.418 198.174H386.948V281.154H400.55V218.953L424.676 281.154H436.616L460.607 218.953V281.154H474.344Z" fill="white"/>
<path d="M620.245 207.837V196.857H559.597V207.837H582.985V281.154H596.722V207.837H620.245Z" fill="white"/>
<path d="M641.133 281.154V196.857H627.532V281.154H641.133Z" fill="white"/>
<path d="M732 225.28C729.942 216.789 725.059 209.249 718.152 203.898C711.3 198.646 702.704 196.016 692.364 196.007C684.949 195.866 677.638 197.765 671.229 201.498C665.141 205.117 660.213 210.4 657.025 216.725C653.718 223.682 652.002 231.289 652.002 238.993C652.002 246.697 653.718 254.304 657.025 261.261C660.201 267.579 665.134 272.844 671.229 276.427C677.649 280.127 684.956 282.008 692.364 281.868C702.712 281.868 711.308 279.258 718.152 274.039C725.067 268.727 729.954 261.207 732 252.731H717.549C715.677 257.602 712.367 261.788 708.059 264.733C703.331 267.826 697.765 269.386 692.118 269.201C687.381 269.278 682.721 267.996 678.689 265.508C674.654 262.926 671.425 259.262 669.371 254.934C667.131 249.896 665.974 244.445 665.974 238.932C665.974 233.418 667.131 227.967 669.371 222.929C671.429 218.607 674.657 214.948 678.689 212.367C682.721 209.88 687.381 208.599 692.118 208.674C697.766 208.493 703.332 210.058 708.059 213.155C712.391 216.128 715.704 220.361 717.549 225.28H732Z" fill="white"/>
<path fill-rule="evenodd" clip-rule="evenodd" d="M273.519 262.886H237.933L231.483 281.154H216.921L247.965 198.174H263.61L294.531 281.154H279.957L273.519 262.886ZM255.72 212.995L269.691 252.386H241.749L255.72 212.995Z" fill="white"/>
<path fill-rule="evenodd" clip-rule="evenodd" d="M196.143 281.154L175.131 247.487H165.456V281.154H151.842V196.857H181.581C191.207 196.857 198.511 199.204 203.492 203.898C208.473 208.592 210.959 214.804 210.951 222.535C210.951 229.1 209.101 234.512 205.4 238.772C201.699 243.031 196.365 245.735 189.398 246.884L211.554 281.154H196.143ZM180.474 237.811H165.456V208.563H180.474C186.136 208.563 190.284 209.856 192.955 212.441C195.622 215.034 196.956 218.637 196.956 223.249C196.964 232.957 191.47 237.811 180.474 237.811Z" fill="white"/>
<path fill-rule="evenodd" clip-rule="evenodd" d="M95.614 248.435V281.154H82V196.857H110.656C120.372 196.857 127.675 199.167 132.566 203.787C137.457 208.407 139.919 214.735 139.952 222.769C139.952 230.737 137.445 237.007 132.431 241.578C127.417 246.149 120.175 248.435 110.705 248.435H95.614ZM122.054 211.838C124.721 214.349 126.055 217.993 126.055 222.769C126.046 232.477 120.438 237.331 109.228 237.331H95.614V208.083H109.228C115.112 208.075 119.387 209.327 122.054 211.838Z" fill="white"/>
<path fill-rule="evenodd" clip-rule="evenodd" d="M540.961 262.886H505.437L498.987 281.154H484.376L515.419 198.174H531.052L561.985 281.154H547.411L540.961 262.886ZM523.174 212.995L537.145 252.386H509.203L523.174 212.995Z" fill="white"/>
<path d="M846.12 181.066C818.92 182.738 831.133 217.779 861.204 215.929C890.619 214.121 875.101 179.285 846.12 181.066Z" fill="#F19021"/>
<path d="M835 159.333C817.793 159.333 800.972 164.426 786.665 173.967C772.358 183.509 761.207 197.07 754.622 212.937C748.038 228.804 746.315 246.263 749.672 263.107C753.029 279.951 761.315 295.423 773.482 307.567C785.649 319.711 801.151 327.981 818.027 331.331C834.904 334.682 852.396 332.962 868.293 326.39C884.191 319.818 897.778 308.688 907.338 294.409C916.898 280.129 922 263.341 922 246.167C922 223.137 912.834 201.05 896.518 184.766C880.203 168.482 858.074 159.333 835 159.333ZM835 323.9C819.6 323.902 804.545 319.347 791.739 310.809C778.933 302.272 768.951 290.136 763.056 275.936C757.16 261.736 755.616 246.11 758.619 231.034C761.622 215.959 769.036 202.111 779.925 191.241C790.814 180.371 804.687 172.968 819.791 169.969C834.895 166.969 850.551 168.507 864.779 174.389C879.008 180.27 891.169 190.231 899.725 203.011C908.281 215.791 912.848 230.816 912.848 246.187C912.848 266.795 904.647 286.56 890.048 301.133C875.449 315.707 855.648 323.896 835 323.9ZM832.376 98.7138C811.722 114.296 815.312 138.192 815.312 138.192C815.312 138.192 802.33 104.56 785.472 84C783.197 110.467 791.507 145.535 791.507 145.535C791.507 145.535 780.95 123.793 755.083 122.576C776.539 134.883 784.862 157.056 786.766 163.005C799.552 155.127 814.174 150.711 829.191 150.192C827.499 144.653 821.484 121.318 832.376 98.7138Z" fill="#F19021"/>
<path d="M775.556 254.757V273H768V226H783.918C789.307 226 793.364 227.288 796.09 229.864C798.816 232.44 800.183 235.968 800.192 240.447C800.192 244.89 798.8 248.386 796.014 250.934C793.229 253.483 789.206 254.757 783.946 254.757H775.556ZM792.493 240.447C792.493 237.784 791.752 235.753 790.271 234.353C788.789 232.953 786.412 232.255 783.139 232.259H775.556V248.567H783.118C789.368 248.567 792.493 245.86 792.493 240.447ZM813.164 267.077H829.349V273H805.601V226H813.164V267.077ZM863.968 262.815H844.207L840.624 273H832.528L849.78 226.734H858.464L875.647 273H867.551L863.968 262.815ZM861.848 256.96L854.088 234.998L846.327 256.96H861.848ZM906 226L890.417 255.89V273H882.806V255.89L867.155 226H875.914L886.663 247.77L897.405 226H906Z" fill="white"/>
</svg>
