<svg width="32" height="32" viewBox="0 0 32 32" fill="none" xmlns="http://www.w3.org/2000/svg">
<path d="M26.5068 5.2002C27.0603 5.2002 27.5151 5.60936 27.5889 6.14355L27.5986 6.29102V12.835C27.5986 13.3886 27.1887 13.8434 26.6543 13.917L26.5068 13.9268H24.5791L27.5596 24.7266C27.6009 24.8762 27.61 25.0331 27.5859 25.1865C27.5618 25.3399 27.5051 25.4865 27.4199 25.6162C27.3347 25.7459 27.2229 25.8565 27.0918 25.9395C26.9606 26.0225 26.8129 26.0762 26.6592 26.0977L26.5068 26.1074H4.69141C4.53626 26.1074 4.38253 26.0738 4.24121 26.0098C4.10015 25.9458 3.97431 25.8527 3.87207 25.7363C3.76973 25.6198 3.69265 25.4824 3.64746 25.334C3.60227 25.1856 3.58936 25.0289 3.60938 24.875L3.63965 24.7266L6.61914 13.9268H4.69141C4.4277 13.9269 4.17246 13.8314 3.97363 13.6582C3.77488 13.485 3.6454 13.2455 3.60938 12.9844L3.59961 12.835V6.29102C3.5997 5.73913 4.00966 5.2836 4.54395 5.20996L4.69141 5.2002H26.5068ZM15.2402 11.3203C15.089 11.3204 14.9668 11.4435 14.9668 11.5947V12.3877C13.5568 12.5327 12.1924 13.3505 12.1924 14.958C12.1924 16.5755 13.5254 17.0626 14.7754 17.3926C14.9666 17.4438 15.1592 17.4921 15.3467 17.5371C16.4516 17.8083 17.4941 18.0632 17.4941 18.9619C17.4941 20.0855 16.0906 20.1728 15.6592 20.1729C14.4029 20.1729 13.6361 19.5589 13.5898 18.5264H11.8955C11.9068 19.3064 12.1656 19.9572 12.6631 20.4609C13.1981 21.002 14.018 21.3518 14.9678 21.458V22.2354C14.9678 22.3865 15.0901 22.5096 15.2412 22.5098H15.9258C16.0768 22.5095 16.1992 22.3864 16.1992 22.2354V21.4639C18.0604 21.2851 19.1904 20.2738 19.1904 18.7363C19.1901 16.8705 17.4451 16.4423 16.7002 16.2598L16.4229 16.1895C14.3257 15.6508 13.8888 15.5393 13.8887 14.7959C13.8887 13.9759 14.6694 13.6846 15.3369 13.6846C16.4917 13.6847 17.0995 14.1261 17.1895 15.0322H18.8906C18.8369 13.1212 17.2757 12.5703 16.1982 12.4189V11.5947C16.1982 11.4435 16.0751 11.3203 15.9238 11.3203H15.2402ZM5.78125 11.7441L7.2207 11.7422L7.91016 9.58887C7.96629 9.38545 8.08039 9.2025 8.23828 9.0625C8.39613 8.92255 8.5912 8.83121 8.7998 8.7998L8.95996 8.78711L22.291 8.7998C22.7278 8.7998 23.1172 9.05891 23.29 9.44922L23.3428 9.60156L23.9775 11.7422H25.418V7.38281H5.78125V11.7441Z" fill="#FFFF"/>
</svg>
