<svg width="996" height="471" viewBox="0 0 996 471" fill="none" xmlns="http://www.w3.org/2000/svg">
<path d="M0 50C0 22.3858 22.3858 0 50 0H946C973.614 0 996 22.3858 996 50V421C996 448.614 973.614 471 946 471H50C22.3858 471 0 448.614 0 421V50Z" fill=""/>
<g clip-path="url(#clip0_68_140)">
<path opacity="0.873" fill-rule="evenodd" clip-rule="evenodd" d="M172.149 143.208C185.347 143.208 198.545 143.208 211.742 143.208C208.539 146.247 208.011 149.678 210.158 153.5C208.764 154.622 207.708 155.941 206.991 157.458C204.399 154.583 202.023 151.416 199.864 147.958C199.336 148.486 198.808 149.014 198.281 149.542C193.589 172.287 187.518 194.454 180.068 216.042C179.118 203.416 178.59 190.749 178.484 178.042C178.516 166.845 179.572 156.026 181.652 145.583C178.155 145.281 174.988 144.49 172.149 143.208Z" fill="#FFC403"/>
<path opacity="0.939" fill-rule="evenodd" clip-rule="evenodd" d="M211.742 143.208C221.244 143.208 230.747 143.208 240.249 143.208C239.126 144.64 237.542 145.168 235.498 144.792C235.498 153.236 235.498 161.681 235.498 170.125C229.163 170.125 222.828 170.125 216.493 170.125C213.326 165.903 210.158 161.681 206.991 157.458C207.708 155.941 208.764 154.622 210.158 153.5C208.011 149.678 208.539 146.247 211.742 143.208Z" fill="#FFB30A"/>
<path opacity="0.952" fill-rule="evenodd" clip-rule="evenodd" d="M138.891 143.208C149.977 143.208 161.063 143.208 172.149 143.208C174.988 144.49 178.155 145.281 181.652 145.583C179.572 156.026 178.516 166.845 178.484 178.042C178.59 190.749 179.118 203.416 180.068 216.042C174.618 242.159 168.02 268.02 160.272 293.625C159.308 296.105 157.989 298.216 156.312 299.958C155.028 267.304 154.236 234.582 153.937 201.792C153.331 200.911 152.539 200.384 151.561 200.208C153.417 191.459 155.529 182.751 157.896 174.083C152.206 163.771 145.343 154.271 137.308 145.583C138.188 144.978 138.716 144.186 138.891 143.208Z" fill="#FFCB01"/>
<path opacity="0.987" fill-rule="evenodd" clip-rule="evenodd" d="M240.249 143.208C245.527 143.208 250.807 143.208 256.086 143.208C256.574 152.59 256.046 161.827 254.502 170.917C255.953 171.358 257.008 172.149 257.67 173.292C255.03 173.292 252.391 173.292 249.751 173.292C239.49 171.723 228.932 171.195 218.077 171.708C217.021 171.708 216.493 171.181 216.493 170.125C222.828 170.125 229.163 170.125 235.498 170.125C235.498 161.681 235.498 153.236 235.498 144.792C237.542 145.168 239.126 144.64 240.249 143.208Z" fill="#FDA80D"/>
<path opacity="0.987" fill-rule="evenodd" clip-rule="evenodd" d="M256.086 143.208C262.948 143.208 269.812 143.208 276.674 143.208C279.842 144.264 283.009 145.32 286.176 146.375C286.566 155.969 286.039 165.469 284.593 174.875C275.714 173.439 266.74 172.912 257.67 173.292C257.008 172.149 255.953 171.358 254.502 170.917C256.046 161.827 256.574 152.59 256.086 143.208Z" fill="#FE9813"/>
<path opacity="0.932" fill-rule="evenodd" clip-rule="evenodd" d="M352.692 143.208C359.555 143.208 366.418 143.208 373.281 143.208C375.871 153.561 375.344 163.589 371.697 173.292C364.835 173.292 357.971 173.292 351.109 173.292C348.63 163.055 349.159 153.027 352.692 143.208Z" fill="#FE522C"/>
<path fill-rule="evenodd" clip-rule="evenodd" d="M276.674 143.208C289.871 143.208 303.07 143.208 316.267 143.208C319.333 145.766 320.917 149.197 321.018 153.5C320.909 156.644 319.854 159.019 317.851 160.625C308.876 152.446 298.317 147.696 286.176 146.375C283.009 145.32 279.842 144.264 276.674 143.208Z" fill="#BC5D16"/>
<path opacity="0.996" fill-rule="evenodd" clip-rule="evenodd" d="M316.267 143.208C321.545 143.208 326.826 143.208 332.104 143.208C332.766 144.351 333.821 145.143 335.271 145.583C333.727 154.674 333.2 163.91 333.688 173.292C332.631 173.292 331.577 173.292 330.52 173.292C326.917 172.324 324.279 170.213 322.602 166.958C321.018 164.847 319.434 162.736 317.851 160.625C319.854 159.019 320.909 156.644 321.018 153.5C320.917 149.197 319.333 145.766 316.267 143.208Z" fill="#DF631E"/>
<path opacity="0.878" fill-rule="evenodd" clip-rule="evenodd" d="M332.104 143.208C338.966 143.208 345.83 143.208 352.692 143.208C349.159 153.027 348.63 163.055 351.109 173.292C345.301 173.292 339.495 173.292 333.688 173.292C333.2 163.91 333.727 154.674 335.271 145.583C333.821 145.143 332.766 144.351 332.104 143.208Z" fill="#F26123"/>
<path opacity="0.98" fill-rule="evenodd" clip-rule="evenodd" d="M373.281 143.208C375.921 143.208 378.559 143.208 381.199 143.208C386.587 145.005 391.865 147.116 397.036 149.542C395.967 189.979 394.911 230.618 393.869 271.458C394.065 272.419 394.593 272.947 395.453 273.042C393.221 276.077 390.581 278.98 387.534 281.75C381.028 285.531 374.166 288.434 366.946 290.458C367.932 279.764 366.876 269.736 363.778 260.375C369.986 258.131 374.473 253.909 377.24 247.708C378.204 243.647 377.412 239.953 374.864 236.625C375.004 225.347 375.004 213.736 374.864 201.792C386.663 194.703 388.247 185.994 379.615 175.667C377.2 174.07 374.56 173.278 371.697 173.292C375.344 163.589 375.872 153.561 373.281 143.208Z" fill="#FF4032"/>
<path opacity="0.971" fill-rule="evenodd" clip-rule="evenodd" d="M397.036 149.542C415.42 161.12 421.49 177.481 415.249 198.625C411.697 206.128 407.208 212.989 401.787 219.208C409.256 233.525 410.048 248.302 404.163 263.542C402.055 267.494 399.152 270.66 395.452 273.042C394.593 272.947 394.065 272.419 393.869 271.458C394.911 230.617 395.967 189.979 397.036 149.542Z" fill="#FF3136"/>
<path opacity="0.957" fill-rule="evenodd" clip-rule="evenodd" d="M286.176 146.375C298.317 147.696 308.876 152.446 317.851 160.625C319.434 162.736 321.018 164.847 322.602 166.958C320.491 192.292 320.491 217.625 322.602 242.958C320.111 249.523 316.414 255.329 311.516 260.375C310.656 260.47 310.129 260.998 309.932 261.958C313.484 263.501 317.179 264.029 321.018 263.542C321.018 273.042 321.018 282.542 321.018 292.042C315.211 292.042 309.405 292.042 303.597 292.042C304.125 269.323 303.596 246.628 302.014 223.958C300.932 224.533 299.876 225.06 298.846 225.542C303.342 214.377 304.663 202.766 302.805 190.708C299.438 182.329 293.368 177.052 284.593 174.875C286.039 165.469 286.566 155.969 286.176 146.375Z" fill="#FE7E1C"/>
<path opacity="0.93" fill-rule="evenodd" clip-rule="evenodd" d="M322.602 166.958C324.279 170.213 326.917 172.324 330.52 173.292C333.876 183.022 335.46 193.049 335.272 203.375C339.495 203.375 343.717 203.375 347.941 203.375C344.954 212.413 343.898 221.913 344.774 231.875C339.468 231.614 334.19 231.878 328.937 232.667C326.363 235.984 324.252 239.414 322.602 242.959C320.491 217.625 320.491 192.292 322.602 166.958Z" fill="#FE6D21"/>
<path fill-rule="evenodd" clip-rule="evenodd" d="M218.077 171.708C228.932 171.195 239.49 171.723 249.751 173.292C248.593 181.111 246.481 188.5 243.416 195.458C236.112 191.273 228.721 187.051 221.244 182.792C219.336 181.086 218.28 178.975 218.077 176.458C218.077 174.875 218.077 173.292 218.077 171.708Z" fill="#C6880B"/>
<path opacity="0.936" fill-rule="evenodd" clip-rule="evenodd" d="M151.561 200.208C152.539 200.384 153.331 200.911 153.937 201.792C154.236 234.582 155.028 267.304 156.312 299.958C148.038 317.814 134.312 328.897 115.136 333.208C104.05 333.208 92.9638 333.208 81.8778 333.208C78.0925 330.802 73.8693 329.219 69.2081 328.458C69.2081 326.348 69.2081 324.236 69.2081 322.125C76.3552 315.234 82.69 307.582 88.2127 299.167C95.1784 302.166 102.569 303.222 110.385 302.333C116.31 299.582 121.325 295.623 125.43 290.458C134.676 260.371 143.386 230.288 151.561 200.208Z" fill="#FFD000"/>
<path opacity="0.981" fill-rule="evenodd" clip-rule="evenodd" d="M374.864 201.792C375.004 213.735 375.004 225.346 374.864 236.625C365.332 232.525 355.301 230.942 344.774 231.875C343.898 221.912 344.954 212.412 347.941 203.375C356.987 203.671 365.962 203.143 374.864 201.792Z" fill="#FF552B"/>
<path fill-rule="evenodd" clip-rule="evenodd" d="M218.077 176.458C218.28 178.976 219.336 181.087 221.244 182.792C228.721 187.052 236.112 191.274 243.416 195.458C241.365 206.321 238.727 216.877 235.498 227.125C233.231 227.728 231.912 229.311 231.538 231.875C229.616 223.441 226.185 215.788 221.244 208.917C223.884 208.389 226.523 207.861 229.163 207.333C224.035 201.406 218.228 196.392 211.742 192.292C213.924 186.898 216.036 181.621 218.077 176.458Z" fill="#EFA50C"/>
<path opacity="0.969" fill-rule="evenodd" clip-rule="evenodd" d="M211.742 192.292C218.228 196.392 224.035 201.406 229.163 207.333C226.523 207.861 223.884 208.389 221.244 208.917C226.185 215.788 229.616 223.441 231.538 231.875C231.912 229.311 233.231 227.728 235.498 227.125C233.428 238.794 230.26 250.141 225.995 261.167C230.718 261.955 235.469 262.219 240.249 261.958C239.126 263.39 237.542 263.917 235.498 263.542C235.498 273.042 235.498 282.542 235.498 292.042C227.051 292.042 218.605 292.042 210.158 292.042C209.389 267.878 207.805 244.656 205.407 222.375C207.525 212.334 209.637 202.306 211.742 192.292Z" fill="#FCB30A"/>
<path opacity="0.981" fill-rule="evenodd" clip-rule="evenodd" d="M303.597 292.042C297.262 292.042 290.928 292.042 284.593 292.042C286.13 277.925 286.658 263.675 286.176 249.292C284.593 249.292 283.009 249.292 281.425 249.292C284.531 245.391 287.963 241.697 291.719 238.208C293.867 233.729 296.242 229.507 298.846 225.542C299.876 225.061 300.932 224.533 302.014 223.958C303.596 246.629 304.125 269.323 303.597 292.042Z" fill="#FF8719"/>
<path opacity="0.948" fill-rule="evenodd" clip-rule="evenodd" d="M205.407 222.375C207.805 244.656 209.389 267.878 210.158 292.042C202.24 292.042 194.321 292.042 186.403 292.042C191.358 268.263 197.693 245.041 205.407 222.375Z" fill="#FEBE07"/>
<path opacity="0.979" fill-rule="evenodd" clip-rule="evenodd" d="M281.425 249.292C283.009 249.292 284.593 249.292 286.176 249.292C286.658 263.674 286.131 277.924 284.593 292.042C277.731 292.042 270.867 292.042 264.005 292.042C265.531 280.568 266.059 268.957 265.588 257.208C270.841 254.616 276.12 251.977 281.425 249.292Z" fill="#FF9614"/>
<path opacity="0.963" fill-rule="evenodd" clip-rule="evenodd" d="M265.588 257.208C266.059 268.957 265.531 280.569 264.005 292.042C254.502 292.042 245 292.042 235.498 292.042C235.498 282.542 235.498 273.042 235.498 263.542C237.542 263.918 239.126 263.39 240.249 261.958C249.113 262.38 257.559 260.796 265.588 257.208Z" fill="#FFA50F"/>
<path opacity="0.932" fill-rule="evenodd" clip-rule="evenodd" d="M311.516 260.375C321.248 261.943 331.277 262.471 341.606 261.958C343.572 272.124 345.683 282.152 347.941 292.042C338.966 292.042 329.993 292.042 321.018 292.042C321.018 282.542 321.018 273.042 321.018 263.542C317.179 264.029 313.484 263.501 309.932 261.958C310.129 260.998 310.656 260.47 311.516 260.375Z" fill="#FF6A23"/>
<path opacity="0.935" fill-rule="evenodd" clip-rule="evenodd" d="M363.778 260.375C366.876 269.736 367.932 279.763 366.946 290.458C360.715 291.82 354.381 292.347 347.941 292.042C345.683 282.152 343.572 272.124 341.606 261.958C349.15 262.393 356.541 261.865 363.778 260.375Z" fill="#FF5929"/>
<path opacity="0.01" fill-rule="evenodd" clip-rule="evenodd" d="M419.208 323.708C419.208 324.765 419.208 325.819 419.208 326.875C417.097 325.819 417.097 324.765 419.208 323.708Z" fill="#FF66FF"/>
</g>
<path d="M471.24 202.64C466.28 202.64 462.28 201.2 459.24 198.32C456.253 195.44 454.76 191.653 454.76 186.96V180.96C454.76 180.427 455.027 180.16 455.56 180.16H461.64C462.173 180.16 462.44 180.427 462.44 180.96V187.04C462.44 189.707 463.24 191.867 464.84 193.52C466.493 195.173 468.627 196 471.24 196C473.907 196 476.04 195.173 477.64 193.52C479.293 191.867 480.12 189.707 480.12 187.04V146.8C480.12 146.267 480.387 146 480.92 146H487C487.533 146 487.8 146.267 487.8 146.8V186.96C487.8 190.053 487.107 192.8 485.72 195.2C484.333 197.547 482.387 199.387 479.88 200.72C477.373 202 474.493 202.64 471.24 202.64ZM531.787 162.08C531.787 161.547 532.054 161.28 532.587 161.28H538.667C539.2 161.28 539.467 161.547 539.467 162.08V201.2C539.467 201.733 539.2 202 538.667 202H532.587C532.054 202 531.787 201.733 531.787 201.2V198.72C531.787 198.613 531.734 198.533 531.627 198.48C531.574 198.427 531.494 198.453 531.387 198.56C529.52 201.227 526.587 202.56 522.587 202.56C518.96 202.56 515.947 201.493 513.547 199.36C511.2 197.227 510.027 194.133 510.027 190.08V162.08C510.027 161.547 510.294 161.28 510.827 161.28H516.827C517.36 161.28 517.627 161.547 517.627 162.08V188C517.627 190.507 518.214 192.453 519.387 193.84C520.614 195.227 522.347 195.92 524.587 195.92C526.774 195.92 528.507 195.2 529.787 193.76C531.12 192.267 531.787 190.267 531.787 187.76V162.08ZM574.215 202.48C569.842 202.48 566.322 201.467 563.655 199.44C561.042 197.413 559.735 194.8 559.735 191.6V190.8C559.735 190.267 560.002 190 560.535 190H566.215C566.748 190 567.015 190.267 567.015 190.8V191.28C567.015 192.72 567.708 193.973 569.095 195.04C570.482 196.107 572.188 196.64 574.215 196.64C576.242 196.64 577.868 196.133 579.095 195.12C580.375 194.107 581.015 192.853 581.015 191.36C581.015 190.187 580.642 189.227 579.895 188.48C579.202 187.733 578.322 187.147 577.255 186.72C576.242 186.24 574.722 185.653 572.695 184.96C570.188 184.16 568.055 183.333 566.295 182.48C564.588 181.573 563.122 180.32 561.895 178.72C560.668 177.067 560.055 174.987 560.055 172.48C560.055 168.907 561.308 166.08 563.815 164C566.375 161.92 569.762 160.88 573.975 160.88C578.242 160.88 581.655 161.947 584.215 164.08C586.828 166.213 588.135 169.013 588.135 172.48V172.64C588.135 173.173 587.868 173.44 587.335 173.44H581.735C581.202 173.44 580.935 173.173 580.935 172.64V172.32C580.935 170.773 580.295 169.493 579.015 168.48C577.735 167.467 576.055 166.96 573.975 166.96C572.002 166.96 570.402 167.44 569.175 168.4C568.002 169.36 567.415 170.587 567.415 172.08C567.415 173.2 567.762 174.133 568.455 174.88C569.148 175.573 570.002 176.16 571.015 176.64C572.082 177.12 573.628 177.707 575.655 178.4C578.322 179.307 580.508 180.187 582.215 181.04C583.975 181.893 585.495 183.12 586.775 184.72C588.055 186.32 588.695 188.373 588.695 190.88C588.695 194.453 587.388 197.28 584.775 199.36C582.162 201.44 578.642 202.48 574.215 202.48ZM626.177 166.4C626.177 166.933 625.91 167.2 625.377 167.2H618.257C618.044 167.2 617.937 167.307 617.937 167.52V189.44C617.937 191.627 618.364 193.173 619.217 194.08C620.124 194.933 621.51 195.36 623.377 195.36H624.897C625.43 195.36 625.697 195.627 625.697 196.16V201.2C625.697 201.733 625.43 202 624.897 202L621.777 202.08C618.044 202.08 615.217 201.387 613.297 200C611.43 198.56 610.497 195.92 610.497 192.08V167.52C610.497 167.307 610.39 167.2 610.177 167.2H606.257C605.724 167.2 605.457 166.933 605.457 166.4V162.08C605.457 161.547 605.724 161.28 606.257 161.28H610.177C610.39 161.28 610.497 161.173 610.497 160.96V151.76C610.497 151.227 610.764 150.96 611.297 150.96H617.137C617.67 150.96 617.937 151.227 617.937 151.76V160.96C617.937 161.173 618.044 161.28 618.257 161.28H625.377C625.91 161.28 626.177 161.547 626.177 162.08V166.4ZM675.654 202C675.12 202 674.854 201.733 674.854 201.2V146.8C674.854 146.267 675.12 146 675.654 146H691.894C696.854 146 700.8 147.413 703.734 150.24C706.72 153.067 708.214 156.827 708.214 161.52V186.48C708.214 191.173 706.72 194.933 703.734 197.76C700.8 200.587 696.854 202 691.894 202H675.654ZM682.534 195.04C682.534 195.253 682.64 195.36 682.854 195.36L692.054 195.28C694.614 195.28 696.64 194.427 698.134 192.72C699.68 190.96 700.48 188.613 700.534 185.68V162.32C700.534 159.333 699.76 156.987 698.214 155.28C696.667 153.52 694.587 152.64 691.974 152.64H682.854C682.64 152.64 682.534 152.747 682.534 152.96V195.04ZM744.209 202.64C740.049 202.64 736.636 201.573 733.969 199.44C731.303 197.253 729.703 194.293 729.169 190.56C728.743 187.893 728.529 184.907 728.529 181.6C728.529 178.24 728.743 175.28 729.169 172.72C729.703 169.04 731.303 166.107 733.969 163.92C736.636 161.733 740.049 160.64 744.209 160.64C748.316 160.64 751.703 161.733 754.369 163.92C757.036 166.107 758.636 169.013 759.169 172.64C759.596 174.933 759.809 177.92 759.809 181.6C759.809 185.28 759.596 188.267 759.169 190.56C758.636 194.293 757.036 197.253 754.369 199.44C751.756 201.573 748.369 202.64 744.209 202.64ZM744.209 196C746.183 196 747.836 195.387 749.169 194.16C750.556 192.933 751.409 191.307 751.729 189.28C751.996 186.88 752.129 184.32 752.129 181.6C752.129 178.827 751.996 176.293 751.729 174C751.409 171.973 750.556 170.347 749.169 169.12C747.836 167.893 746.156 167.28 744.129 167.28C742.156 167.28 740.476 167.893 739.089 169.12C737.756 170.347 736.929 171.973 736.609 174C736.396 175.867 736.289 178.4 736.289 181.6C736.289 184.853 736.396 187.413 736.609 189.28C736.929 191.307 737.756 192.933 739.089 194.16C740.476 195.387 742.183 196 744.209 196ZM826.724 166.4C826.724 166.933 826.457 167.2 825.924 167.2H818.804C818.59 167.2 818.484 167.307 818.484 167.52V189.44C818.484 191.627 818.91 193.173 819.764 194.08C820.67 194.933 822.057 195.36 823.924 195.36H825.444C825.977 195.36 826.244 195.627 826.244 196.16V201.2C826.244 201.733 825.977 202 825.444 202L822.324 202.08C818.59 202.08 815.764 201.387 813.844 200C811.977 198.56 811.044 195.92 811.044 192.08V167.52C811.044 167.307 810.937 167.2 810.724 167.2H806.804C806.27 167.2 806.004 166.933 806.004 166.4V162.08C806.004 161.547 806.27 161.28 806.804 161.28H810.724C810.937 161.28 811.044 161.173 811.044 160.96V151.76C811.044 151.227 811.31 150.96 811.844 150.96H817.684C818.217 150.96 818.484 151.227 818.484 151.76V160.96C818.484 161.173 818.59 161.28 818.804 161.28H825.924C826.457 161.28 826.724 161.547 826.724 162.08V166.4ZM863.705 160.72C867.598 160.72 870.612 161.92 872.745 164.32C874.932 166.72 876.025 170.027 876.025 174.24V201.2C876.025 201.733 875.758 202 875.225 202H869.145C868.612 202 868.345 201.733 868.345 201.2V175.36C868.345 172.907 867.705 170.96 866.425 169.52C865.198 168.08 863.518 167.36 861.385 167.36C859.198 167.36 857.438 168.107 856.105 169.6C854.825 171.04 854.185 172.987 854.185 175.44V201.2C854.185 201.733 853.918 202 853.385 202H847.305C846.772 202 846.505 201.733 846.505 201.2V146.8C846.505 146.267 846.772 146 847.305 146H853.385C853.918 146 854.185 146.267 854.185 146.8V164.56C854.185 164.72 854.212 164.827 854.265 164.88C854.372 164.88 854.478 164.8 854.585 164.64C856.665 162.027 859.705 160.72 863.705 160.72ZM912.055 196C913.868 196 915.388 195.573 916.615 194.72C917.895 193.813 918.855 192.587 919.495 191.04C919.655 190.56 919.975 190.373 920.455 190.48L925.895 191.68C926.428 191.84 926.615 192.16 926.455 192.64C925.442 195.787 923.682 198.24 921.175 200C918.668 201.76 915.602 202.64 911.975 202.64C907.815 202.64 904.455 201.6 901.895 199.52C899.335 197.44 897.708 194.587 897.015 190.96C896.748 189.467 896.562 187.893 896.455 186.24C896.402 184.533 896.375 182.293 896.375 179.52C896.375 176.8 896.508 174.64 896.775 173.04C897.255 169.307 898.828 166.32 901.495 164.08C904.162 161.787 907.522 160.64 911.575 160.64C916.002 160.64 919.575 161.893 922.295 164.4C925.015 166.907 926.535 170.213 926.855 174.32C927.015 176.133 927.095 179.467 927.095 184.32C927.095 184.853 926.828 185.12 926.295 185.12H904.375C904.162 185.12 904.055 185.227 904.055 185.44C904.055 186.933 904.135 188.24 904.295 189.36C904.562 191.333 905.388 192.933 906.775 194.16C908.162 195.387 909.922 196 912.055 196ZM911.655 167.28C909.628 167.28 907.948 167.893 906.615 169.12C905.335 170.347 904.562 171.947 904.295 173.92C904.135 175.36 904.055 176.933 904.055 178.64C904.055 178.853 904.162 178.96 904.375 178.96H919.095C919.308 178.96 919.415 178.853 919.415 178.64C919.308 176.507 919.202 174.96 919.095 174C918.828 172.027 918.028 170.427 916.695 169.2C915.362 167.92 913.682 167.28 911.655 167.28ZM492.44 282.64C492.493 287.547 491.027 291.333 488.04 294C485.053 296.667 481.107 298 476.2 298H459.56C459.027 298 458.76 297.733 458.76 297.2V242.8C458.76 242.267 459.027 242 459.56 242H475.32C480.493 242 484.547 243.28 487.48 245.84C490.413 248.347 491.88 252.027 491.88 256.88C491.88 262.587 489.533 266.56 484.84 268.8C484.573 268.96 484.573 269.093 484.84 269.2C487.293 270.48 489.16 272.24 490.44 274.48C491.773 276.72 492.44 279.44 492.44 282.64ZM466.76 248.64C466.547 248.64 466.44 248.747 466.44 248.96V265.84C466.44 266.053 466.547 266.16 466.76 266.16H475.4C478.173 266.16 480.333 265.413 481.88 263.92C483.48 262.373 484.28 260.267 484.28 257.6C484.28 254.773 483.48 252.587 481.88 251.04C480.333 249.44 478.173 248.64 475.4 248.64H466.76ZM475.88 291.28C478.653 291.28 480.813 290.453 482.36 288.8C483.96 287.093 484.76 284.773 484.76 281.84C484.76 278.907 483.96 276.587 482.36 274.88C480.76 273.12 478.573 272.24 475.8 272.24H466.76C466.547 272.24 466.44 272.347 466.44 272.56V290.96C466.44 291.173 466.547 291.28 466.76 291.28H475.88ZM527.883 292C529.696 292 531.216 291.573 532.443 290.72C533.723 289.813 534.683 288.587 535.323 287.04C535.483 286.56 535.803 286.373 536.283 286.48L541.723 287.68C542.256 287.84 542.443 288.16 542.283 288.64C541.27 291.787 539.51 294.24 537.003 296C534.496 297.76 531.43 298.64 527.803 298.64C523.643 298.64 520.283 297.6 517.723 295.52C515.163 293.44 513.536 290.587 512.843 286.96C512.576 285.467 512.39 283.893 512.283 282.24C512.23 280.533 512.203 278.293 512.203 275.52C512.203 272.8 512.336 270.64 512.603 269.04C513.083 265.307 514.656 262.32 517.323 260.08C519.99 257.787 523.35 256.64 527.403 256.64C531.83 256.64 535.403 257.893 538.123 260.4C540.843 262.907 542.363 266.213 542.683 270.32C542.843 272.133 542.923 275.467 542.923 280.32C542.923 280.853 542.656 281.12 542.123 281.12H520.203C519.99 281.12 519.883 281.227 519.883 281.44C519.883 282.933 519.963 284.24 520.123 285.36C520.39 287.333 521.216 288.933 522.603 290.16C523.99 291.387 525.75 292 527.883 292ZM527.483 263.28C525.456 263.28 523.776 263.893 522.443 265.12C521.163 266.347 520.39 267.947 520.123 269.92C519.963 271.36 519.883 272.933 519.883 274.64C519.883 274.853 519.99 274.96 520.203 274.96H534.923C535.136 274.96 535.243 274.853 535.243 274.64C535.136 272.507 535.03 270.96 534.923 270C534.656 268.027 533.856 266.427 532.523 265.2C531.19 263.92 529.51 263.28 527.483 263.28ZM575.856 298.48C571.482 298.48 567.962 297.467 565.296 295.44C562.682 293.413 561.376 290.8 561.376 287.6V286.8C561.376 286.267 561.642 286 562.176 286H567.856C568.389 286 568.656 286.267 568.656 286.8V287.28C568.656 288.72 569.349 289.973 570.736 291.04C572.122 292.107 573.829 292.64 575.856 292.64C577.882 292.64 579.509 292.133 580.736 291.12C582.016 290.107 582.656 288.853 582.656 287.36C582.656 286.187 582.282 285.227 581.536 284.48C580.842 283.733 579.962 283.147 578.896 282.72C577.882 282.24 576.362 281.653 574.336 280.96C571.829 280.16 569.696 279.333 567.936 278.48C566.229 277.573 564.762 276.32 563.536 274.72C562.309 273.067 561.696 270.987 561.696 268.48C561.696 264.907 562.949 262.08 565.456 260C568.016 257.92 571.402 256.88 575.616 256.88C579.882 256.88 583.296 257.947 585.856 260.08C588.469 262.213 589.776 265.013 589.776 268.48V268.64C589.776 269.173 589.509 269.44 588.976 269.44H583.376C582.842 269.44 582.576 269.173 582.576 268.64V268.32C582.576 266.773 581.936 265.493 580.656 264.48C579.376 263.467 577.696 262.96 575.616 262.96C573.642 262.96 572.042 263.44 570.816 264.4C569.642 265.36 569.056 266.587 569.056 268.08C569.056 269.2 569.402 270.133 570.096 270.88C570.789 271.573 571.642 272.16 572.656 272.64C573.722 273.12 575.269 273.707 577.296 274.4C579.962 275.307 582.149 276.187 583.856 277.04C585.616 277.893 587.136 279.12 588.416 280.72C589.696 282.32 590.336 284.373 590.336 286.88C590.336 290.453 589.029 293.28 586.416 295.36C583.802 297.44 580.282 298.48 575.856 298.48ZM627.818 262.4C627.818 262.933 627.551 263.2 627.018 263.2H619.898C619.684 263.2 619.578 263.307 619.578 263.52V285.44C619.578 287.627 620.004 289.173 620.858 290.08C621.764 290.933 623.151 291.36 625.018 291.36H626.538C627.071 291.36 627.338 291.627 627.338 292.16V297.2C627.338 297.733 627.071 298 626.538 298L623.418 298.08C619.684 298.08 616.858 297.387 614.938 296C613.071 294.56 612.138 291.92 612.138 288.08V263.52C612.138 263.307 612.031 263.2 611.818 263.2H607.898C607.364 263.2 607.098 262.933 607.098 262.4V258.08C607.098 257.547 607.364 257.28 607.898 257.28H611.818C612.031 257.28 612.138 257.173 612.138 256.96V247.76C612.138 247.227 612.404 246.96 612.938 246.96H618.778C619.311 246.96 619.578 247.227 619.578 247.76V256.96C619.578 257.173 619.684 257.28 619.898 257.28H627.018C627.551 257.28 627.818 257.547 627.818 258.08V262.4Z" fill="white"/>
<defs>
<clipPath id="clip0_68_140">
<rect width="350" height="190" fill="white" transform="translate(70 144)"/>
</clipPath>
</defs>
</svg>
