<svg width="30" height="27" viewBox="0 0 30 27" fill="none" xmlns="http://www.w3.org/2000/svg">
<path d="M25 12.0332C24.2775 11.1719 23.3623 10.4827 22.3184 10.0303C21.4594 9.65503 20.5347 9.46684 19.5439 9.4668C18.602 9.46142 17.6689 9.65359 16.8037 10.0303C15.9622 10.3961 15.1959 10.9179 14.5439 11.5684C13.8961 12.2166 13.3768 12.9844 13.0146 13.8301C12.6343 14.6957 12.4412 15.6339 12.4492 16.5811C12.4493 17.5749 12.6357 18.498 13.0146 19.3584C13.0739 19.4967 13.1387 19.6326 13.2061 19.7666H2.25098C1.01351 19.7665 0 18.7561 0 17.5254V6.32324H25V12.0332ZM22.9746 0.0117188C24.1089 0.127054 25 1.08725 25 2.24121V4.74219H0V2.24121C0 1.0068 1.01351 0.000132077 2.25098 0H22.7451L22.9746 0.0117188Z" fill="#FFFF"/>
<path d="M14.4769 14.6795C14.7823 13.9662 15.22 13.3187 15.7664 12.772C16.3163 12.2233 16.9628 11.7834 17.6726 11.4749C18.4023 11.1572 19.1891 10.9956 19.9836 11.0001C20.8193 11.0001 21.5995 11.1584 22.3241 11.4749C23.7537 12.0945 24.8971 13.2399 25.5231 14.6795C25.8423 15.4102 26.0047 16.201 25.9998 16.9998C26.0059 17.806 25.8435 18.6045 25.5231 19.3428C25.2146 20.058 24.7749 20.7075 24.2272 21.2572C23.6804 21.8039 23.0342 22.2387 22.3241 22.5376C21.5995 22.8479 20.8192 22.9999 19.9836 22.9999C19.1902 23.0055 18.404 22.8482 17.6726 22.5376C16.9616 22.2388 16.3143 21.8041 15.7664 21.2572C15.2206 20.7073 14.783 20.0577 14.4769 19.3428C14.1572 18.617 14.0002 17.8383 14.0002 16.9998C13.9935 16.2008 14.156 15.4097 14.4769 14.6795ZM16.6239 19.815C16.8008 19.3258 17.122 18.9033 17.5441 18.6046C17.9661 18.306 18.4687 18.1455 18.9839 18.1449V20.6931C18.9839 20.8295 19.0272 20.9622 19.1075 21.0718C19.1877 21.1814 19.3006 21.2621 19.4295 21.302C19.5585 21.3419 19.6967 21.3389 19.8238 21.2935C19.951 21.248 20.0604 21.1626 20.1359 21.0496L23.6657 17.4852C23.7333 17.4283 23.7885 17.3578 23.8277 17.2782C23.8668 17.1985 23.8891 17.1114 23.893 17.0226C23.897 16.9337 23.8825 16.845 23.8506 16.7621C23.8187 16.6792 23.77 16.604 23.7076 16.5412L20.0393 12.832L20.0359 12.835C19.9207 12.7295 19.7704 12.6718 19.6149 12.6733C19.4479 12.6734 19.2877 12.7406 19.1696 12.86C19.0515 12.9794 18.9851 13.1413 18.9849 13.3102V15.2378C18.4577 15.2362 17.9403 15.3812 17.4892 15.657C17.038 15.9327 16.6706 16.3286 16.427 16.8012C16.1833 17.2739 16.073 17.8052 16.1079 18.337C16.1428 18.8688 16.3216 19.3807 16.6249 19.8167L16.6239 19.815Z" fill="#2F9A3E"/>
<path d="M14.4769 14.6795C14.7823 13.9662 15.22 13.3187 15.7664 12.772C16.3163 12.2233 16.9628 11.7834 17.6726 11.4749C18.4023 11.1572 19.1891 10.9956 19.9836 11.0001C20.8193 11.0001 21.5995 11.1584 22.3241 11.4749C23.7537 12.0945 24.8971 13.2399 25.5231 14.6795C25.8423 15.4102 26.0047 16.201 25.9998 16.9998C26.0059 17.806 25.8435 18.6045 25.5231 19.3428C25.2146 20.058 24.7749 20.7075 24.2272 21.2572C23.6804 21.8039 23.0342 22.2387 22.3241 22.5376C21.5995 22.8479 20.8192 22.9999 19.9836 22.9999C19.1902 23.0055 18.404 22.8482 17.6726 22.5376C16.9616 22.2388 16.3143 21.8041 15.7664 21.2572C15.2206 20.7073 14.783 20.0577 14.4769 19.3428C14.1572 18.617 14.0002 17.8383 14.0002 16.9998C13.9935 16.2008 14.156 15.4097 14.4769 14.6795ZM16.6239 19.815C16.8008 19.3258 17.122 18.9033 17.5441 18.6046C17.9661 18.306 18.4687 18.1455 18.9839 18.1449V20.6931C18.9839 20.8295 19.0272 20.9622 19.1075 21.0718C19.1877 21.1814 19.3006 21.2621 19.4295 21.302C19.5585 21.3419 19.6967 21.3389 19.8238 21.2935C19.951 21.248 20.0604 21.1626 20.1359 21.0496L23.6657 17.4852C23.7333 17.4283 23.7885 17.3578 23.8277 17.2782C23.8668 17.1985 23.8891 17.1114 23.893 17.0226C23.897 16.9337 23.8825 16.845 23.8506 16.7621C23.8187 16.6792 23.77 16.604 23.7076 16.5412L20.0393 12.832L20.0359 12.835C19.9207 12.7295 19.7704 12.6718 19.6149 12.6733C19.4479 12.6734 19.2877 12.7406 19.1696 12.86C19.0515 12.9794 18.9851 13.1413 18.9849 13.3102V15.2378C18.4577 15.2362 17.9403 15.3812 17.4892 15.657C17.038 15.9327 16.6706 16.3286 16.427 16.8012C16.1833 17.2739 16.073 17.8052 16.1079 18.337C16.1428 18.8688 16.3216 19.3807 16.6249 19.8167L16.6239 19.815Z" fill="#2F9A3E"/>
</svg>
