<svg width="30" height="24" viewBox="0 0 30 24" fill="none" xmlns="http://www.w3.org/2000/svg">
<path d="M15.1567 5.28256C10.4752 5.28256 6.69472 9.08876 6.69472 13.7666C6.69472 18.4445 10.4752 22.2507 15.1311 22.2507C18.9244 22.2507 22.1261 19.7257 23.2067 16.2669C22.4211 16.591 21.6115 16.8268 20.7505 17.0377C19.7084 17.275 18.6166 17.4364 17.4847 17.5356C17.3734 17.8052 17.1819 18.0367 16.9344 18.2007C16.6869 18.3648 16.3946 18.4539 16.0946 18.4569H14.4128C13.5887 18.4569 12.8945 17.7729 12.8945 16.9261C12.8945 16.0808 13.5759 15.3968 14.4128 15.3968H16.0962C16.675 15.3968 17.1768 15.7194 17.435 16.1924C18.4578 16.1187 19.4728 15.9646 20.4699 15.7318C21.5294 15.4826 22.5593 15.1281 23.5434 14.674C23.569 14.3886 23.5947 14.0644 23.5947 13.7542C23.5947 9.08876 19.8142 5.28256 15.1583 5.28256H15.1567ZM27.3094 10.283H26.9359C26.3613 8.33821 25.3065 6.55768 23.8624 5.09489C21.6644 2.86917 18.6037 1.48721 15.2209 1.48721C11.838 1.48721 8.79178 2.86762 6.57928 5.09489C5.1275 6.55387 4.06826 8.33543 3.49461 10.283H3.06975C2.08054 10.283 1.26929 11.1051 1.26929 12.0993V14.9222C1.26929 15.9195 2.08054 16.7399 3.06975 16.7399H5.43456V10.5328C5.93248 9.01033 6.79113 7.62146 7.94206 6.47685C8.8772 5.51232 10.0066 4.74323 11.2606 4.21694C12.5146 3.69065 13.8667 3.4183 15.2337 3.41668C16.6015 3.41721 17.9548 3.68778 19.2108 4.21183C20.4668 4.73588 21.599 5.50239 22.5381 6.46444C23.6322 7.56326 24.4583 8.88495 24.9559 10.3327V16.7524H27.2966C28.2858 16.7524 29.0971 15.9303 29.0971 14.9361V12.0993C29.1099 11.1035 28.2858 10.2846 27.3094 10.2846V10.283Z" fill="#ffff"/>
</svg>
