<svg width="996" height="471" viewBox="0 0 996 471" fill="none" xmlns="http://www.w3.org/2000/svg">
<rect width="996" height="471" rx="50" fill=""/>
<path opacity="0.919" fill-rule="evenodd" clip-rule="evenodd" d="M175.181 151.072C180.431 151.072 185.682 151.072 190.933 151.072C190.933 156.319 190.933 161.565 190.933 166.812C185.682 166.812 180.431 166.812 175.181 166.812C175.181 161.565 175.181 156.319 175.181 151.072Z" fill="white"/>
<path opacity="0.909" fill-rule="evenodd" clip-rule="evenodd" d="M192.245 151.072C197.496 151.072 202.746 151.072 207.997 151.072C207.997 156.319 207.997 161.565 207.997 166.812C202.746 166.812 197.496 166.812 192.245 166.812C192.245 161.565 192.245 156.319 192.245 151.072Z" fill="white"/>
<path opacity="0.909" fill-rule="evenodd" clip-rule="evenodd" d="M209.31 151.072C214.56 151.072 219.811 151.072 225.061 151.072C225.061 156.319 225.061 161.565 225.061 166.812C219.811 166.812 214.56 166.812 209.31 166.812C209.31 161.565 209.31 156.319 209.31 151.072Z" fill="white"/>
<path opacity="0.919" fill-rule="evenodd" clip-rule="evenodd" d="M226.374 151.072C231.625 151.072 236.875 151.072 242.126 151.072C242.126 156.319 242.126 161.565 242.126 166.812C236.875 166.812 231.625 166.812 226.374 166.812C226.374 161.565 226.374 156.319 226.374 151.072Z" fill="white"/>
<path opacity="0.909" fill-rule="evenodd" clip-rule="evenodd" d="M243.439 151.072C248.69 151.072 253.94 151.072 259.191 151.072C259.191 156.319 259.191 161.565 259.191 166.812C253.94 166.812 248.69 166.812 243.439 166.812C243.439 161.565 243.439 156.319 243.439 151.072Z" fill="white"/>
<path opacity="0.919" fill-rule="evenodd" clip-rule="evenodd" d="M260.503 151.072C265.754 151.072 271.005 151.072 276.255 151.072C276.255 156.319 276.255 161.565 276.255 166.812C271.005 166.812 265.754 166.812 260.503 166.812C260.503 161.565 260.503 156.319 260.503 151.072Z" fill="white"/>
<path opacity="0.948" fill-rule="evenodd" clip-rule="evenodd" d="M278.224 151.072C283.256 151.072 288.288 151.072 293.32 151.072C293.32 156.319 293.32 161.565 293.32 166.812C288.288 166.812 283.256 166.812 278.224 166.812C278.224 161.565 278.224 156.319 278.224 151.072Z" fill="white"/>
<path opacity="0.948" fill-rule="evenodd" clip-rule="evenodd" d="M295.289 151.072C300.321 151.072 305.352 151.072 310.384 151.072C310.384 156.319 310.384 161.565 310.384 166.812C305.352 166.812 300.321 166.812 295.289 166.812C295.289 161.565 295.289 156.319 295.289 151.072Z" fill="#FE6E00"/>
<path opacity="0.909" fill-rule="evenodd" clip-rule="evenodd" d="M395.051 151.072C400.301 151.072 405.552 151.072 410.803 151.072C410.803 156.319 410.803 161.565 410.803 166.812C405.552 166.812 400.301 166.812 395.051 166.812C395.051 161.565 395.051 156.319 395.051 151.072Z" fill="#FEB918"/>
<path opacity="0.909" fill-rule="evenodd" clip-rule="evenodd" d="M412.115 151.072C417.366 151.072 422.616 151.072 427.867 151.072C427.867 156.319 427.867 161.565 427.867 166.812C422.616 166.812 417.366 166.812 412.115 166.812C412.115 161.565 412.115 156.319 412.115 151.072Z" fill="white"/>
<path opacity="0.919" fill-rule="evenodd" clip-rule="evenodd" d="M429.18 151.072C434.43 151.072 439.681 151.072 444.932 151.072C444.932 156.319 444.932 161.565 444.932 166.812C439.681 166.812 434.43 166.812 429.18 166.812C429.18 161.565 429.18 156.319 429.18 151.072Z" fill="white"/>
<path opacity="0.909" fill-rule="evenodd" clip-rule="evenodd" d="M446.244 151.072C451.495 151.072 456.745 151.072 461.996 151.072C461.996 156.319 461.996 161.565 461.996 166.812C456.745 166.812 451.495 166.812 446.244 166.812C446.244 161.565 446.244 156.319 446.244 151.072Z" fill="white"/>
<path opacity="0.919" fill-rule="evenodd" clip-rule="evenodd" d="M463.309 151.072C468.56 151.072 473.81 151.072 479.061 151.072C479.061 156.319 479.061 161.565 479.061 166.812C473.81 166.812 468.56 166.812 463.309 166.812C463.309 161.565 463.309 156.319 463.309 151.072Z" fill="white"/>
<path opacity="0.961" fill-rule="evenodd" clip-rule="evenodd" d="M563.727 151.072C573.572 151.072 583.417 151.072 593.262 151.072C593.262 153.04 593.262 155.007 593.262 156.975C595.231 156.975 597.2 156.975 599.169 156.975C599.169 162.877 599.169 168.779 599.169 174.682C597.2 174.682 595.231 174.682 593.262 174.682C593.262 176.649 593.262 178.616 593.262 180.584C587.355 180.584 581.448 180.584 575.541 180.584C575.541 186.486 575.541 192.389 575.541 198.291C571.603 198.291 567.665 198.291 563.727 198.291C563.727 182.551 563.727 166.812 563.727 151.072ZM575.541 163.533C579.26 163.533 582.979 163.533 586.699 163.533C586.699 165.282 586.699 167.03 586.699 168.779C582.979 168.779 579.26 168.779 575.541 168.779C575.541 167.03 575.541 165.282 575.541 163.533Z" fill="white"/>
<path opacity="0.95" fill-rule="evenodd" clip-rule="evenodd" d="M609.67 151.072C617.546 151.072 625.422 151.072 633.298 151.072C633.298 153.04 633.298 155.007 633.298 156.975C635.267 156.975 637.236 156.975 639.205 156.975C639.205 168.779 639.205 180.584 639.205 192.389C637.236 192.389 635.267 192.389 633.298 192.389C633.298 194.356 633.298 196.323 633.298 198.291C625.422 198.291 617.546 198.291 609.67 198.291C609.67 196.323 609.67 194.356 609.67 192.389C607.701 192.389 605.732 192.389 603.763 192.389C603.763 180.584 603.763 168.779 603.763 156.975C605.732 156.975 607.701 156.975 609.67 156.975C609.67 155.007 609.67 153.04 609.67 151.072ZM616.233 163.533C619.953 163.533 623.672 163.533 627.391 163.533C627.391 170.965 627.391 178.398 627.391 185.83C623.672 185.83 619.953 185.83 616.233 185.83C616.233 178.398 616.233 170.965 616.233 163.533Z" fill="white"/>
<path opacity="0.933" fill-rule="evenodd" clip-rule="evenodd" d="M650.363 151.072C658.238 151.072 666.114 151.072 673.99 151.072C673.99 153.04 673.99 155.007 673.99 156.975C675.959 156.975 677.928 156.975 679.897 156.975C679.897 161.128 679.897 165.282 679.897 169.435C675.741 169.435 671.584 169.435 667.427 169.435C667.427 167.468 667.427 165.5 667.427 163.533C663.927 163.533 660.426 163.533 656.926 163.533C656.926 170.965 656.926 178.398 656.926 185.83C660.426 185.83 663.927 185.83 667.427 185.83C667.427 183.863 667.427 181.896 667.427 179.928C671.584 179.928 675.741 179.928 679.897 179.928C679.897 184.081 679.897 188.235 679.897 192.389C677.928 192.389 675.959 192.389 673.99 192.389C673.99 194.356 673.99 196.323 673.99 198.291C666.114 198.291 658.238 198.291 650.363 198.291C650.363 196.323 650.363 194.356 650.363 192.389C648.394 192.389 646.425 192.389 644.456 192.389C644.456 180.584 644.456 168.779 644.456 156.975C646.425 156.975 648.394 156.975 650.363 156.975C650.363 155.007 650.363 153.04 650.363 151.072Z" fill="white"/>
<path opacity="0.965" fill-rule="evenodd" clip-rule="evenodd" d="M685.148 151.072C689.086 151.072 693.024 151.072 696.962 151.072C696.962 156.975 696.962 162.877 696.962 168.779C700.681 168.779 704.4 168.779 708.119 168.779C708.119 162.877 708.119 156.975 708.119 151.072C712.057 151.072 715.995 151.072 719.933 151.072C719.933 157.193 719.933 163.314 719.933 169.435C718.183 169.435 716.433 169.435 714.683 169.435C714.683 172.933 714.683 176.431 714.683 179.928C716.433 179.928 718.183 179.928 719.933 179.928C719.933 186.049 719.933 192.17 719.933 198.291C715.995 198.291 712.057 198.291 708.119 198.291C708.119 192.389 708.119 186.486 708.119 180.584C704.4 180.584 700.681 180.584 696.962 180.584C696.962 186.486 696.962 192.389 696.962 198.291C693.024 198.291 689.086 198.291 685.148 198.291C685.148 182.551 685.148 166.812 685.148 151.072Z" fill="white"/>
<path opacity="0.95" fill-rule="evenodd" clip-rule="evenodd" d="M725.184 151.072C736.998 151.072 748.812 151.072 760.626 151.072C760.626 155.226 760.626 159.379 760.626 163.533C752.968 163.533 745.312 163.533 737.654 163.533C737.654 165.282 737.654 167.03 737.654 168.779C743.343 168.779 749.03 168.779 754.719 168.779C754.719 172.714 754.719 176.649 754.719 180.584C749.03 180.584 743.343 180.584 737.654 180.584C737.654 182.333 737.654 184.081 737.654 185.83C745.312 185.83 752.968 185.83 760.626 185.83C760.626 189.984 760.626 194.138 760.626 198.291C748.812 198.291 736.998 198.291 725.184 198.291C725.184 182.551 725.184 166.812 725.184 151.072Z" fill="white"/>
<path opacity="0.937" fill-rule="evenodd" clip-rule="evenodd" d="M765.876 151.072C777.69 151.072 789.504 151.072 801.318 151.072C801.318 155.226 801.318 159.379 801.318 163.533C797.38 163.533 793.442 163.533 789.504 163.533C789.504 175.119 789.504 186.705 789.504 198.291C785.35 198.291 781.189 198.291 777.034 198.291C777.034 186.705 777.034 175.119 777.034 163.533C773.313 163.533 769.598 163.533 765.876 163.533C765.876 159.379 765.876 155.226 765.876 151.072Z" fill="white"/>
<path opacity="0.857" fill-rule="evenodd" clip-rule="evenodd" d="M811.819 151.072C816.414 151.072 821.008 151.072 825.602 151.072C825.602 152.384 825.602 153.696 825.602 155.007C823.85 155.007 822.104 155.007 820.352 155.007C820.352 160.472 820.352 165.938 820.352 171.402C819.256 171.402 818.166 171.402 817.07 171.402C817.07 165.938 817.07 160.472 817.07 155.007C815.318 155.007 813.572 155.007 811.819 155.007C811.819 153.696 811.819 152.384 811.819 151.072Z" fill="white"/>
<path opacity="0.865" fill-rule="evenodd" clip-rule="evenodd" d="M827.571 151.072C829.074 150.904 830.499 151.122 831.837 151.728C833.642 155.548 835.611 159.264 837.744 162.877C839.366 159.104 841.118 155.388 842.995 151.728C844.334 151.122 845.758 150.904 847.261 151.072C847.261 157.849 847.261 164.626 847.261 171.402C845.948 171.402 844.636 171.402 843.323 171.402C843.435 167.897 843.323 164.4 842.995 160.909C842.011 162.877 841.026 164.844 840.042 166.811C838.558 167.564 837.022 167.673 835.447 167.139C833.944 164.458 832.52 161.726 831.181 158.942C830.853 163.09 830.741 167.243 830.853 171.402C829.757 171.402 828.667 171.402 827.571 171.402C827.571 164.626 827.571 157.849 827.571 151.072Z" fill="white"/>
<path opacity="0.938" fill-rule="evenodd" clip-rule="evenodd" d="M158.116 168.123C163.148 168.123 168.18 168.123 173.212 168.123C173.212 173.37 173.212 178.616 173.212 183.863C168.18 183.863 163.148 183.863 158.116 183.863C158.116 178.616 158.116 173.37 158.116 168.123Z" fill="#6414E6"/>
<path opacity="0.909" fill-rule="evenodd" clip-rule="evenodd" d="M175.181 168.123C180.431 168.123 185.682 168.123 190.933 168.123C190.933 173.37 190.933 178.616 190.933 183.863C185.682 183.863 180.431 183.863 175.181 183.863C175.181 178.616 175.181 173.37 175.181 168.123Z" fill="white"/>
<path opacity="0.899" fill-rule="evenodd" clip-rule="evenodd" d="M192.245 168.123C197.496 168.123 202.746 168.123 207.997 168.123C207.997 173.37 207.997 178.616 207.997 183.863C202.746 183.863 197.496 183.863 192.245 183.863C192.245 178.616 192.245 173.37 192.245 168.123Z" fill="white"/>
<path opacity="0.899" fill-rule="evenodd" clip-rule="evenodd" d="M209.31 168.123C214.56 168.123 219.811 168.123 225.061 168.123C225.061 173.37 225.061 178.616 225.061 183.863C219.811 183.863 214.56 183.863 209.31 183.863C209.31 178.616 209.31 173.37 209.31 168.123Z" fill="white"/>
<path opacity="0.909" fill-rule="evenodd" clip-rule="evenodd" d="M226.374 168.123C231.625 168.123 236.875 168.123 242.126 168.123C242.126 173.37 242.126 178.616 242.126 183.863C236.875 183.863 231.625 183.863 226.374 183.863C226.374 178.616 226.374 173.37 226.374 168.123Z" fill="white"/>
<path opacity="0.899" fill-rule="evenodd" clip-rule="evenodd" d="M243.439 168.123C248.69 168.123 253.94 168.123 259.191 168.123C259.191 173.37 259.191 178.616 259.191 183.863C253.94 183.863 248.69 183.863 243.439 183.863C243.439 178.616 243.439 173.37 243.439 168.123Z" fill="white"/>
<path opacity="0.909" fill-rule="evenodd" clip-rule="evenodd" d="M260.503 168.123C265.754 168.123 271.005 168.123 276.255 168.123C276.255 173.37 276.255 178.616 276.255 183.863C271.005 183.863 265.754 183.863 260.503 183.863C260.503 178.616 260.503 173.37 260.503 168.123Z" fill="white"/>
<path opacity="0.938" fill-rule="evenodd" clip-rule="evenodd" d="M278.224 168.123C283.256 168.123 288.288 168.123 293.32 168.123C293.32 173.37 293.32 178.616 293.32 183.863C288.288 183.863 283.256 183.863 278.224 183.863C278.224 178.616 278.224 173.37 278.224 168.123Z" fill="white"/>
<path opacity="0.938" fill-rule="evenodd" clip-rule="evenodd" d="M295.289 168.123C300.321 168.123 305.352 168.123 310.384 168.123C310.384 173.37 310.384 178.616 310.384 183.863C305.352 183.863 300.321 183.863 295.289 183.863C295.289 178.616 295.289 173.37 295.289 168.123Z" fill="white"/>
<path opacity="0.909" fill-rule="evenodd" clip-rule="evenodd" d="M377.986 168.123C383.237 168.123 388.488 168.123 393.738 168.123C393.738 173.37 393.738 178.616 393.738 183.863C388.488 183.863 383.237 183.863 377.986 183.863C377.986 178.616 377.986 173.37 377.986 168.123Z" fill="white"/>
<path opacity="0.899" fill-rule="evenodd" clip-rule="evenodd" d="M395.051 168.123C400.301 168.123 405.552 168.123 410.803 168.123C410.803 173.37 410.803 178.616 410.803 183.863C405.552 183.863 400.301 183.863 395.051 183.863C395.051 178.616 395.051 173.37 395.051 168.123Z" fill="white"/>
<path opacity="0.899" fill-rule="evenodd" clip-rule="evenodd" d="M412.115 168.123C417.366 168.123 422.616 168.123 427.867 168.123C427.867 173.37 427.867 178.616 427.867 183.863C422.616 183.863 417.366 183.863 412.115 183.863C412.115 178.616 412.115 173.37 412.115 168.123Z" fill="white"/>
<path opacity="0.909" fill-rule="evenodd" clip-rule="evenodd" d="M429.18 168.123C434.43 168.123 439.681 168.123 444.932 168.123C444.932 173.37 444.932 178.616 444.932 183.863C439.681 183.863 434.43 183.863 429.18 183.863C429.18 178.616 429.18 173.37 429.18 168.123Z" fill="white"/>
<path opacity="0.899" fill-rule="evenodd" clip-rule="evenodd" d="M446.244 168.123C451.495 168.123 456.745 168.123 461.996 168.123C461.996 173.37 461.996 178.616 461.996 183.863C456.745 183.863 451.495 183.863 446.244 183.863C446.244 178.616 446.244 173.37 446.244 168.123Z" fill="white"/>
<path opacity="0.909" fill-rule="evenodd" clip-rule="evenodd" d="M463.309 168.123C468.56 168.123 473.81 168.123 479.061 168.123C479.061 173.37 479.061 178.616 479.061 183.863C473.81 183.863 468.56 183.863 463.309 183.863C463.309 178.616 463.309 173.37 463.309 168.123Z" fill="white"/>
<path opacity="0.909" fill-rule="evenodd" clip-rule="evenodd" d="M480.374 168.123C485.624 168.123 490.875 168.123 496.125 168.123C496.125 173.37 496.125 178.616 496.125 183.863C490.875 183.863 485.624 183.863 480.374 183.863C480.374 178.616 480.374 173.37 480.374 168.123Z" fill="white"/>
<path opacity="0.938" fill-rule="evenodd" clip-rule="evenodd" d="M498.094 168.123C503.126 168.123 508.158 168.123 513.19 168.123C513.19 173.37 513.19 178.616 513.19 183.863C508.158 183.863 503.126 183.863 498.094 183.863C498.094 178.616 498.094 173.37 498.094 168.123Z" fill="white"/>
<path opacity="0.938" fill-rule="evenodd" clip-rule="evenodd" d="M158.116 185.174C163.148 185.174 168.18 185.174 173.212 185.174C173.212 190.421 173.212 195.667 173.212 200.914C168.18 200.914 163.148 200.914 158.116 200.914C158.116 195.667 158.116 190.421 158.116 185.174Z" fill="white"/>
<path opacity="0.909" fill-rule="evenodd" clip-rule="evenodd" d="M175.181 185.174C180.431 185.174 185.682 185.174 190.933 185.174C190.933 190.421 190.933 195.667 190.933 200.914C185.682 200.914 180.431 200.914 175.181 200.914C175.181 195.667 175.181 190.421 175.181 185.174Z" fill="white"/>
<path opacity="0.938" fill-rule="evenodd" clip-rule="evenodd" d="M278.224 185.174C283.256 185.174 288.288 185.174 293.32 185.174C293.32 190.421 293.32 195.667 293.32 200.914C288.288 200.914 283.256 200.914 278.224 200.914C278.224 195.667 278.224 190.421 278.224 185.174Z" fill="white"/>
<path opacity="0.938" fill-rule="evenodd" clip-rule="evenodd" d="M295.289 185.174C300.321 185.174 305.352 185.174 310.384 185.174C310.384 190.421 310.384 195.667 310.384 200.914C305.352 200.914 300.321 200.914 295.289 200.914C295.289 195.667 295.289 190.421 295.289 185.174Z" fill="white"/>
<path opacity="0.948" fill-rule="evenodd" clip-rule="evenodd" d="M312.354 185.174C317.386 185.174 322.417 185.174 327.449 185.174C327.449 190.421 327.449 195.667 327.449 200.914C322.417 200.914 317.386 200.914 312.354 200.914C312.354 195.667 312.354 190.421 312.354 185.174Z" fill="white"/>
<path opacity="0.938" fill-rule="evenodd" clip-rule="evenodd" d="M360.922 185.174C365.954 185.174 370.985 185.174 376.017 185.174C376.017 190.421 376.017 195.667 376.017 200.914C370.985 200.914 365.954 200.914 360.922 200.914C360.922 195.667 360.922 190.421 360.922 185.174Z" fill="#E51972"/>
<path opacity="0.909" fill-rule="evenodd" clip-rule="evenodd" d="M377.986 185.174C383.237 185.174 388.488 185.174 393.738 185.174C393.738 190.421 393.738 195.667 393.738 200.914C388.488 200.914 383.237 200.914 377.986 200.914C377.986 195.667 377.986 190.421 377.986 185.174Z" fill="white"/>
<path opacity="0.899" fill-rule="evenodd" clip-rule="evenodd" d="M395.051 185.174C400.301 185.174 405.552 185.174 410.803 185.174C410.803 190.421 410.803 195.667 410.803 200.914C405.552 200.914 400.301 200.914 395.051 200.914C395.051 195.667 395.051 190.421 395.051 185.174Z" fill="white"/>
<path opacity="0.909" fill-rule="evenodd" clip-rule="evenodd" d="M480.374 185.174C485.624 185.174 490.875 185.174 496.125 185.174C496.125 190.421 496.125 195.667 496.125 200.914C490.875 200.914 485.624 200.914 480.374 200.914C480.374 195.667 480.374 190.421 480.374 185.174Z" fill="white"/>
<path opacity="0.938" fill-rule="evenodd" clip-rule="evenodd" d="M498.094 185.174C503.126 185.174 508.158 185.174 513.19 185.174C513.19 190.421 513.19 195.667 513.19 200.914C508.158 200.914 503.126 200.914 498.094 200.914C498.094 195.667 498.094 190.421 498.094 185.174Z" fill="white"/>
<path opacity="0.948" fill-rule="evenodd" clip-rule="evenodd" d="M158.116 202.226C163.148 202.226 168.18 202.226 173.212 202.226C173.212 207.472 173.212 212.719 173.212 217.965C168.18 217.965 163.148 217.965 158.116 217.965C158.116 212.719 158.116 207.472 158.116 202.226Z" fill="white"/>
<path opacity="0.919" fill-rule="evenodd" clip-rule="evenodd" d="M175.181 202.226C180.431 202.226 185.682 202.226 190.933 202.226C190.933 207.472 190.933 212.719 190.933 217.965C185.682 217.965 180.431 217.965 175.181 217.965C175.181 212.719 175.181 207.472 175.181 202.226Z" fill="white"/>
<path opacity="0.948" fill-rule="evenodd" clip-rule="evenodd" d="M295.289 202.226C300.321 202.226 305.352 202.226 310.384 202.226C310.384 207.472 310.384 212.719 310.384 217.965C305.352 217.965 300.321 217.965 295.289 217.965C295.289 212.719 295.289 207.472 295.289 202.226Z" fill="white"/>
<path opacity="0.958" fill-rule="evenodd" clip-rule="evenodd" d="M312.354 202.226C317.386 202.226 322.417 202.226 327.449 202.226C327.449 207.472 327.449 212.719 327.449 217.965C322.417 217.965 317.386 217.965 312.354 217.965C312.354 212.719 312.354 207.472 312.354 202.226Z" fill="white"/>
<path opacity="0.948" fill-rule="evenodd" clip-rule="evenodd" d="M360.922 202.226C365.954 202.226 370.985 202.226 376.017 202.226C376.017 207.472 376.017 212.719 376.017 217.965C370.985 217.965 365.954 217.965 360.922 217.965C360.922 212.719 360.922 207.472 360.922 202.226Z" fill="white"/>
<path opacity="0.919" fill-rule="evenodd" clip-rule="evenodd" d="M377.986 202.226C383.237 202.226 388.488 202.226 393.738 202.226C393.738 207.472 393.738 212.719 393.738 217.965C388.488 217.965 383.237 217.965 377.986 217.965C377.986 212.719 377.986 207.472 377.986 202.226Z" fill="white"/>
<path opacity="0.965" fill-rule="evenodd" clip-rule="evenodd" d="M569.634 212.719C577.51 212.719 585.386 212.719 593.262 212.719C593.262 216.654 593.262 220.589 593.262 224.523C587.355 224.523 581.448 224.523 575.541 224.523C575.541 232.175 575.541 239.826 575.541 247.477C579.26 247.477 582.979 247.477 586.699 247.477C586.699 245.728 586.699 243.979 586.699 242.23C584.73 242.23 582.761 242.23 580.792 242.23C580.792 238.077 580.792 233.923 580.792 229.77C586.917 229.77 593.043 229.77 599.169 229.77C599.169 237.64 599.169 245.509 599.169 253.379C597.2 253.379 595.231 253.379 593.262 253.379C593.262 255.347 593.262 257.314 593.262 259.282C585.386 259.282 577.51 259.282 569.634 259.282C569.634 257.314 569.634 255.347 569.634 253.379C567.665 253.379 565.696 253.379 563.727 253.379C563.727 241.575 563.727 229.77 563.727 217.965C565.696 217.965 567.665 217.965 569.634 217.965C569.634 216.216 569.634 214.468 569.634 212.719Z" fill="white"/>
<path opacity="0.96" fill-rule="evenodd" clip-rule="evenodd" d="M609.67 212.719C617.546 212.719 625.422 212.719 633.298 212.719C633.298 214.468 633.298 216.216 633.298 217.965C635.267 217.965 637.236 217.965 639.205 217.965C639.205 231.737 639.205 245.509 639.205 259.282C635.267 259.282 631.329 259.282 627.391 259.282C627.391 255.565 627.391 251.849 627.391 248.133C623.672 248.133 619.953 248.133 616.233 248.133C616.233 251.849 616.233 255.565 616.233 259.282C612.077 259.282 607.92 259.282 603.763 259.282C603.763 245.509 603.763 231.737 603.763 217.965C605.732 217.965 607.701 217.965 609.67 217.965C609.67 216.216 609.67 214.468 609.67 212.719ZM616.233 224.523C619.953 224.523 623.672 224.523 627.391 224.523C627.391 228.24 627.391 231.956 627.391 235.672C623.672 235.672 619.953 235.672 616.233 235.672C616.233 231.956 616.233 228.24 616.233 224.523Z" fill="white"/>
<path opacity="0.936" fill-rule="evenodd" clip-rule="evenodd" d="M644.456 212.719C646.643 212.719 648.831 212.719 651.019 212.719C651.019 214.468 651.019 216.216 651.019 217.965C652.988 217.965 654.957 217.965 656.926 217.965C656.926 219.933 656.926 221.9 656.926 223.868C658.676 223.868 660.426 223.868 662.176 223.868C662.176 225.835 662.176 227.802 662.176 229.77C663.927 229.77 665.677 229.77 667.427 229.77C667.427 227.802 667.427 225.835 667.427 223.868C669.396 223.868 671.365 223.868 673.334 223.868C673.334 221.9 673.334 219.933 673.334 217.965C675.303 217.965 677.272 217.965 679.241 217.965C679.241 216.216 679.241 214.468 679.241 212.719C681.429 212.719 683.617 212.719 685.804 212.719C685.804 228.24 685.804 243.76 685.804 259.282C681.648 259.282 677.491 259.282 673.334 259.282C673.334 253.598 673.334 247.914 673.334 242.23C671.584 242.23 669.834 242.23 668.083 242.23C668.083 244.198 668.083 246.165 668.083 248.133C665.896 248.133 663.708 248.133 661.52 248.133C661.52 246.165 661.52 244.198 661.52 242.23C659.989 242.23 658.457 242.23 656.926 242.23C656.926 247.914 656.926 253.598 656.926 259.282C652.769 259.282 648.612 259.282 644.456 259.282C644.456 243.76 644.456 228.24 644.456 212.719Z" fill="white"/>
<path opacity="0.964" fill-rule="evenodd" clip-rule="evenodd" d="M690.398 212.719C702.212 212.719 714.026 212.719 725.84 212.719C725.84 216.654 725.84 220.589 725.84 224.523C718.183 224.523 710.526 224.523 702.869 224.523C702.869 226.272 702.869 228.021 702.869 229.77C708.557 229.77 714.245 229.77 719.933 229.77C719.933 233.923 719.933 238.077 719.933 242.23C714.245 242.23 708.557 242.23 702.869 242.23C702.869 243.979 702.869 245.728 702.869 247.477C710.526 247.477 718.183 247.477 725.84 247.477C725.84 251.412 725.84 255.347 725.84 259.282C714.026 259.282 702.212 259.282 690.398 259.282C690.398 243.76 690.398 228.24 690.398 212.719Z" fill="white"/>
<path opacity="0.959" fill-rule="evenodd" clip-rule="evenodd" d="M736.998 212.719C746.843 212.719 756.688 212.719 766.533 212.719C766.533 216.654 766.533 220.589 766.533 224.523C758.873 224.523 751.218 224.523 743.561 224.523C743.561 226.272 743.561 228.021 743.561 229.77C749.249 229.77 754.937 229.77 760.626 229.77C760.626 231.737 760.626 233.705 760.626 235.672C762.595 235.672 764.564 235.672 766.533 235.672C766.533 241.575 766.533 247.477 766.533 253.379C764.564 253.379 762.595 253.379 760.626 253.379C760.626 255.347 760.626 257.314 760.626 259.282C750.781 259.282 740.936 259.282 731.091 259.282C731.091 255.347 731.091 251.412 731.091 247.477C738.748 247.477 746.405 247.477 754.062 247.477C754.062 245.728 754.062 243.979 754.062 242.23C748.374 242.23 742.686 242.23 736.998 242.23C736.998 240.263 736.998 238.295 736.998 236.328C735.029 236.328 733.06 236.328 731.091 236.328C731.091 230.207 731.091 224.086 731.091 217.965C733.06 217.965 735.029 217.965 736.998 217.965C736.998 216.216 736.998 214.468 736.998 212.719Z" fill="white"/>
<path opacity="0.979" fill-rule="evenodd" clip-rule="evenodd" d="M158.116 219.933C163.148 219.933 168.18 219.933 173.212 219.933C173.212 224.961 173.212 229.988 173.212 235.016C168.18 235.016 163.148 235.016 158.116 235.016C158.116 229.988 158.116 224.961 158.116 219.933Z" fill="white"/>
<path opacity="0.948" fill-rule="evenodd" clip-rule="evenodd" d="M175.181 219.933C180.431 219.933 185.682 219.933 190.933 219.933C190.933 224.961 190.933 229.988 190.933 235.016C185.682 235.016 180.431 235.016 175.181 235.016C175.181 229.988 175.181 224.961 175.181 219.933Z" fill="white"/>
<path opacity="0.979" fill-rule="evenodd" clip-rule="evenodd" d="M295.289 219.933C300.321 219.933 305.352 219.933 310.384 219.933C310.384 224.961 310.384 229.988 310.384 235.016C305.352 235.016 300.321 235.016 295.289 235.016C295.289 229.988 295.289 224.961 295.289 219.933Z" fill="white"/>
<path opacity="0.989" fill-rule="evenodd" clip-rule="evenodd" d="M312.354 219.933C317.386 219.933 322.417 219.933 327.449 219.933C327.449 224.961 327.449 229.988 327.449 235.016C322.417 235.016 317.386 235.016 312.354 235.016C312.354 229.988 312.354 224.961 312.354 219.933Z" fill="white"/>
<path opacity="0.979" fill-rule="evenodd" clip-rule="evenodd" d="M360.922 219.933C365.954 219.933 370.985 219.933 376.017 219.933C376.017 224.961 376.017 229.988 376.017 235.016C370.985 235.016 365.954 235.016 360.922 235.016C360.922 229.988 360.922 224.961 360.922 219.933Z" fill="white"/>
<path opacity="0.948" fill-rule="evenodd" clip-rule="evenodd" d="M377.986 219.933C383.237 219.933 388.488 219.933 393.738 219.933C393.738 224.961 393.738 229.988 393.738 235.016C388.488 235.016 383.237 235.016 377.986 235.016C377.986 229.988 377.986 224.961 377.986 219.933Z" fill="white"/>
<path opacity="0.938" fill-rule="evenodd" clip-rule="evenodd" d="M446.244 219.933C451.495 219.933 456.745 219.933 461.996 219.933C461.996 224.961 461.996 229.988 461.996 235.016C456.745 235.016 451.495 235.016 446.244 235.016C446.244 229.988 446.244 224.961 446.244 219.933Z" fill="white"/>
<path opacity="0.948" fill-rule="evenodd" clip-rule="evenodd" d="M463.309 219.933C468.56 219.933 473.81 219.933 479.061 219.933C479.061 224.961 479.061 229.988 479.061 235.016C473.81 235.016 468.56 235.016 463.309 235.016C463.309 229.988 463.309 224.961 463.309 219.933Z" fill="white"/>
<path opacity="0.948" fill-rule="evenodd" clip-rule="evenodd" d="M480.374 219.933C485.624 219.933 490.875 219.933 496.125 219.933C496.125 224.961 496.125 229.988 496.125 235.016C490.875 235.016 485.624 235.016 480.374 235.016C480.374 229.988 480.374 224.961 480.374 219.933Z" fill="white"/>
<path opacity="0.979" fill-rule="evenodd" clip-rule="evenodd" d="M498.094 219.933C503.126 219.933 508.158 219.933 513.19 219.933C513.19 224.961 513.19 229.988 513.19 235.016C508.158 235.016 503.126 235.016 498.094 235.016C498.094 229.988 498.094 224.961 498.094 219.933Z" fill="white"/>
<path opacity="0.989" fill-rule="evenodd" clip-rule="evenodd" d="M515.159 219.933C520.191 219.933 525.222 219.933 530.254 219.933C530.254 224.961 530.254 229.988 530.254 235.016C525.222 235.016 520.191 235.016 515.159 235.016C515.159 229.988 515.159 224.961 515.159 219.933Z" fill="#14E690"/>
<path opacity="0.989" fill-rule="evenodd" clip-rule="evenodd" d="M158.116 236.984C163.148 236.984 168.18 236.984 173.212 236.984C173.212 242.012 173.212 247.039 173.212 252.068C168.18 252.068 163.148 252.068 158.116 252.068C158.116 247.039 158.116 242.012 158.116 236.984Z" fill="white"/>
<path opacity="0.958" fill-rule="evenodd" clip-rule="evenodd" d="M175.181 236.984C180.431 236.984 185.682 236.984 190.933 236.984C190.933 242.012 190.933 247.039 190.933 252.068C185.682 252.068 180.431 252.068 175.181 252.068C175.181 247.039 175.181 242.012 175.181 236.984Z" fill="white"/>
<path opacity="0.989" fill-rule="evenodd" clip-rule="evenodd" d="M278.224 236.984C283.256 236.984 288.288 236.984 293.32 236.984C293.32 242.012 293.32 247.039 293.32 252.068C288.288 252.068 283.256 252.068 278.224 252.068C278.224 247.039 278.224 242.012 278.224 236.984Z" fill="white"/>
<path opacity="0.989" fill-rule="evenodd" clip-rule="evenodd" d="M295.289 236.984C300.321 236.984 305.352 236.984 310.384 236.984C310.384 242.012 310.384 247.039 310.384 252.068C305.352 252.068 300.321 252.068 295.289 252.068C295.289 247.039 295.289 242.012 295.289 236.984Z" fill="white"/>
<path fill-rule="evenodd" clip-rule="evenodd" d="M312.354 236.984C317.386 236.984 322.417 236.984 327.449 236.984C327.449 242.012 327.449 247.039 327.449 252.068C322.417 252.068 317.386 252.068 312.354 252.068C312.354 247.039 312.354 242.012 312.354 236.984Z" fill="white"/>
<path opacity="0.989" fill-rule="evenodd" clip-rule="evenodd" d="M360.922 236.984C365.954 236.984 370.985 236.984 376.017 236.984C376.017 242.012 376.017 247.039 376.017 252.068C370.985 252.068 365.954 252.068 360.922 252.068C360.922 247.039 360.922 242.012 360.922 236.984Z" fill="white"/>
<path opacity="0.958" fill-rule="evenodd" clip-rule="evenodd" d="M377.986 236.984C383.237 236.984 388.488 236.984 393.738 236.984C393.738 242.012 393.738 247.039 393.738 252.068C388.488 252.068 383.237 252.068 377.986 252.068C377.986 247.039 377.986 242.012 377.986 236.984Z" fill="white"/>
<path opacity="0.948" fill-rule="evenodd" clip-rule="evenodd" d="M446.244 236.984C451.495 236.984 456.745 236.984 461.996 236.984C461.996 242.012 461.996 247.039 461.996 252.068C456.745 252.068 451.495 252.068 446.244 252.068C446.244 247.039 446.244 242.012 446.244 236.984Z" fill="white"/>
<path opacity="0.958" fill-rule="evenodd" clip-rule="evenodd" d="M463.309 236.984C468.56 236.984 473.81 236.984 479.061 236.984C479.061 242.012 479.061 247.039 479.061 252.068C473.81 252.068 468.56 252.068 463.309 252.068C463.309 247.039 463.309 242.012 463.309 236.984Z" fill="white"/>
<path opacity="0.958" fill-rule="evenodd" clip-rule="evenodd" d="M480.374 236.984C485.624 236.984 490.875 236.984 496.125 236.984C496.125 242.012 496.125 247.039 496.125 252.068C490.875 252.068 485.624 252.068 480.374 252.068C480.374 247.039 480.374 242.012 480.374 236.984Z" fill="white"/>
<path opacity="0.989" fill-rule="evenodd" clip-rule="evenodd" d="M498.094 236.984C503.126 236.984 508.158 236.984 513.19 236.984C513.19 242.012 513.19 247.039 513.19 252.068C508.158 252.068 503.126 252.068 498.094 252.068C498.094 247.039 498.094 242.012 498.094 236.984Z" fill="white"/>
<path fill-rule="evenodd" clip-rule="evenodd" d="M515.159 236.984C520.191 236.984 525.222 236.984 530.254 236.984C530.254 242.012 530.254 247.039 530.254 252.068C525.222 252.068 520.191 252.068 515.159 252.068C515.159 247.039 515.159 242.012 515.159 236.984Z" fill="white"/>
<path opacity="0.989" fill-rule="evenodd" clip-rule="evenodd" d="M158.116 254.035C163.148 254.035 168.18 254.035 173.212 254.035C173.212 259.063 173.212 264.09 173.212 269.118C168.18 269.118 163.148 269.118 158.116 269.118C158.116 264.09 158.116 259.063 158.116 254.035Z" fill="white"/>
<path opacity="0.958" fill-rule="evenodd" clip-rule="evenodd" d="M175.181 254.035C180.431 254.035 185.682 254.035 190.933 254.035C190.933 259.063 190.933 264.09 190.933 269.118C185.682 269.118 180.431 269.118 175.181 269.118C175.181 264.09 175.181 259.063 175.181 254.035Z" fill="white"/>
<path opacity="0.948" fill-rule="evenodd" clip-rule="evenodd" d="M192.245 254.035C197.496 254.035 202.746 254.035 207.997 254.035C207.997 259.063 207.997 264.09 207.997 269.118C202.746 269.118 197.496 269.118 192.245 269.118C192.245 264.09 192.245 259.063 192.245 254.035Z" fill="white"/>
<path opacity="0.948" fill-rule="evenodd" clip-rule="evenodd" d="M209.31 254.035C214.56 254.035 219.811 254.035 225.061 254.035C225.061 259.063 225.061 264.09 225.061 269.118C219.811 269.118 214.56 269.118 209.31 269.118C209.31 264.09 209.31 259.063 209.31 254.035Z" fill="white"/>
<path opacity="0.958" fill-rule="evenodd" clip-rule="evenodd" d="M226.374 254.035C231.625 254.035 236.875 254.035 242.126 254.035C242.126 259.063 242.126 264.09 242.126 269.118C236.875 269.118 231.625 269.118 226.374 269.118C226.374 264.09 226.374 259.063 226.374 254.035Z" fill="white"/>
<path opacity="0.948" fill-rule="evenodd" clip-rule="evenodd" d="M243.439 254.035C248.69 254.035 253.94 254.035 259.191 254.035C259.191 259.063 259.191 264.09 259.191 269.118C253.94 269.118 248.69 269.118 243.439 269.118C243.439 264.09 243.439 259.063 243.439 254.035Z" fill="white"/>
<path opacity="0.958" fill-rule="evenodd" clip-rule="evenodd" d="M260.503 254.035C265.754 254.035 271.005 254.035 276.255 254.035C276.255 259.063 276.255 264.09 276.255 269.118C271.005 269.118 265.754 269.118 260.503 269.118C260.503 264.09 260.503 259.063 260.503 254.035Z" fill="white"/>
<path opacity="0.989" fill-rule="evenodd" clip-rule="evenodd" d="M278.224 254.035C283.256 254.035 288.288 254.035 293.32 254.035C293.32 259.063 293.32 264.09 293.32 269.118C288.288 269.118 283.256 269.118 278.224 269.118C278.224 264.09 278.224 259.063 278.224 254.035Z" fill="white"/>
<path opacity="0.989" fill-rule="evenodd" clip-rule="evenodd" d="M295.289 254.035C300.321 254.035 305.352 254.035 310.384 254.035C310.384 259.063 310.384 264.09 310.384 269.118C305.352 269.118 300.321 269.118 295.289 269.118C295.289 264.09 295.289 259.063 295.289 254.035Z" fill="white"/>
<path opacity="0.989" fill-rule="evenodd" clip-rule="evenodd" d="M360.922 254.035C365.954 254.035 370.985 254.035 376.017 254.035C376.017 259.063 376.017 264.09 376.017 269.118C370.985 269.118 365.954 269.118 360.922 269.118C360.922 264.09 360.922 259.063 360.922 254.035Z" fill="white"/>
<path opacity="0.958" fill-rule="evenodd" clip-rule="evenodd" d="M377.986 254.035C383.237 254.035 388.488 254.035 393.738 254.035C393.738 259.063 393.738 264.09 393.738 269.118C388.488 269.118 383.237 269.118 377.986 269.118C377.986 264.09 377.986 259.063 377.986 254.035Z" fill="white"/>
<path opacity="0.989" fill-rule="evenodd" clip-rule="evenodd" d="M498.094 254.035C503.126 254.035 508.158 254.035 513.19 254.035C513.19 259.063 513.19 264.09 513.19 269.118C508.158 269.118 503.126 269.118 498.094 269.118C498.094 264.09 498.094 259.063 498.094 254.035Z" fill="white"/>
<path fill-rule="evenodd" clip-rule="evenodd" d="M515.159 254.035C520.191 254.035 525.222 254.035 530.254 254.035C530.254 259.063 530.254 264.09 530.254 269.118C525.222 269.118 520.191 269.118 515.159 269.118C515.159 264.09 515.159 259.063 515.159 254.035Z" fill="white"/>
<path opacity="0.979" fill-rule="evenodd" clip-rule="evenodd" d="M158.116 271.086C163.148 271.086 168.18 271.086 173.212 271.086C173.212 276.114 173.212 281.142 173.212 286.17C168.18 286.17 163.148 286.17 158.116 286.17C158.116 281.142 158.116 276.114 158.116 271.086Z" fill="white"/>
<path opacity="0.948" fill-rule="evenodd" clip-rule="evenodd" d="M175.181 271.086C180.431 271.086 185.682 271.086 190.933 271.086C190.933 276.114 190.933 281.142 190.933 286.17C185.682 286.17 180.431 286.17 175.181 286.17C175.181 281.142 175.181 276.114 175.181 271.086Z" fill="white"/>
<path opacity="0.938" fill-rule="evenodd" clip-rule="evenodd" d="M192.245 271.086C197.496 271.086 202.746 271.086 207.997 271.086C207.997 276.114 207.997 281.142 207.997 286.17C202.746 286.17 197.496 286.17 192.245 286.17C192.245 281.142 192.245 276.114 192.245 271.086Z" fill="white"/>
<path opacity="0.938" fill-rule="evenodd" clip-rule="evenodd" d="M209.31 271.086C214.56 271.086 219.811 271.086 225.061 271.086C225.061 276.114 225.061 281.142 225.061 286.17C219.811 286.17 214.56 286.17 209.31 286.17C209.31 281.142 209.31 276.114 209.31 271.086Z" fill="white"/>
<path opacity="0.948" fill-rule="evenodd" clip-rule="evenodd" d="M226.374 271.086C231.625 271.086 236.875 271.086 242.126 271.086C242.126 276.114 242.126 281.142 242.126 286.17C236.875 286.17 231.625 286.17 226.374 286.17C226.374 281.142 226.374 276.114 226.374 271.086Z" fill="white"/>
<path opacity="0.938" fill-rule="evenodd" clip-rule="evenodd" d="M243.439 271.086C248.69 271.086 253.94 271.086 259.191 271.086C259.191 276.114 259.191 281.142 259.191 286.17C253.94 286.17 248.69 286.17 243.439 286.17C243.439 281.142 243.439 276.114 243.439 271.086Z" fill="white"/>
<path opacity="0.948" fill-rule="evenodd" clip-rule="evenodd" d="M260.503 271.086C265.754 271.086 271.005 271.086 276.255 271.086C276.255 276.114 276.255 281.142 276.255 286.17C271.005 286.17 265.754 286.17 260.503 286.17C260.503 281.142 260.503 276.114 260.503 271.086Z" fill="#E519DC"/>
<path opacity="0.979" fill-rule="evenodd" clip-rule="evenodd" d="M360.922 271.086C365.954 271.086 370.985 271.086 376.017 271.086C376.017 276.114 376.017 281.142 376.017 286.17C370.985 286.17 365.954 286.17 360.922 286.17C360.922 281.142 360.922 276.114 360.922 271.086Z" fill="white"/>
<path opacity="0.948" fill-rule="evenodd" clip-rule="evenodd" d="M377.986 271.086C383.237 271.086 388.488 271.086 393.738 271.086C393.738 276.114 393.738 281.142 393.738 286.17C388.488 286.17 383.237 286.17 377.986 286.17C377.986 281.142 377.986 276.114 377.986 271.086Z" fill="white"/>
<path opacity="0.938" fill-rule="evenodd" clip-rule="evenodd" d="M395.051 271.086C400.301 271.086 405.552 271.086 410.803 271.086C410.803 276.114 410.803 281.142 410.803 286.17C405.552 286.17 400.301 286.17 395.051 286.17C395.051 281.142 395.051 276.114 395.051 271.086Z" fill="white"/>
<path opacity="0.948" fill-rule="evenodd" clip-rule="evenodd" d="M480.374 271.086C485.624 271.086 490.875 271.086 496.125 271.086C496.125 276.114 496.125 281.142 496.125 286.17C490.875 286.17 485.624 286.17 480.374 286.17C480.374 281.142 480.374 276.114 480.374 271.086Z" fill="white"/>
<path opacity="0.979" fill-rule="evenodd" clip-rule="evenodd" d="M498.094 271.086C503.126 271.086 508.158 271.086 513.19 271.086C513.19 276.114 513.19 281.142 513.19 286.17C508.158 286.17 503.126 286.17 498.094 286.17C498.094 281.142 498.094 276.114 498.094 271.086Z" fill="white"/>
<path opacity="0.989" fill-rule="evenodd" clip-rule="evenodd" d="M515.159 271.086C520.191 271.086 525.222 271.086 530.254 271.086C530.254 276.114 530.254 281.142 530.254 286.17C525.222 286.17 520.191 286.17 515.159 286.17C515.159 281.142 515.159 276.114 515.159 271.086Z" fill="#FE1927"/>
<path opacity="0.944" fill-rule="evenodd" clip-rule="evenodd" d="M569.634 273.709C579.479 273.709 589.324 273.709 599.169 273.709C599.169 277.863 599.169 282.017 599.169 286.17C591.293 286.17 583.417 286.17 575.541 286.17C575.541 287.919 575.541 289.667 575.541 291.416C581.448 291.416 587.355 291.416 593.262 291.416C593.262 293.166 593.262 294.914 593.262 296.663C595.231 296.663 597.2 296.663 599.169 296.663C599.169 302.784 599.169 308.905 599.169 315.026C597.2 315.026 595.231 315.026 593.262 315.026C593.262 316.993 593.262 318.961 593.262 320.928C583.417 320.928 573.572 320.928 563.727 320.928C563.727 316.775 563.727 312.621 563.727 308.468C571.384 308.468 579.041 308.468 586.699 308.468C586.699 306.719 586.699 304.97 586.699 303.221C581.01 303.221 575.322 303.221 569.634 303.221C569.634 301.254 569.634 299.286 569.634 297.319C567.665 297.319 565.696 297.319 563.727 297.319C563.727 291.416 563.727 285.514 563.727 279.612C565.696 279.612 567.665 279.612 569.634 279.612C569.634 277.644 569.634 275.677 569.634 273.709Z" fill="white"/>
<path opacity="0.947" fill-rule="evenodd" clip-rule="evenodd" d="M609.67 273.709C617.546 273.709 625.422 273.709 633.298 273.709C633.298 275.677 633.298 277.644 633.298 279.612C635.267 279.612 637.236 279.612 639.205 279.612C639.205 291.416 639.205 303.221 639.205 315.026C637.236 315.026 635.267 315.026 633.298 315.026C633.298 316.993 633.298 318.961 633.298 320.928C625.422 320.928 617.546 320.928 609.67 320.928C609.67 318.961 609.67 316.993 609.67 315.026C607.701 315.026 605.732 315.026 603.763 315.026C603.763 303.221 603.763 291.416 603.763 279.612C605.732 279.612 607.701 279.612 609.67 279.612C609.67 277.644 609.67 275.677 609.67 273.709ZM616.233 286.17C619.953 286.17 623.672 286.17 627.391 286.17C627.391 293.602 627.391 301.035 627.391 308.468C623.672 308.468 619.953 308.468 616.233 308.468C616.233 301.035 616.233 293.602 616.233 286.17Z" fill="white"/>
<path opacity="0.944" fill-rule="evenodd" clip-rule="evenodd" d="M644.456 273.709C656.269 273.709 668.083 273.709 679.897 273.709C679.897 277.863 679.897 282.017 679.897 286.17C672.24 286.17 664.583 286.17 656.926 286.17C656.926 287.919 656.926 289.667 656.926 291.416C662.614 291.416 668.302 291.416 673.99 291.416C673.99 295.351 673.99 299.286 673.99 303.221C668.302 303.221 662.614 303.221 656.926 303.221C656.926 309.123 656.926 315.026 656.926 320.928C652.769 320.928 648.612 320.928 644.456 320.928C644.456 305.189 644.456 289.449 644.456 273.709Z" fill="white"/>
<path opacity="0.945" fill-rule="evenodd" clip-rule="evenodd" d="M685.148 273.709C696.743 273.709 708.338 273.709 719.933 273.709C719.933 277.863 719.933 282.017 719.933 286.17C716.214 286.17 712.495 286.17 708.776 286.17C708.776 297.756 708.776 309.342 708.776 320.928C704.619 320.928 700.462 320.928 696.306 320.928C696.306 309.342 696.306 297.756 696.306 286.17C692.586 286.17 688.867 286.17 685.148 286.17C685.148 282.017 685.148 277.863 685.148 273.709Z" fill="white"/>
<path opacity="0.948" fill-rule="evenodd" clip-rule="evenodd" d="M158.116 288.137C163.148 288.137 168.18 288.137 173.212 288.137C173.212 293.384 173.212 298.63 173.212 303.877C168.18 303.877 163.148 303.877 158.116 303.877C158.116 298.63 158.116 293.384 158.116 288.137Z" fill="white"/>
<path opacity="0.919" fill-rule="evenodd" clip-rule="evenodd" d="M175.181 288.137C180.431 288.137 185.682 288.137 190.933 288.137C190.933 293.384 190.933 298.63 190.933 303.877C185.682 303.877 180.431 303.877 175.181 303.877C175.181 298.63 175.181 293.384 175.181 288.137Z" fill="white"/>
<path opacity="0.919" fill-rule="evenodd" clip-rule="evenodd" d="M377.986 288.137C383.237 288.137 388.488 288.137 393.738 288.137C393.738 293.384 393.738 298.63 393.738 303.877C388.488 303.877 383.237 303.877 377.986 303.877C377.986 298.63 377.986 293.384 377.986 288.137Z" fill="#1986E6"/>
<path opacity="0.909" fill-rule="evenodd" clip-rule="evenodd" d="M395.051 288.137C400.301 288.137 405.552 288.137 410.803 288.137C410.803 293.384 410.803 298.63 410.803 303.877C405.552 303.877 400.301 303.877 395.051 303.877C395.051 298.63 395.051 293.384 395.051 288.137Z" fill="white"/>
<path opacity="0.909" fill-rule="evenodd" clip-rule="evenodd" d="M412.115 288.137C417.366 288.137 422.616 288.137 427.867 288.137C427.867 293.384 427.867 298.63 427.867 303.877C422.616 303.877 417.366 303.877 412.115 303.877C412.115 298.63 412.115 293.384 412.115 288.137Z" fill="white"/>
<path opacity="0.919" fill-rule="evenodd" clip-rule="evenodd" d="M429.18 288.137C434.43 288.137 439.681 288.137 444.932 288.137C444.932 293.384 444.932 298.63 444.932 303.877C439.681 303.877 434.43 303.877 429.18 303.877C429.18 298.63 429.18 293.384 429.18 288.137Z" fill="white"/>
<path opacity="0.909" fill-rule="evenodd" clip-rule="evenodd" d="M446.244 288.137C451.495 288.137 456.745 288.137 461.996 288.137C461.996 293.384 461.996 298.63 461.996 303.877C456.745 303.877 451.495 303.877 446.244 303.877C446.244 298.63 446.244 293.384 446.244 288.137Z" fill="white"/>
<path opacity="0.919" fill-rule="evenodd" clip-rule="evenodd" d="M463.309 288.137C468.56 288.137 473.81 288.137 479.061 288.137C479.061 293.384 479.061 298.63 479.061 303.877C473.81 303.877 468.56 303.877 463.309 303.877C463.309 298.63 463.309 293.384 463.309 288.137Z" fill="white"/>
<path opacity="0.919" fill-rule="evenodd" clip-rule="evenodd" d="M480.374 288.137C485.624 288.137 490.875 288.137 496.125 288.137C496.125 293.384 496.125 298.63 496.125 303.877C490.875 303.877 485.624 303.877 480.374 303.877C480.374 298.63 480.374 293.384 480.374 288.137Z" fill="white"/>
<path opacity="0.948" fill-rule="evenodd" clip-rule="evenodd" d="M498.094 288.137C503.126 288.137 508.158 288.137 513.19 288.137C513.19 293.384 513.19 298.63 513.19 303.877C508.158 303.877 503.126 303.877 498.094 303.877C498.094 298.63 498.094 293.384 498.094 288.137Z" fill="white"/>
<path opacity="0.938" fill-rule="evenodd" clip-rule="evenodd" d="M158.116 305.188C163.148 305.188 168.18 305.188 173.212 305.188C173.212 310.435 173.212 315.681 173.212 320.928C168.18 320.928 163.148 320.928 158.116 320.928C158.116 315.681 158.116 310.435 158.116 305.188Z" fill="white"/>
<path opacity="0.909" fill-rule="evenodd" clip-rule="evenodd" d="M175.181 305.188C180.431 305.188 185.682 305.188 190.933 305.188C190.933 310.435 190.933 315.681 190.933 320.928C185.682 320.928 180.431 320.928 175.181 320.928C175.181 315.681 175.181 310.435 175.181 305.188Z" fill="#19BEE6"/>
<path opacity="0.899" fill-rule="evenodd" clip-rule="evenodd" d="M395.051 305.188C400.301 305.188 405.552 305.188 410.803 305.188C410.803 310.435 410.803 315.681 410.803 320.928C405.552 320.928 400.301 320.928 395.051 320.928C395.051 315.681 395.051 310.435 395.051 305.188Z" fill="white"/>
<path opacity="0.899" fill-rule="evenodd" clip-rule="evenodd" d="M412.115 305.188C417.366 305.188 422.616 305.188 427.867 305.188C427.867 310.435 427.867 315.681 427.867 320.928C422.616 320.928 417.366 320.928 412.115 320.928C412.115 315.681 412.115 310.435 412.115 305.188Z" fill="white"/>
<path opacity="0.909" fill-rule="evenodd" clip-rule="evenodd" d="M429.18 305.188C434.43 305.188 439.681 305.188 444.932 305.188C444.932 310.435 444.932 315.681 444.932 320.928C439.681 320.928 434.43 320.928 429.18 320.928C429.18 315.681 429.18 310.435 429.18 305.188Z" fill="white"/>
<path opacity="0.899" fill-rule="evenodd" clip-rule="evenodd" d="M446.244 305.188C451.495 305.188 456.745 305.188 461.996 305.188C461.996 310.435 461.996 315.681 461.996 320.928C456.745 320.928 451.495 320.928 446.244 320.928C446.244 315.681 446.244 310.435 446.244 305.188Z" fill="white"/>
<path opacity="0.909" fill-rule="evenodd" clip-rule="evenodd" d="M463.309 305.188C468.56 305.188 473.81 305.188 479.061 305.188C479.061 310.435 479.061 315.681 479.061 320.928C473.81 320.928 468.56 320.928 463.309 320.928C463.309 315.681 463.309 310.435 463.309 305.188Z" fill="white"/>
<path opacity="0.909" fill-rule="evenodd" clip-rule="evenodd" d="M480.374 305.188C485.624 305.188 490.875 305.188 496.125 305.188C496.125 310.435 496.125 315.681 496.125 320.928C490.875 320.928 485.624 320.928 480.374 320.928C480.374 315.681 480.374 310.435 480.374 305.188Z" fill="#FE4B00"/>
</svg>
