<svg width="24" height="24" viewBox="0 0 24 24" fill="none" xmlns="http://www.w3.org/2000/svg">
<g clip-path="url(#clip0_8081_359)">
<path d="M21.7846 17.0769C21.6923 16.9846 21.6923 17.0769 21.7846 17.0769C21.6923 16.8923 21.6 16.8 21.5077 16.7077C20.1231 14.8615 19.0154 12.6461 19.0154 9.7846C19.0154 6.27691 16.8923 3.41537 13.6615 2.67691V2.5846C13.6615 1.66153 12.9231 0.923065 12 0.923065C11.0769 0.923065 10.2462 1.66153 10.2462 2.5846V2.67691C7.01539 3.41537 4.98462 6.27691 4.89231 9.7846C4.89231 12.8308 3.5077 15.1384 2.12308 17.0769V17.1692C1.93847 17.4461 1.84616 17.8154 1.84616 18.0923V18.1846C1.93847 20.3077 6.36924 21.2308 11.9077 21.2308C17.4462 21.2308 21.9692 20.3077 21.9692 18.0923C22.0615 17.7231 21.9692 17.3538 21.7846 17.0769Z" fill="#ffff"/>
<path d="M8.58463 22.4308C9.32309 23.3539 10.6154 24 12 24C13.4769 24 14.6769 23.3539 15.4154 22.3385C14.3077 22.4308 13.0154 22.5231 11.7231 22.5231C10.7077 22.5231 9.60001 22.4308 8.58463 22.4308Z" fill=""/>
</g>
<defs>
<clipPath id="clip0_8081_359">
<rect width="24" height="24" fill="white"/>
</clipPath>
</defs>
</svg>
