<svg width="538" height="538" viewBox="0 0 538 538" fill="none" xmlns="http://www.w3.org/2000/svg">
<path d="M269 0C120.399 0 0 120.399 0 269C0 417.601 120.399 538 269 538C417.601 538 538 417.601 538 269C538 120.399 417.601 0 269 0ZM397.381 173.787L353.234 381.828C349.98 396.58 341.194 400.159 328.938 393.218L261.688 343.648L229.256 374.886C225.676 378.466 222.639 381.503 215.697 381.503L220.47 313.06L345.099 200.47C350.523 195.698 343.906 192.986 336.747 197.759L182.723 294.729L116.341 274.011C101.915 269.456 101.589 259.585 119.378 252.643L378.724 152.636C390.764 148.297 401.286 155.565 397.381 173.787Z" fill=""/>
<path d="M397.381 173.787L353.234 381.828C349.98 396.58 341.194 400.159 328.938 393.218L261.688 343.648L229.256 374.886C225.676 378.466 222.639 381.503 215.697 381.503L220.47 313.06L345.099 200.47C350.523 195.698 343.906 192.986 336.747 197.759L182.723 294.729L116.341 274.011C101.915 269.456 101.589 259.585 119.378 252.643L378.724 152.636C390.764 148.297 401.286 155.565 397.381 173.787Z" fill="#ffffff"/>
<path d="M397.381 173.787L353.234 381.828C349.98 396.58 341.194 400.159 328.938 393.218L261.688 343.648L229.256 374.886C225.676 378.466 222.639 381.503 215.697 381.503L220.47 313.06L345.099 200.47C350.523 195.698 343.906 192.986 336.747 197.759L182.723 294.729L116.341 274.011C101.915 269.456 101.589 259.585 119.378 252.643L378.724 152.636C390.764 148.297 401.286 155.565 397.381 173.787Z" fill="#ffffff"/>
</svg>
