<svg width="533" height="533" viewBox="0 0 533 533" fill="none" xmlns="http://www.w3.org/2000/svg">
<path d="M533 266.502C533 413.686 413.684 533 266.5 533C119.316 533 0 413.686 0 266.502C0 119.319 119.316 0.00244141 266.5 0.00244141C413.684 0.00244141 533 119.319 533 266.502Z" fill=""/>
<path d="M244.528 263.672C232.855 292.73 211.606 312.184 187.729 312.184C163.855 312.184 142.609 292.735 130.935 263.684C123.668 260.806 116.751 252.038 113.595 240.586C109.493 225.703 110.311 212.416 121.506 208.296C122.592 156.507 143.614 136.465 187.729 136.465C231.847 136.465 252.869 156.51 253.953 208.306C265.122 212.439 265.936 225.715 261.837 240.586C258.685 252.023 251.782 260.781 244.528 263.672Z" fill="#ffffff"/>
<path d="M294.564 362.688C304.806 373.163 294.221 386.649 279.358 386.649H96.1008C81.237 386.649 70.6514 373.163 80.8939 362.688C101.014 342.117 141.306 328.075 187.729 328.075C234.152 328.075 274.443 342.117 294.564 362.688Z" fill="#ffffff"/>
<path d="M340.002 287.583C326.391 287.583 315.357 298.597 315.357 312.184C315.357 325.771 326.391 336.784 340.002 336.784H413.938C427.55 336.784 438.584 325.771 438.584 312.184C438.584 298.597 427.55 287.583 413.938 287.583H340.002Z" fill="#ffffff"/>
<path d="M310.141 228.919C310.141 215.332 321.175 204.318 334.786 204.318H458.013C471.625 204.318 482.658 215.332 482.658 228.919C482.658 242.505 471.625 253.519 458.013 253.519H334.786C321.175 253.519 310.141 242.505 310.141 228.919Z" fill="#ffffff"/>
</svg>
