<svg width="996" height="471" viewBox="0 0 996 471" fill="none" xmlns="http://www.w3.org/2000/svg">
<path d="M0 50C0 22.3858 22.3858 0 50 0H946C973.614 0 996 22.3858 996 50V421C996 448.614 973.614 471 946 471H50C22.3858 471 0 448.614 0 421V50Z" fill=""/>
<rect x="76" y="158" width="128" height="157" rx="10" fill="#FFB000"/>
<path d="M183.62 266.08C183.62 277.48 179.9 286.18 172.46 292.18C165.14 298.06 155.66 301 144.02 301H103.7C103.1 301 102.56 300.82 102.08 300.46C101.72 299.98 101.54 299.44 101.54 298.84V177.16C101.54 176.56 101.72 176.08 102.08 175.72C102.56 175.24 103.1 175 103.7 175H141.32C154.16 175 164.12 177.88 171.2 183.64C178.28 189.28 181.82 197.92 181.82 209.56C181.82 221.44 177.2 230.02 167.96 235.3C167.36 235.66 167.3 236.02 167.78 236.38C178.34 242.38 183.62 252.28 183.62 266.08ZM127.82 196.78C127.22 196.78 126.92 197.08 126.92 197.68V225.94C126.92 226.54 127.22 226.84 127.82 226.84H141.5C146.3 226.84 150.08 225.52 152.84 222.88C155.6 220.24 156.98 216.58 156.98 211.9C156.98 207.1 155.6 203.38 152.84 200.74C150.2 198.1 146.42 196.78 141.5 196.78H127.82ZM142.94 279.04C147.74 279.04 151.46 277.66 154.1 274.9C156.86 272.02 158.24 268 158.24 262.84C158.24 257.68 156.86 253.66 154.1 250.78C151.46 247.78 147.74 246.28 142.94 246.28H127.82C127.22 246.28 126.92 246.58 126.92 247.18V278.14C126.92 278.74 127.22 279.04 127.82 279.04H142.94Z" fill="#111111"/>
<path d="M296.304 302.44C285.744 302.44 277.224 299.38 270.744 293.26C264.384 287.02 261.204 278.8 261.204 268.6V207.4C261.204 197.2 264.384 189.04 270.744 182.92C277.224 176.68 285.744 173.56 296.304 173.56C303.264 173.56 309.384 175 314.664 177.88C319.944 180.64 324.024 184.54 326.904 189.58C329.904 194.62 331.404 200.38 331.404 206.86V212.08C331.404 213.28 330.804 213.88 329.604 213.88H323.664C322.464 213.88 321.864 213.28 321.864 212.08V206.86C321.864 199.42 319.524 193.42 314.844 188.86C310.164 184.3 303.984 182.02 296.304 182.02C288.624 182.02 282.444 184.36 277.764 189.04C273.084 193.6 270.744 199.6 270.744 207.04V268.96C270.744 276.4 273.084 282.46 277.764 287.14C282.564 291.7 288.804 293.98 296.484 293.98C304.164 293.98 310.284 291.76 314.844 287.32C319.524 282.76 321.864 276.82 321.864 269.5V247.54C321.864 247.06 321.624 246.82 321.144 246.82H298.644C297.444 246.82 296.844 246.22 296.844 245.02V240.34C296.844 239.14 297.444 238.54 298.644 238.54H329.604C330.804 238.54 331.404 239.14 331.404 240.34V268.24C331.404 278.68 328.164 287.02 321.684 293.26C315.324 299.38 306.864 302.44 296.304 302.44ZM447.193 301C446.113 301 445.453 300.46 445.213 299.38L438.733 275.62C438.613 275.26 438.313 275.08 437.833 275.08H392.473C391.993 275.08 391.693 275.26 391.573 275.62L385.273 299.38C385.033 300.46 384.373 301 383.293 301H377.173C376.573 301 376.093 300.82 375.733 300.46C375.493 300.1 375.433 299.62 375.553 299.02L409.393 176.44C409.633 175.48 410.293 175 411.373 175H418.933C420.013 175 420.673 175.48 420.913 176.44L454.753 299.02L454.933 299.56C454.933 300.52 454.333 301 453.133 301H447.193ZM394.093 266.44C393.973 266.56 393.973 266.74 394.093 266.98C394.333 267.1 394.573 267.16 394.813 267.16H435.493C435.733 267.16 435.913 267.1 436.033 266.98C436.273 266.74 436.333 266.56 436.213 266.44L415.513 189.04C415.393 188.8 415.213 188.68 414.973 188.68C414.853 188.68 414.733 188.8 414.613 189.04L394.093 266.44ZM570.711 176.26C571.311 175.42 572.031 175 572.871 175H579.171C580.371 175 580.971 175.6 580.971 176.8V299.2C580.971 300.4 580.371 301 579.171 301H573.231C572.031 301 571.431 300.4 571.431 299.2V195.34C571.431 194.98 571.311 194.8 571.071 194.8C570.831 194.68 570.651 194.8 570.531 195.16L544.791 241.6C544.431 242.44 543.711 242.86 542.631 242.86H541.191C540.351 242.86 539.631 242.44 539.031 241.6L513.111 195.52C512.991 195.16 512.811 195.04 512.571 195.16C512.331 195.16 512.211 195.34 512.211 195.7V299.2C512.211 300.4 511.611 301 510.411 301H504.471C503.271 301 502.671 300.4 502.671 299.2V176.8C502.671 175.6 503.271 175 504.471 175H510.591C511.431 175 512.151 175.42 512.751 176.26L541.371 227.02C541.491 227.14 541.671 227.2 541.911 227.2C542.151 227.2 542.331 227.14 542.451 227.02L570.711 176.26ZM642.393 301C641.193 301 640.593 300.4 640.593 299.2V176.8C640.593 175.6 641.193 175 642.393 175H648.333C649.533 175 650.133 175.6 650.133 176.8V299.2C650.133 300.4 649.533 301 648.333 301H642.393ZM772.6 176.8C772.6 175.6 773.2 175 774.4 175H780.34C781.54 175 782.14 175.6 782.14 176.8V299.2C782.14 300.4 781.54 301 780.34 301H773.86C772.78 301 772.06 300.58 771.7 299.74L720.04 196.42C719.8 196.18 719.56 196.12 719.32 196.24C719.2 196.24 719.14 196.42 719.14 196.78V299.2C719.14 300.4 718.54 301 717.34 301H711.4C710.2 301 709.6 300.4 709.6 299.2V176.8C709.6 175.6 710.2 175 711.4 175H717.88C718.96 175 719.68 175.42 720.04 176.26L771.7 279.22C771.94 279.46 772.12 279.58 772.24 279.58C772.48 279.46 772.6 279.22 772.6 278.86V176.8ZM873.218 302.44C862.658 302.44 854.138 299.38 847.658 293.26C841.298 287.02 838.118 278.8 838.118 268.6V207.4C838.118 197.2 841.298 189.04 847.658 182.92C854.138 176.68 862.658 173.56 873.218 173.56C880.178 173.56 886.298 175 891.578 177.88C896.858 180.64 900.938 184.54 903.818 189.58C906.818 194.62 908.318 200.38 908.318 206.86V212.08C908.318 213.28 907.718 213.88 906.518 213.88H900.578C899.378 213.88 898.778 213.28 898.778 212.08V206.86C898.778 199.42 896.438 193.42 891.758 188.86C887.078 184.3 880.898 182.02 873.218 182.02C865.538 182.02 859.358 184.36 854.678 189.04C849.998 193.6 847.658 199.6 847.658 207.04V268.96C847.658 276.4 849.998 282.46 854.678 287.14C859.478 291.7 865.718 293.98 873.398 293.98C881.078 293.98 887.198 291.76 891.758 287.32C896.438 282.76 898.778 276.82 898.778 269.5V247.54C898.778 247.06 898.538 246.82 898.058 246.82H875.558C874.358 246.82 873.758 246.22 873.758 245.02V240.34C873.758 239.14 874.358 238.54 875.558 238.54H906.518C907.718 238.54 908.318 239.14 908.318 240.34V268.24C908.318 278.68 905.078 287.02 898.598 293.26C892.238 299.38 883.778 302.44 873.218 302.44Z" fill="white"/>
</svg>
