<svg width="25" height="25" viewBox="0 0 25 25" fill="none" xmlns="http://www.w3.org/2000/svg">
    <path d="M19.8789 1.51154C20.3395 1.51154 20.7815 1.69487 21.1074 2.02032C21.4333 2.34578 21.6165 2.78727 21.6172 3.24786V12.0662C21.4227 11.9611 21.2226 11.8659 21.0176 11.7811C20.2348 11.457 19.396 11.2896 18.5488 11.2899C17.2728 11.2899 16.0248 11.6688 14.9639 12.3777C13.903 13.0867 13.0762 14.0945 12.5879 15.2733C12.0997 16.4521 11.9718 17.7494 12.2207 19.0008C12.4577 20.1922 13.0269 21.2905 13.8594 22.1717H2.69043C2.2302 22.1712 1.78845 21.9882 1.46289 21.6629C1.13753 21.3376 0.954877 20.8964 0.954102 20.4363V3.24786C0.95479 2.78751 1.13727 2.34574 1.46289 2.02032C1.78845 1.69501 2.2302 1.512 2.69043 1.51154H19.8789ZM16.8662 3.54767C16.6041 3.54767 16.3524 3.65143 16.167 3.83673C15.9816 4.0221 15.877 4.2738 15.877 4.53595C15.877 5.75406 15.3935 6.92265 14.5322 7.784C13.6709 8.64534 12.5023 9.12872 11.2842 9.12872C10.0661 9.12868 8.89744 8.64531 8.03613 7.784C7.17491 6.92267 6.69141 5.75399 6.69141 4.53595C6.69134 4.2738 6.58674 4.0221 6.40137 3.83673C6.21597 3.65152 5.96422 3.54767 5.70215 3.54767C5.44026 3.54779 5.18919 3.65165 5.00391 3.83673C4.81854 4.0221 4.71393 4.2738 4.71387 4.53595C4.71387 6.27855 5.40647 7.95023 6.63867 9.18243C7.87081 10.4144 9.54177 11.1062 11.2842 11.1063C13.0268 11.1063 14.6985 10.4146 15.9307 9.18243C17.1628 7.95024 17.8545 6.27853 17.8545 4.53595C17.8544 4.2738 17.7508 4.0221 17.5654 3.83673C17.38 3.65137 17.1284 3.54771 16.8662 3.54767Z" fill="#FFFF"/>
    <path d="M18.5484 12.0968C17.4319 12.0968 16.3404 12.4279 15.4121 13.0482C14.4837 13.6685 13.7602 14.5501 13.3329 15.5816C12.9056 16.6131 12.7939 17.7482 13.0117 18.8432C13.2295 19.9383 13.7671 20.9442 14.5566 21.7337C15.3461 22.5232 16.352 23.0608 17.447 23.2786C18.5421 23.4964 19.6772 23.3846 20.7087 22.9574C21.7402 22.5301 22.6218 21.8066 23.2421 20.8782C23.8624 19.9499 24.1935 18.8584 24.1935 17.7419C24.1938 17.0005 24.0479 16.2664 23.7643 15.5813C23.4807 14.8963 23.0648 14.2739 22.5406 13.7497C22.0164 13.2254 21.3939 12.8096 20.7089 12.526C20.0239 12.2424 19.2898 12.0965 18.5484 12.0968ZM18.3564 21.4623H16.4927C16.3669 21.4745 16.2399 21.4605 16.1198 21.4212C15.9996 21.3818 15.8889 21.318 15.7947 21.2337C15.6425 21.0627 15.5619 20.8396 15.5696 20.6108V17.7088H18.3424V21.4623H18.3564ZM18.3564 17.2987H15.7109C15.6542 17.3058 15.5966 17.3016 15.5415 17.2863C15.4864 17.2711 15.4348 17.245 15.3899 17.2097C15.3294 17.1318 15.3001 17.0341 15.3078 16.9357V16.2691C15.3014 16.1698 15.3332 16.0717 15.3968 15.9952C15.4438 15.9576 15.4977 15.9297 15.5556 15.9132C15.6134 15.8967 15.6739 15.892 15.7336 15.8992H18.3512V17.2952L18.3564 17.2987ZM18.0074 15.5903H16.4369C16.3443 15.5903 16.2555 15.5535 16.1901 15.4881C16.1246 15.4226 16.0879 15.3339 16.0879 15.2413V14.3566C16.0842 14.3098 16.0907 14.2628 16.1069 14.2188C16.1232 14.1748 16.1488 14.1348 16.1819 14.1016C16.2151 14.0685 16.2551 14.0429 16.2991 14.0266C16.3431 14.0104 16.3901 14.0039 16.4369 14.0076C16.5433 14.0076 17.004 14.217 17.4472 14.4909C17.8905 14.7649 18.3547 15.1349 18.3547 15.2343C18.3571 15.2807 18.3499 15.327 18.3336 15.3705C18.3174 15.414 18.2923 15.4536 18.2601 15.487C18.2279 15.5204 18.1891 15.5468 18.1462 15.5646C18.1034 15.5823 18.0573 15.5911 18.0109 15.5903H18.0074ZM19.6425 14.5049C20.0857 14.2309 20.5447 14.0215 20.6529 14.0215C20.6996 14.0179 20.7466 14.0244 20.7906 14.0406C20.8347 14.0568 20.8746 14.0824 20.9078 14.1156C20.941 14.1488 20.9666 14.1887 20.9828 14.2328C20.999 14.2768 21.0055 14.3238 21.0019 14.3705V15.2553C21.0019 15.3478 20.9651 15.4366 20.8996 15.5021C20.8342 15.5675 20.7454 15.6043 20.6529 15.6043H19.0823C19.0374 15.6057 18.9927 15.5981 18.9508 15.5821C18.9088 15.566 18.8705 15.5417 18.838 15.5107C18.8055 15.4797 18.7796 15.4425 18.7616 15.4014C18.7436 15.3602 18.734 15.3159 18.7333 15.271C18.7368 15.1488 19.1818 14.7911 19.646 14.5049H19.6425ZM21.5079 20.6125C21.5153 20.8413 21.4347 21.0642 21.2828 21.2355C21.1897 21.3188 21.0805 21.3821 20.9619 21.4214C20.8434 21.4608 20.718 21.4753 20.5935 21.4641H18.7368V17.7088H21.5149V20.6108L21.5079 20.6125ZM21.7784 16.9375C21.7861 17.0358 21.7569 17.1335 21.6964 17.2114C21.6515 17.2468 21.5999 17.2729 21.5448 17.2882C21.4897 17.3035 21.4321 17.3077 21.3753 17.3004H18.7368V15.9044H21.3544C21.4141 15.8972 21.4746 15.902 21.5324 15.9185C21.5903 15.9349 21.6442 15.9628 21.6912 16.0004C21.7548 16.077 21.7866 16.175 21.7801 16.2744V16.941L21.7784 16.9375Z" fill="#2F9A3E"/>
</svg>
