<svg width="533" height="533" viewBox="0 0 533 533" fill="none" xmlns="http://www.w3.org/2000/svg">
<path d="M533 266.5C533 413.684 413.684 532.998 266.5 532.998C119.316 532.998 0 413.684 0 266.5C0 119.316 119.316 0 266.5 0C413.684 0 533 119.316 533 266.5Z" fill=""/>
<path d="M332.571 375.361C321.467 384.56 307.999 390.44 293.71 392.329C284.866 393.527 281.323 397.41 282.664 406.217L282.795 416.271C284.998 429.021 276.632 432.964 267.237 432.964C258.153 432.964 250.074 429.944 251.068 416.583C251.211 414.677 251.068 407.955 251.223 403.653C251.917 397.122 249.595 394.821 242.845 393.611C207.228 387.284 185.769 365.486 175.225 331.346C172.831 323.497 174.459 320.849 181.544 319.423C186.858 318.225 189.922 317.482 194.063 316.475C202.44 314.474 211.345 309.633 218.909 311.251C226.281 312.82 225.264 324.432 229.357 331.059C240.906 349.729 269.846 357.182 288.947 345.99C308.048 334.798 308.096 306.601 288.433 296.523C273.197 288.734 256.884 282.97 240.835 276.871C211.548 265.75 189.012 248.579 183.231 215.481C177.247 181.125 193.931 134.894 240.523 126.554C252.635 124.397 252.061 116.967 250.936 108.987C249.739 96.2246 257.53 94.3313 265.705 94.3432C274.789 94.3432 284.088 93.4325 282.867 108.028C280.581 119.819 284.902 124.541 297.887 127.477C324.481 133.468 340.77 152.641 349.961 178.094C351.912 183.498 351.158 185.967 345.545 187.297C342.338 188.052 339.333 189.693 336.246 190.999C327.868 194.451 319.49 200.778 311.196 200.586C302.016 200.358 302.579 187.405 297.074 181.149C287.655 170.364 277.278 163.846 262.366 166.35C250.158 168.399 242.678 175.002 239.386 186.877C235.557 200.742 240.583 211.79 256.142 218.896C275.674 227.836 295.769 235.493 315.469 244.061C372.617 268.962 371.301 343.737 332.571 375.361Z" fill="#ffffff"/>
</svg>
