<svg width="24" height="24" viewBox="0 0 24 24" fill="" xmlns="http://www.w3.org/2000/svg">
<path d="M21.1942 2.5498C21.6784 2.54997 22.0761 2.90848 22.1404 3.37598L22.1483 3.50488V9.23047C22.1483 9.7147 21.7904 10.1121 21.3231 10.1768L21.1942 10.1855H19.5067L22.1151 19.6357C22.1512 19.7667 22.1586 19.9039 22.1375 20.0381C22.1164 20.1722 22.0675 20.3006 21.993 20.4141C21.9184 20.5276 21.8197 20.6236 21.7049 20.6963C21.5902 20.7689 21.4614 20.8161 21.327 20.835L21.1942 20.8438H2.10529C1.96953 20.8437 1.83441 20.8148 1.71076 20.7588C1.58725 20.7028 1.47699 20.6205 1.38752 20.5186C1.29809 20.4166 1.2317 20.2967 1.1922 20.167C1.15266 20.0371 1.14051 19.9002 1.15802 19.7656L1.18537 19.6357L3.79181 10.1855H2.10529C1.87453 10.1857 1.65134 10.1018 1.47736 9.9502C1.30348 9.79867 1.18954 9.5898 1.15802 9.36133L1.15021 9.23047V3.50488C1.15021 3.02188 1.50878 2.62299 1.97638 2.55859L2.10529 2.5498H21.1942ZM11.3358 7.90527C11.2036 7.90527 11.0958 8.01241 11.0955 8.14453V8.83984C9.86199 8.96678 8.669 9.6817 8.66877 11.0879C8.66877 12.5032 9.83478 12.93 10.9285 13.2188C11.0959 13.2636 11.2645 13.3054 11.4285 13.3447C12.3953 13.582 13.3074 13.8055 13.3074 14.5918C13.3073 15.5746 12.0796 15.6513 11.702 15.6514C10.6027 15.6514 9.93189 15.1144 9.89142 14.2109H8.40802C8.41787 14.8934 8.64459 15.4625 9.0799 15.9033C9.54795 16.3768 10.2655 16.6824 11.0965 16.7754V17.4561C11.0965 17.5884 11.2044 17.6953 11.3367 17.6953H11.9344C12.0667 17.6953 12.1746 17.5884 12.1746 17.4561V16.7812C13.803 16.6247 14.7918 15.7397 14.7918 14.3945C14.7917 12.7619 13.2651 12.3863 12.6131 12.2266L12.3699 12.166C10.5348 11.6947 10.1532 11.5969 10.1531 10.9463C10.1531 10.2288 10.8357 9.97363 11.4197 9.97363C12.43 9.97369 12.9619 10.3597 13.0408 11.1523H14.5291C14.4818 9.48039 13.1154 8.99952 12.1727 8.86719V8.14453C12.1724 8.01241 12.0656 7.90527 11.9334 7.90527H11.3358ZM3.05841 8.27637L4.31818 8.27441L4.92169 6.39062C4.97081 6.21263 5.07065 6.05219 5.2088 5.92969C5.34692 5.80728 5.51752 5.72765 5.70002 5.7002L5.83966 5.68848L17.5047 5.7002C17.8869 5.7002 18.2275 5.92695 18.3787 6.26855L18.4246 6.40137L18.9803 8.27441H20.2401V4.45996H3.05841V8.27637Z" fill="#fff"/>
</svg>
